<?xml version="1.0" encoding="utf-8"?>
<!-- Generator: Adobe Illustrator 24.3.0, SVG Export Plug-In . SVG Version: 6.00 Build 0)  -->
<svg version="1.1" id="Calque_1" xmlns="http://www.w3.org/2000/svg" xmlns:xlink="http://www.w3.org/1999/xlink" x="0px" y="0px"
	 viewBox="0 0 113.4 113.4" style="enable-background:new 0 0 113.4 113.4;" xml:space="preserve">
<style type="text/css">
	.st0{fill:#534F4D;}
</style>
<g id="_x32_85">
	<path class="st0" d="M35.5,82.9c2.1,0.5,3.2,0.5,4.8-0.5c1.6-0.5,2.6-2.1,3.2-4.2c0.5-1.6,0.5-3.2-1.1-5.3l-5.3-10.6l52.4,14.3
		c2.1,0.5,3.2,0.5,5.3-1.1c2.1-1.6,2.6-2.6,2.6-4.2c0.5-1.6,0.5-3.2-0.5-4.8c-0.5-1.1-2.1-2.6-4.2-3.2L40.2,49l10.6-5.8
		c1.1-0.5,2.6-2.1,3.2-4.2c0.5-2.1,0.5-3.7-1.1-5.3c-1.1-1.6-2.1-2.6-4.2-3.2c-2.1-0.5-3.2-0.5-5.3,1.1L19.1,45.3
		c-1.1,0.5-2.6,2.6-3.2,4.2c-0.5,2.1,0,3.7,1.1,5.3l14.3,24.9C32.8,80.7,33.9,82.3,35.5,82.9z"/>
</g>
</svg>
