<?xml version="1.0" encoding="utf-8"?>
<!-- Generator: Adobe Illustrator 24.3.0, SVG Export Plug-In . SVG Version: 6.00 Build 0)  -->
<svg version="1.1" id="Calque_1" xmlns="http://www.w3.org/2000/svg" xmlns:xlink="http://www.w3.org/1999/xlink" x="0px" y="0px"
	 viewBox="0 0 113.4 113.4" style="enable-background:new 0 0 113.4 113.4;" xml:space="preserve">
<style type="text/css">
	.st0{fill:#534F4D;}
</style>
<g id="_x32_25">
	<path class="st0" d="M64.9,86.3c1.6-1.6,2.1-2.6,2.1-4.2c0.5-2.1-0.5-3.2-2.1-4.8c-1.1-1.1-2.6-2.1-4.8-2.1L48,74.7l38.6-38.6
		c1.6-1.6,2.1-2.6,2.1-4.8s-0.5-3.7-2.1-4.2C85.5,26,83.9,25,82.3,25s-3.2,0.5-4.8,2.1L39,65.7V53.5c0-1.6-0.5-3.2-2.1-4.8
		s-3.2-2.1-4.8-2.1c-2.1,0.5-3.2,0.5-4.8,2.1c-1.6,1.6-2.1,2.6-2.1,4.8l-0.5,28c0,1.6,0.5,3.7,2.1,4.8c1.6,1.6,3.2,2.1,4.8,2.1h28.6
		C61.7,87.9,63.8,87.4,64.9,86.3z"/>
</g>
</svg>
