<?xml version="1.0" encoding="utf-8"?>
<!-- Generator: Adobe Illustrator 24.3.0, SVG Export Plug-In . SVG Version: 6.00 Build 0)  -->
<svg version="1.1" id="Calque_1" xmlns="http://www.w3.org/2000/svg" xmlns:xlink="http://www.w3.org/1999/xlink" x="0px" y="0px"
	 viewBox="0 0 113.4 113.4" style="enable-background:new 0 0 113.4 113.4;" xml:space="preserve">
<style type="text/css">
	.st0{fill:#534F4D;}
</style>
<g id="_x33_00">
	<path class="st0" d="M29.9,76c1.6,1.1,3.2,1.1,4.8,1.1c2.1,0,3.2-1.1,4.2-3.2c0.5-1.6,1.1-3.2,0.5-5.3L36.8,57l47.1,27
		c1.6,1.1,3.2,1.1,5.3,0.5s3.2-1.6,3.7-3.2c0.5-1.6,1.1-3.2,1.1-4.8c-0.5-1.6-1.1-3.2-3.2-4.2l-47.1-27l11.6-3.2
		c1.6-0.5,3.2-1.1,4.2-3.2c1.1-1.6,1.6-3.7,0.5-5.3c-1.1-1.6-1.1-3.2-3.2-4.2c-1.6-1.1-3.2-1.1-5.3-0.5l-27,6.9
		c-1.6,0.5-3.7,1.6-4.2,3.2c-1.1,1.6-1.1,3.7-0.5,5.3l7.4,27.5C27.8,73.9,28.3,75.5,29.9,76z"/>
</g>
</svg>
