<?xml version="1.0" encoding="utf-8"?>
<!-- Generator: Adobe Illustrator 24.3.0, SVG Export Plug-In . SVG Version: 6.00 Build 0)  -->
<svg version="1.1" id="Calque_1" xmlns="http://www.w3.org/2000/svg" xmlns:xlink="http://www.w3.org/1999/xlink" x="0px" y="0px"
	 viewBox="0 0 113.4 113.4" style="enable-background:new 0 0 113.4 113.4;" xml:space="preserve">
<style type="text/css">
	.st0{fill:#534F4D;}
</style>
<g id="_x32_40">
	<path class="st0" d="M57,84.2c1.6-1.1,2.6-2.1,3.2-3.7c1.1-1.6,0.5-3.2-0.5-5.3c-1.1-1.6-2.1-2.6-4.2-3.2l-11.6-3.7l47.1-27.5
		c1.6-1.1,2.6-2.1,3.2-4.2c0.5-2.1,0-3.7-1.1-4.8c-0.5-1.6-2.1-2.6-3.7-3.2c-1.6-0.5-3.2-0.5-5.3,0.5L36.9,56.7L40,45.1
		c0.5-1.6,0.5-3.2-0.5-5.3c-1.1-2.1-2.1-3.2-4.2-3.2c-2.1,0-3.2-0.5-5.3,0.5s-2.1,2.6-3.2,4.8l-7.4,27c-0.5,1.6,0,3.7,0.5,5.3
		c1.1,1.6,2.6,2.6,4.2,3.2l27.5,7.4C53.8,85.3,55.9,85.3,57,84.2z"/>
</g>
</svg>
