<?xml version="1.0" encoding="utf-8"?>
<!-- Generator: Adobe Illustrator 24.3.0, SVG Export Plug-In . SVG Version: 6.00 Build 0)  -->
<svg version="1.1" id="Calque_1" xmlns="http://www.w3.org/2000/svg" xmlns:xlink="http://www.w3.org/1999/xlink" x="0px" y="0px"
	 viewBox="0 0 113.4 113.4" style="enable-background:new 0 0 113.4 113.4;" xml:space="preserve">
<style type="text/css">
	.st0{fill:#534F4D;}
</style>
<g id="_x31_35">
	<path class="st0" d="M86.8,48c-1.6-1.6-2.6-2.1-4.2-2.1c-2.1-0.5-3.2,0.5-4.8,2.1c-1.1,1.1-2.1,2.6-2.1,4.8l-0.5,12.2L36.6,26.3
		c-1.6-1.6-2.6-2.1-4.8-2.1s-3.7,0.5-4.2,2.1c-1.1,1.6-2.1,3.2-2.6,5.3c0,1.6,0.5,3.2,2.1,4.8l38.6,38.6H53.5
		c-1.6,0-3.2,0.5-4.8,2.1c-1.6,1.6-2.1,3.2-2.1,4.8c0.5,2.1,0.5,3.2,2.1,4.8s2.6,2.1,4.8,2.1l28,0.5c1.6,0,3.7-0.5,4.8-2.1
		c1.6-1.6,2.1-3.2,2.1-4.8V53.8C88.4,51.1,87.9,49,86.8,48z"/>
</g>
</svg>
