<?xml version="1.0" encoding="utf-8"?>
<!-- Generator: Adobe Illustrator 24.3.0, SVG Export Plug-In . SVG Version: 6.00 Build 0)  -->
<svg version="1.1" id="Calque_1" xmlns="http://www.w3.org/2000/svg" xmlns:xlink="http://www.w3.org/1999/xlink" x="0px" y="0px"
	 viewBox="0 0 113.4 113.4" style="enable-background:new 0 0 113.4 113.4;" xml:space="preserve">
<style type="text/css">
	.st0{fill:#534F4D;}
</style>
<g id="_x31_95">
	<path class="st0" d="M83.1,77.4c0.5-2.1,0.5-3.2-0.5-4.8c-0.5-1.6-2.1-2.6-4.2-3.2c-1.6-0.5-3.2-0.5-5.3,1.1L62,76.3L76.2,24
		c0.5-2.1,0.5-3.2-1.1-5.3C74.1,16.6,72.5,16,71,16c-1.6-0.5-3.2-0.5-4.8,0.5c-1.1,0.5-2.6,2.1-3.2,4.2L48.7,73.2l-5.8-10.6
		c-0.5-1.1-2.1-2.6-4.2-3.2c-2.1-0.5-3.7-0.5-5.3,1.1c-1.6,1.1-2.6,2.1-3.2,4.2s-0.5,3.2,1.1,5.3L45,94.3c0.5,1.1,2.6,2.6,4.2,3.2
		c2.1,0.5,3.7,0,5.3-1.1l24.9-14.3C81,80.6,82.6,79,83.1,77.4z"/>
</g>
</svg>
