<?xml version="1.0" encoding="utf-8"?>
<!-- Generator: Adobe Illustrator 24.3.0, SVG Export Plug-In . SVG Version: 6.00 Build 0)  -->
<svg version="1.1" id="Calque_1" xmlns="http://www.w3.org/2000/svg" xmlns:xlink="http://www.w3.org/1999/xlink" x="0px" y="0px"
	 viewBox="0 0 113.4 113.4" style="enable-background:new 0 0 113.4 113.4;" xml:space="preserve">
<style type="text/css">
	.st0{fill:#534F4D;}
</style>
<g id="_x32_10">
	<path class="st0" d="M76.5,83.5c1.1-1.6,1.1-3.2,1.1-4.8c0-2.1-1.1-3.2-3.2-4.2c-1.6-1.1-3.2-1.1-5.3-0.5L57,76.6l27-47.1
		c1.1-1.6,1.1-3.2,0.5-5.3s-1.6-3.2-3.2-3.7c-1.6-0.5-3.2-1.1-4.8-1.1c-1.6,0.5-3.2,1.1-4.2,3.2l-27,47.1l-3.2-11.6
		c-0.5-1.6-1.1-3.2-3.2-4.2c-1.6-1.1-3.7-1.6-5.3-0.5s-3.2,1.1-4.2,3.2c-1.1,2.1-1.1,3.2-0.5,5.3l6.9,27c0.5,1.6,1.6,3.2,3.2,4.2
		c1.6,1.1,3.7,1.1,5.3,0.5l27.5-7.4C73.9,85.6,75.5,84.5,76.5,83.5z"/>
</g>
</svg>
