<?xml version="1.0" encoding="utf-8"?>
<!-- Generator: Adobe Illustrator 24.3.0, SVG Export Plug-In . SVG Version: 6.00 Build 0)  -->
<svg version="1.1" id="Calque_1" xmlns="http://www.w3.org/2000/svg" xmlns:xlink="http://www.w3.org/1999/xlink" x="0px" y="0px"
	 viewBox="0 0 113.4 113.4" style="enable-background:new 0 0 113.4 113.4;" xml:space="preserve">
<style type="text/css">
	.st0{fill:#534F4D;}
</style>
<g id="_x32_70">
	<path class="st0" d="M41.2,84.2c2.2,0,3.2-0.5,4.8-1.6c1.6-1.1,2.2-2.7,2.2-4.8c0-1.6-0.5-3.2-2.2-4.8l-8.6-9.2h55.5
		c2.2,0,3.2-0.5,4.8-2.2c1.6-1.6,2.2-3.2,1.6-4.8c0-1.6-0.5-3.2-1.6-4.8c-1.1-1.1-2.7-2.2-4.8-2.2H37.5l8.6-8.6
		c1.1-1.1,2.2-2.7,2.2-4.8c0-2.2-0.5-3.8-2.2-4.8c-1.6-1.1-2.7-2.2-4.8-2.2s-3.2,0.5-4.8,2.2L15.9,51.3c-1.1,1.1-2.2,3.2-2.2,4.8
		c0,2.2,1.1,3.8,2.2,4.8l20.5,20.5C38,83.1,39.6,84.2,41.2,84.2z"/>
</g>
</svg>
