<?xml version="1.0" encoding="utf-8"?>
<!-- Generator: Adobe Illustrator 24.3.0, SVG Export Plug-In . SVG Version: 6.00 Build 0)  -->
<svg version="1.1" id="Calque_1" xmlns="http://www.w3.org/2000/svg" xmlns:xlink="http://www.w3.org/1999/xlink" x="0px" y="0px"
	 viewBox="0 0 113.4 113.4" style="enable-background:new 0 0 113.4 113.4;" xml:space="preserve">
<style type="text/css">
	.st0{fill:#534F4D;}
</style>
<g id="_x33_30">
	<path class="st0" d="M29,57c1.1,1.6,2.1,2.6,3.7,3.2c1.6,0.5,3.2,0.5,5.3-0.5c1.6-0.5,2.6-2.1,3.2-4.2l3.7-11.6l27.5,47.1
		c1.1,1.6,2.1,2.6,4.2,3.2c2.1,0.5,3.7,0,4.8-1.1c1.6-0.5,2.6-2.1,3.2-3.7C85,87.6,85,86,84,83.9L56.5,36.9L68.1,40
		c1.6,0.5,3.2,0.5,5.3-0.5c1.6-1.1,3.2-2.1,3.2-4.2c0-2.1,0.5-3.2-0.5-5.3c-1.1-1.6-2.1-2.6-4.2-3.2l-27-7.4c-1.6-0.5-3.7,0-5.3,0.5
		c-1.6,1.1-2.6,2.6-3.2,4.2L29,51.7C28.4,53.8,28.4,55.9,29,57z"/>
</g>
</svg>
