<?xml version="1.0" encoding="utf-8"?>
<!-- Generator: Adobe Illustrator 24.3.0, SVG Export Plug-In . SVG Version: 6.00 Build 0)  -->
<svg version="1.1" id="Calque_1" xmlns="http://www.w3.org/2000/svg" xmlns:xlink="http://www.w3.org/1999/xlink" x="0px" y="0px"
	 viewBox="0 0 113.4 113.4" style="enable-background:new 0 0 113.4 113.4;" xml:space="preserve">
<style type="text/css">
	.st0{fill:#534F4D;}
</style>
<g id="_x31_5">
	<path class="st0" d="M30.3,35.5c-0.5,2.1-0.5,3.2,0.5,4.8c0.5,1.6,2.1,2.6,4.2,3.2c1.6,0.5,3.2,0.5,5.3-1.1l11.1-5.8L37.1,88.9
		c-0.5,2.1-0.5,3.2,1.1,5.3s2.6,2.6,4.2,2.6c1.6,0.5,3.2,0.5,4.8-0.5c1.1-0.5,2.6-2.1,3.2-4.2l14.3-52.4l5.8,10.6
		c0.5,1.1,2.1,2.6,4.2,3.2c2.1,0.5,3.7,0.5,5.3-1.1c1.6-1.1,2.6-2.1,3.2-4.2c0.5-2.1,0.5-3.2-1.1-5.3L67.8,19.6
		c-0.5-1.1-2.6-2.6-4.2-3.2c-2.1-0.5-3.7,0-5.3,1.1L33.4,31.8C31.9,32.8,30.8,33.9,30.3,35.5z"/>
</g>
</svg>
