<?xml version="1.0" encoding="utf-8"?>
<!-- Generator: Adobe Illustrator 24.3.0, SVG Export Plug-In . SVG Version: 6.00 Build 0)  -->
<svg version="1.1" id="Calque_1" xmlns="http://www.w3.org/2000/svg" xmlns:xlink="http://www.w3.org/1999/xlink" x="0px" y="0px"
	 viewBox="0 0 113.4 113.4" style="enable-background:new 0 0 113.4 113.4;" xml:space="preserve">
<style type="text/css">
	.st0{fill:#534F4D;}
</style>
<g id="_x33_45">
	<path class="st0" d="M30.3,49c0.5,2.1,1.6,3.2,2.6,4.2c1.6,1.1,3.2,1.6,5.3,1.1c1.6-0.5,3.2-1.6,4.2-3.2l6.3-10.6l14.3,52.4
		c0.5,2.1,1.6,3.2,3.2,4.2c1.6,1.1,3.7,1.1,4.8,0.5c1.6-0.5,3.2-1.6,4.2-2.6c0.5-1.1,1.6-3.2,1.1-5.3L62,36.3l10.6,5.8
		c1.1,0.5,3.2,1.6,5.3,1.1c2.1-0.5,3.7-1.6,4.2-3.2c0.5-1.6,1.6-3.2,1.1-5.3c-0.5-2.1-1.6-3.2-3.2-4.2L55.7,16.2
		c-2.1-0.5-4.2-1.1-5.8-0.5c-2.1,0.5-3.2,2.1-4.2,3.2L31.3,43.7C30.3,45.3,29.8,47.4,30.3,49z"/>
</g>
</svg>
