<?xml version="1.0" encoding="utf-8"?>
<!-- Generator: Adobe Illustrator 24.3.0, SVG Export Plug-In . SVG Version: 6.00 Build 0)  -->
<svg version="1.1" id="Calque_1" xmlns="http://www.w3.org/2000/svg" xmlns:xlink="http://www.w3.org/1999/xlink" x="0px" y="0px"
	 viewBox="0 0 113.4 113.4" style="enable-background:new 0 0 113.4 113.4;" xml:space="preserve">
<style type="text/css">
	.st0{fill:#534F4D;}
</style>
<g id="_x33_0">
	<path class="st0" d="M37.1,29.9c-1.1,1.6-1.1,3.2-1.1,4.8c0,2.1,1.1,3.2,3.2,4.2c1.6,1.1,3.2,1.1,5.3,0.5l12.2-2.6L29.2,83.8
		c-1.1,1.6-1.1,3.2-0.5,5.3c0.5,2.1,1.6,3.2,3.2,3.7c1.6,0.5,3.2,1.1,4.8,1.1c1.6-0.5,3.2-1.1,4.2-3.2l27.5-47.1l3.2,11.6
		c0.5,1.6,1.1,3.2,3.2,4.2c1.6,1.1,3.7,1.6,5.3,0.5s3.2-1.1,4.2-3.2c1.1-1.6,1.1-3.2,0.5-5.3l-6.9-27c-0.5-1.6-1.6-3.2-3.2-4.2
		c-1.6-1.1-3.7-1.1-5.3-0.5l-27.5,7.4C39.8,27.3,38.2,28.3,37.1,29.9z"/>
</g>
</svg>
