<?xml version="1.0" encoding="utf-8"?>
<!-- Generator: Adobe Illustrator 24.3.0, SVG Export Plug-In . SVG Version: 6.00 Build 0)  -->
<svg version="1.1" id="Calque_1" xmlns="http://www.w3.org/2000/svg" xmlns:xlink="http://www.w3.org/1999/xlink" x="0px" y="0px"
	 viewBox="0 0 113.4 113.4" style="enable-background:new 0 0 113.4 113.4;" xml:space="preserve">
<style type="text/css">
	.st0{fill:#534F4D;}
</style>
<g id="_x31_50">
	<path class="st0" d="M83.9,56.4c-1.1-1.6-2.1-2.6-3.7-3.2c-1.6-1.1-3.2-0.5-5.3,0.5c-1.6,1.1-2.6,2.1-3.2,4.2l-3.2,11.6L41.1,22.6
		C40,21,39,19.9,36.9,19.4c-2.1-0.5-3.7,0-4.8,1.1c-1.6,1.1-2.6,2.1-3.2,3.7c-0.5,1.6-0.5,3.2,0.5,5.3L57,76.5l-11.6-3.2
		c-1.6-0.5-3.2-0.5-5.3,0.5c-1.6,1.1-3.2,2.1-3.2,4.2s-0.5,3.2,0.5,5.3c1.1,1.6,2.1,2.6,4.2,3.2l27,7.4c1.6,0.5,3.7,0,5.3-0.5
		c1.6-1.1,2.6-2.6,3.2-4.2l7.4-27.5C85,59.6,85,58,83.9,56.4z"/>
</g>
</svg>
