<?xml version="1.0" encoding="utf-8"?>
<!-- Generator: Adobe Illustrator 24.3.0, SVG Export Plug-In . SVG Version: 6.00 Build 0)  -->
<svg version="1.1" id="Calque_1" xmlns="http://www.w3.org/2000/svg" xmlns:xlink="http://www.w3.org/1999/xlink" x="0px" y="0px"
	 viewBox="0 0 109.9 89.4" style="enable-background:new 0 0 109.9 89.4;" xml:space="preserve">
<style type="text/css">
	.st0{fill:#534F4D;}
	.st1{fill:none;stroke:#534F4D;stroke-width:14;stroke-miterlimit:10;}
</style>
<g>
	<path class="st0" d="M89.4,45.5l8.6,8.6c1.1,1.1,2.7,2.2,4.8,2.2c2.2,0,3.8-0.5,4.8-2.2c1.1-1.6,2.2-2.7,2.2-4.8
		c0-2.2-0.5-3.2-2.2-4.8L87.8,24c-1.1-1.1-3.2-2.2-4.8-2.2c-2.2,0-3.8,1.1-4.8,2.2L57.6,44.4c-1.6,1.6-2.7,3.2-2.7,4.8
		c0,2.2,0.5,3.2,1.6,4.8c1.1,1.6,2.7,2.2,4.8,2.2c1.6,0,3.2-0.5,4.8-2.2l9.2-8.6"/>
	<path class="st1" d="M82.4,44.7c0,20.8-16.9,37.7-37.7,37.7S7,65.5,7,44.7S23.9,7,44.7,7"/>
</g>
</svg>
