<?xml version="1.0" encoding="utf-8"?>
<!-- Generator: Adobe Illustrator 24.3.0, SVG Export Plug-In . SVG Version: 6.00 Build 0)  -->
<svg version="1.1" id="Calque_1" xmlns="http://www.w3.org/2000/svg" xmlns:xlink="http://www.w3.org/1999/xlink" x="0px" y="0px"
	 viewBox="0 0 113.4 113.4" style="enable-background:new 0 0 113.4 113.4;" xml:space="preserve">
<style type="text/css">
	.st0{fill:#534F4D;}
</style>
<g id="_x32_55">
	<path class="st0" d="M48.9,83.2c2.1-0.5,3.2-1.6,4.2-2.6c1.1-1.6,1.6-3.2,1.1-5.3c-0.5-1.6-1.6-3.2-3.2-4.2l-10.6-6.3l52.4-14.3
		c2.1-0.5,3.2-1.6,4.2-3.2c1.1-2.1,1.1-3.7,0.5-4.8c-0.5-1.6-1.6-3.2-2.6-4.2c-1.1-0.5-3.2-1.6-5.3-1.1L36.2,51.5L42,40.9
		c0.5-1.1,1.6-3.2,1.1-5.3c-0.5-2.1-1.6-3.7-3.2-4.2s-3.2-1.6-5.3-1.1c-1.6,1.1-2.6,2.1-3.7,3.7L16.6,58.4c-0.5,1.1-1.1,3.7-1.1,5.3
		c0.5,2.1,2.1,3.2,3.2,4.2l24.9,14.3C45.7,82.7,47.3,83.2,48.9,83.2z"/>
</g>
</svg>
