<?xml version="1.0" encoding="utf-8"?>
<!-- Generator: Adobe Illustrator 24.3.0, SVG Export Plug-In . SVG Version: 6.00 Build 0)  -->
<svg version="1.1" id="Calque_1" xmlns="http://www.w3.org/2000/svg" xmlns:xlink="http://www.w3.org/1999/xlink" x="0px" y="0px"
	 viewBox="0 0 113.4 113.4" style="enable-background:new 0 0 113.4 113.4;" xml:space="preserve">
<style type="text/css">
	.st0{fill:#534F4D;}
</style>
<g id="_x31_20">
	<path class="st0" d="M83.5,37.1c-1.6-1.1-3.2-1.1-4.8-1.1c-2.1,0-3.2,1.1-4.2,3.2c-0.5,1.6-1.1,3.2-0.5,5.3l2.6,12.2L29.5,29.2
		c-1.6-1.1-3.2-1.1-5.3-0.5c-2.1,0.5-3.7,1.6-3.7,3.2c-1.1,1.6-1.1,3.2-1.1,4.8c0.5,1.6,1.1,3.2,3.2,4.2l47.1,27l-11.6,3.7
		c-1.6,0.5-3.2,1.1-4.2,3.2c-1.1,1.6-1.6,3.7-0.5,5.3c1.1,1.6,1.1,3.2,3.2,4.2s3.2,1.1,5.3,0.5l27-6.9c1.6-0.5,3.2-1.6,4.2-3.2
		c1.1-1.6,1.1-3.7,0.5-5.3l-7.4-27.5C85.6,39.8,84.5,37.7,83.5,37.1z"/>
</g>
</svg>
