<?xml version="1.0" encoding="utf-8"?>
<!-- Generator: Adobe Illustrator 24.3.0, SVG Export Plug-In . SVG Version: 6.00 Build 0)  -->
<svg version="1.1" id="Calque_1" xmlns="http://www.w3.org/2000/svg" xmlns:xlink="http://www.w3.org/1999/xlink" x="0px" y="0px"
	 viewBox="0 0 113.4 113.4" style="enable-background:new 0 0 113.4 113.4;" xml:space="preserve">
<style type="text/css">
	.st0{fill:#534F4D;}
</style>
<g id="_x33_15">
	<path class="st0" d="M28,65.2c1.6,1.6,2.6,2.1,4.2,2.1c2.1,0.5,3.2-0.5,4.8-2.1c1.1-1.1,2.1-2.6,2.1-4.8l0.5-12.2l38.6,38.6
		c1.6,1.6,2.6,2.1,4.8,2.1c2.1,0,3.7-0.5,4.2-2.1c1.1-1.1,2.1-2.6,2.1-4.2s-0.5-3.2-2.1-4.8L49.6,38.7h12.2c1.6,0,3.2-0.5,4.8-2.1
		s2.1-3.2,2.1-4.8c-0.5-2.1-0.5-3.2-2.1-4.8C65,25.5,63.9,25,61.8,25l-28-0.5c-1.6,0-3.7,0.5-4.8,2.1c-2.1,1.6-2.6,3.7-2.6,5.3v28.6
		C26.4,62.5,26.9,64.1,28,65.2z"/>
</g>
</svg>
