<?xml version="1.0" encoding="utf-8"?>
<!-- Generator: Adobe Illustrator 24.3.0, SVG Export Plug-In . SVG Version: 6.00 Build 0)  -->
<svg version="1.1" id="Calque_1" xmlns="http://www.w3.org/2000/svg" xmlns:xlink="http://www.w3.org/1999/xlink" x="0px" y="0px"
	 viewBox="0 0 113.4 113.4" style="enable-background:new 0 0 113.4 113.4;" xml:space="preserve">
<style type="text/css">
	.st0{fill:#534F4D;}
</style>
<g id="_x31_65">
	<path class="st0" d="M83.2,64.8c-0.5-2.1-1.6-3.2-2.6-4.2c-1.6-1.1-3.2-1.6-5.3-1.1c-1.6,0.5-3.2,1.6-4.2,3.2l-6.3,10.6L50.4,20.9
		c-0.5-2.1-1.1-3.2-3.2-4.2c-2.1-1.1-3.7-1.1-4.8-0.5c-1.6,0.5-3.2,1.6-4.2,2.6c-0.5,1.1-1.6,3.2-1.1,5.3l14.3,52.4l-10.6-5.8
		c-1.1-0.5-3.2-1.6-5.3-1.1c-2.1,0.5-3.7,1.6-4.2,3.2c-0.5,1.6-1.6,3.2-1.1,5.3c0.5,2.1,1.6,3.2,3.2,4.2l24.3,14.3
		c1.1,0.5,3.7,1.1,5.3,1.1c2.1-0.5,3.2-2.1,4.2-3.2l14.3-24.9C82.7,68,83.2,66.4,83.2,64.8z"/>
</g>
</svg>
