<?xml version="1.0" encoding="utf-8"?>
<!-- Generator: Adobe Illustrator 24.3.0, SVG Export Plug-In . SVG Version: 6.00 Build 0)  -->
<svg version="1.1" id="Calque_1" xmlns="http://www.w3.org/2000/svg" xmlns:xlink="http://www.w3.org/1999/xlink" x="0px" y="0px"
	 viewBox="0 0 113.4 113.4" style="enable-background:new 0 0 113.4 113.4;" xml:space="preserve">
<style type="text/css">
	.st0{fill:#534F4D;}
</style>
<g id="_x34_5">
	<path class="st0" d="M48.5,27.1c-1.6,1.6-2.1,2.6-2.1,4.2c-0.5,2.1,0.5,3.2,2.1,4.8c1.1,1.1,2.6,2.1,4.8,2.1l12.2,0.5L26.8,77.3
		c-1.6,1.6-2.1,2.6-2.1,4.8c0,2.1,0.5,3.7,2.1,4.2c1.1,1.1,2.6,2.1,4.2,2.1c1.6,0,3.2-0.5,4.8-2.1l38.6-38.6v12.2
		c0,1.6,0.5,3.2,2.1,4.8s3.2,2.1,4.8,2.1c2.1-0.5,3.2-0.5,4.8-2.1c1.6-1.6,2.1-2.6,2.1-4.8l0.5-28c0-1.6-0.5-3.7-2.1-4.8
		C85,25.5,83.4,25,81.8,25H53.3C51.7,26,49.6,26,48.5,27.1z"/>
</g>
</svg>
