<?xml version="1.0" encoding="utf-8"?>
<!-- Generator: Adobe Illustrator 24.3.0, SVG Export Plug-In . SVG Version: 6.00 Build 0)  -->
<svg version="1.1" id="Calque_1" xmlns="http://www.w3.org/2000/svg" xmlns:xlink="http://www.w3.org/1999/xlink" x="0px" y="0px"
	 viewBox="0 0 113.4 113.4" style="enable-background:new 0 0 113.4 113.4;" xml:space="preserve">
<style type="text/css">
	.st0{fill:#534F4D;}
</style>
<g id="_x31_80">
	<path class="st0" d="M84.2,72.1c0-2.2-0.5-3.2-1.6-4.8c-1.1-1.6-2.7-2.2-4.8-2.2c-1.6,0-3.2,0.5-4.8,2.2l-9.2,8.6V20.4
		c0-2.2-0.5-3.2-2.2-4.8c-1.6-1.6-3.2-2.2-4.8-1.6c-1.6,0-3.2,0.5-4.8,1.6c-1.1,1.1-2.2,2.7-2.2,4.8v55.5l-8.6-8.6
		c-1.1-1.1-2.7-2.2-4.8-2.2c-2.2,0-3.8,0.5-4.8,2.2c-1.1,1.6-2.2,2.7-2.2,4.8c0,2.2,0.5,3.2,2.2,4.8l19.9,20.5
		c1.1,1.1,3.2,2.2,4.8,2.2c2.2,0,3.8-1.1,4.8-2.2L81.5,77C83.1,75.4,84.2,73.8,84.2,72.1z"/>
</g>
</svg>
