<?xml version="1.0" encoding="utf-8"?>
<!-- Generator: Adobe Illustrator 24.3.0, SVG Export Plug-In . SVG Version: 6.00 Build 0)  -->
<svg version="1.1" id="Calque_1" xmlns="http://www.w3.org/2000/svg" xmlns:xlink="http://www.w3.org/1999/xlink" x="0px" y="0px"
	 viewBox="0 0 113.4 113.4" style="enable-background:new 0 0 113.4 113.4;" xml:space="preserve">
<style type="text/css">
	.st0{fill:#534F4D;}
</style>
<g id="_x37_5">
	<path class="st0" d="M64.8,30.5c-2.1,0.5-3.2,1.6-4.2,2.6c-1.1,1.6-1.6,3.2-1.1,5.3c0.5,1.6,1.6,3.2,3.2,4.2l10.6,6.3L20.9,62.8
		c-2.1,0.5-3.2,1.6-4.2,3.2c-1.1,2.1-1.1,3.7-0.5,4.8c0.5,1.6,1.6,3.2,2.6,4.2c1.1,0.5,3.2,1.6,5.3,1.1l52.4-14.3l-5.8,10.6
		c-0.5,1.1-1.6,3.2-1.1,5.3c0.5,2.1,1.6,3.7,3.2,4.2c1.6,0.5,3.2,1.6,5.3,1.1c2.1-0.5,3.2-1.6,4.2-3.2l14.3-24.3
		c0.5-1.1,1.1-3.7,1.1-5.3c-0.5-2.1-2.1-3.2-3.2-4.2L70.1,31.6C68,30.5,66.4,30,64.8,30.5z"/>
</g>
</svg>
