<?xml version="1.0" encoding="utf-8"?>
<!-- Generator: Adobe Illustrator 24.3.0, SVG Export Plug-In . SVG Version: 6.00 Build 0)  -->
<svg version="1.1" id="Calque_1" xmlns="http://www.w3.org/2000/svg" xmlns:xlink="http://www.w3.org/1999/xlink" x="0px" y="0px"
	 viewBox="0 0 113.4 113.4" style="enable-background:new 0 0 113.4 113.4;" xml:space="preserve">
<style type="text/css">
	.st0{fill:#534F4D;}
</style>
<g id="_x36_0">
	<path class="st0" d="M56.4,28.9c-1.6,1.1-2.6,2.1-3.2,3.7c-1.1,1.6-0.5,3.2,0.5,5.3c1.1,1.6,2.1,2.6,4.2,3.2l11.6,3.7l-47.1,27
		c-1.6,1.1-2.6,2.1-3.2,4.2c-0.5,2.1,0,3.7,1.1,4.8c1.1,1.6,2.1,2.6,3.7,3.7c1.6,0.5,3.2,0.5,5.3-0.5l47.1-27l-3.2,11.6
		c-0.5,1.6-0.5,3.2,0.5,5.3c1.1,1.6,2.1,3.2,4.2,3.2s3.2,0.5,5.3-0.5c1.6-1.1,2.6-2.1,3.2-4.2l7.4-27c0.5-1.6,0-3.7-0.5-5.3
		c-1.1-1.6-2.6-2.6-4.2-3.2l-27.5-7.4C59.6,28.4,58,28.4,56.4,28.9z"/>
</g>
</svg>
