<?xml version="1.0" encoding="utf-8"?>
<!-- Generator: Adobe Illustrator 24.3.0, SVG Export Plug-In . SVG Version: 6.00 Build 0)  -->
<svg version="1.1" id="Calque_1" xmlns="http://www.w3.org/2000/svg" xmlns:xlink="http://www.w3.org/1999/xlink" x="0px" y="0px"
	 viewBox="0 0 113.4 113.4" style="enable-background:new 0 0 113.4 113.4;" xml:space="preserve">
<style type="text/css">
	.st0{fill:#534F4D;}
</style>
<g id="_x39_0">
	<path class="st0" d="M72.1,29.2c-2.2,0-3.2,0.5-4.8,1.6s-2.2,2.7-2.2,4.8c0,1.6,0.5,3.2,2.2,4.8l8.6,9.2H20.4
		c-2.2,0-3.2,0.5-4.8,2.2c-1.6,1.6-2.2,3.2-1.6,4.8c0,1.6,0.5,3.2,1.6,4.8c1.1,1.1,2.7,2.2,4.8,2.2h55.5l-8.6,8.6
		c-1.1,1.1-2.2,2.7-2.2,4.8s0.5,3.8,2.2,4.8c1.6,1.1,2.7,2.2,4.8,2.2s3.2-0.5,4.8-2.2l20.5-19.9c1.1-1.1,2.2-3.2,2.2-4.8
		c0-2.2-1.1-3.8-2.2-4.8L77,31.9C75.4,30.3,73.8,29.2,72.1,29.2z"/>
</g>
</svg>
