<?xml version="1.0" encoding="utf-8"?>
<!-- Generator: Adobe Illustrator 24.3.0, SVG Export Plug-In . SVG Version: 6.00 Build 0)  -->
<!DOCTYPE svg PUBLIC "-//W3C//DTD SVG 1.1//EN" "http://www.w3.org/Graphics/SVG/1.1/DTD/svg11.dtd" [
	<!ENTITY ns_flows "http://ns.adobe.com/Flows/1.0/">
	<!ENTITY ns_extend "http://ns.adobe.com/Extensibility/1.0/">
	<!ENTITY ns_ai "http://ns.adobe.com/AdobeIllustrator/10.0/">
	<!ENTITY ns_graphs "http://ns.adobe.com/Graphs/1.0/">
	<!ENTITY ns_vars "http://ns.adobe.com/Variables/1.0/">
	<!ENTITY ns_imrep "http://ns.adobe.com/ImageReplacement/1.0/">
	<!ENTITY ns_sfw "http://ns.adobe.com/SaveForWeb/1.0/">
	<!ENTITY ns_custom "http://ns.adobe.com/GenericCustomNamespace/1.0/">
	<!ENTITY ns_adobe_xpath "http://ns.adobe.com/XPath/1.0/">
]>
<svg version="1.1" id="Calque_1" xmlns:x="&ns_extend;" xmlns:i="&ns_ai;" xmlns:graph="&ns_graphs;"
	 xmlns="http://www.w3.org/2000/svg" xmlns:xlink="http://www.w3.org/1999/xlink" xmlns:a="http://ns.adobe.com/AdobeSVGViewerExtensions/3.0/"
	 x="0px" y="0px" viewBox="0 0 116.064 88.379" enable-background="new 0 0 116.064 88.379" xml:space="preserve">
<metadata>
	<sfw  xmlns="&ns_sfw;">
		<slices></slices>
		<sliceSourceBounds  bottomLeftOrigin="true" height="88.379" width="116.064" x="239.468" y="-465.189"></sliceSourceBounds>
	</sfw>
</metadata>
<g>
	<path fill="#FFFFFF" stroke="#C6C4C3" stroke-width="3" stroke-miterlimit="10" d="M82.5,12.734H7.117
		c-3.102,0-5.617-2.515-5.617-5.617v0C1.5,4.015,4.015,1.5,7.117,1.5H82.5c3.102,0,5.617,2.515,5.617,5.617v0
		C88.117,10.219,85.602,12.734,82.5,12.734z"/>
	<path fill="#FFFFFF" stroke="#C6C4C3" stroke-width="3" stroke-miterlimit="10" d="M108.947,31.27H33.564
		c-3.102,0-5.617-2.515-5.617-5.617v0c0-3.102,2.515-5.617,5.617-5.617h75.383c3.102,0,5.617,2.515,5.617,5.617v0
		C114.564,28.755,112.049,31.27,108.947,31.27z"/>
	<path fill="#FFFFFF" stroke="#C6C4C3" stroke-width="3" stroke-miterlimit="10" d="M93.394,49.806H18.011
		c-3.102,0-5.617-2.515-5.617-5.617v0c0-3.102,2.515-5.617,5.617-5.617h75.383c3.102,0,5.617,2.515,5.617,5.617v0
		C99.011,47.292,96.496,49.806,93.394,49.806z"/>
	<path fill="#FFFFFF" stroke="#C6C4C3" stroke-width="3" stroke-miterlimit="10" d="M82.5,68.343H7.117
		c-3.102,0-5.617-2.515-5.617-5.617v0c0-3.102,2.515-5.617,5.617-5.617H82.5c3.102,0,5.617,2.515,5.617,5.617v0
		C88.117,65.828,85.602,68.343,82.5,68.343z"/>
	<path fill="#FFFFFF" stroke="#C6C4C3" stroke-width="3" stroke-miterlimit="10" d="M108.947,86.879H33.564
		c-3.102,0-5.617-2.515-5.617-5.617v0c0-3.102,2.515-5.617,5.617-5.617h75.383c3.102,0,5.617,2.515,5.617,5.617v0
		C114.564,84.364,112.049,86.879,108.947,86.879z"/>
</g>
</svg>
