<?xml version="1.0" encoding="utf-8"?>
<!-- Generator: Adobe Illustrator 24.3.0, SVG Export Plug-In . SVG Version: 6.00 Build 0)  -->
<!DOCTYPE svg PUBLIC "-//W3C//DTD SVG 1.1//EN" "http://www.w3.org/Graphics/SVG/1.1/DTD/svg11.dtd" [
	<!ENTITY ns_flows "http://ns.adobe.com/Flows/1.0/">
	<!ENTITY ns_extend "http://ns.adobe.com/Extensibility/1.0/">
	<!ENTITY ns_ai "http://ns.adobe.com/AdobeIllustrator/10.0/">
	<!ENTITY ns_graphs "http://ns.adobe.com/Graphs/1.0/">
	<!ENTITY ns_vars "http://ns.adobe.com/Variables/1.0/">
	<!ENTITY ns_imrep "http://ns.adobe.com/ImageReplacement/1.0/">
	<!ENTITY ns_sfw "http://ns.adobe.com/SaveForWeb/1.0/">
	<!ENTITY ns_custom "http://ns.adobe.com/GenericCustomNamespace/1.0/">
	<!ENTITY ns_adobe_xpath "http://ns.adobe.com/XPath/1.0/">
]>
<svg version="1.1" id="Calque_1" xmlns:x="&ns_extend;" xmlns:i="&ns_ai;" xmlns:graph="&ns_graphs;"
	 xmlns="http://www.w3.org/2000/svg" xmlns:xlink="http://www.w3.org/1999/xlink" xmlns:a="http://ns.adobe.com/AdobeSVGViewerExtensions/3.0/"
	 x="0px" y="0px" viewBox="0 0 122.936 102.726" enable-background="new 0 0 122.936 102.726" xml:space="preserve">
<metadata>
	<sfw  xmlns="&ns_sfw;">
		<slices></slices>
		<sliceSourceBounds  bottomLeftOrigin="true" height="102.726" width="122.936" x="236.032" y="-471.863"></sliceSourceBounds>
	</sfw>
</metadata>
<g>
	<g>
		<circle fill="#F3B300" cx="62.426" cy="51.363" r="25.126"/>
		
			<line fill="none" stroke="#F3B300" stroke-width="8" stroke-linecap="round" stroke-miterlimit="10" x1="62.426" y1="4" x2="62.426" y2="14.14"/>
		
			<line fill="none" stroke="#F3B300" stroke-width="8" stroke-linecap="round" stroke-miterlimit="10" x1="109.885" y1="51.363" x2="99.746" y2="51.363"/>
		
			<line fill="none" stroke="#F3B300" stroke-width="8" stroke-linecap="round" stroke-miterlimit="10" x1="25.203" y1="51.363" x2="15.063" y2="51.363"/>
		
			<line fill="none" stroke="#F3B300" stroke-width="8" stroke-linecap="round" stroke-miterlimit="10" x1="32.175" y1="21.112" x2="28.783" y2="17.719"/>
		
			<line fill="none" stroke="#F3B300" stroke-width="8" stroke-linecap="round" stroke-miterlimit="10" x1="96.07" y1="85.006" x2="92.678" y2="81.614"/>
		
			<line fill="none" stroke="#F3B300" stroke-width="8" stroke-linecap="round" stroke-miterlimit="10" x1="92.678" y1="21.112" x2="96.07" y2="17.719"/>
		
			<line fill="none" stroke="#F3B300" stroke-width="8" stroke-linecap="round" stroke-miterlimit="10" x1="28.783" y1="85.006" x2="32.175" y2="81.614"/>
		
			<line fill="none" stroke="#F3B300" stroke-width="8" stroke-linecap="round" stroke-miterlimit="10" x1="62.426" y1="88.586" x2="62.426" y2="98.726"/>
	</g>
	<path fill="#FFFFFF" stroke="#C6C4C3" stroke-width="3" stroke-miterlimit="10" d="M78.351,55.813H7.117
		c-3.102,0-5.617-2.515-5.617-5.617v0c0-3.102,2.515-5.617,5.617-5.617h71.234c3.102,0,5.617,2.515,5.617,5.617v0
		C83.968,53.298,81.453,55.813,78.351,55.813z"/>
	<path fill="#FFFFFF" stroke="#C6C4C3" stroke-width="3" stroke-miterlimit="10" d="M115.819,76.489H40.436
		c-3.102,0-5.617-2.515-5.617-5.617v0c0-3.102,2.515-5.617,5.617-5.617h75.383c3.102,0,5.617,2.515,5.617,5.617v0
		C121.436,73.974,118.921,76.489,115.819,76.489z"/>
</g>
</svg>
