<?xml version="1.0" encoding="utf-8"?>
<!-- Generator: Adobe Illustrator 24.3.0, SVG Export Plug-In . SVG Version: 6.00 Build 0)  -->
<!DOCTYPE svg PUBLIC "-//W3C//DTD SVG 1.1//EN" "http://www.w3.org/Graphics/SVG/1.1/DTD/svg11.dtd" [
	<!ENTITY ns_flows "http://ns.adobe.com/Flows/1.0/">
	<!ENTITY ns_extend "http://ns.adobe.com/Extensibility/1.0/">
	<!ENTITY ns_ai "http://ns.adobe.com/AdobeIllustrator/10.0/">
	<!ENTITY ns_graphs "http://ns.adobe.com/Graphs/1.0/">
	<!ENTITY ns_vars "http://ns.adobe.com/Variables/1.0/">
	<!ENTITY ns_imrep "http://ns.adobe.com/ImageReplacement/1.0/">
	<!ENTITY ns_sfw "http://ns.adobe.com/SaveForWeb/1.0/">
	<!ENTITY ns_custom "http://ns.adobe.com/GenericCustomNamespace/1.0/">
	<!ENTITY ns_adobe_xpath "http://ns.adobe.com/XPath/1.0/">
]>
<svg version="1.1" id="Calque_1" xmlns:x="&ns_extend;" xmlns:i="&ns_ai;" xmlns:graph="&ns_graphs;"
	 xmlns="http://www.w3.org/2000/svg" xmlns:xlink="http://www.w3.org/1999/xlink" xmlns:a="http://ns.adobe.com/AdobeSVGViewerExtensions/3.0/"
	 x="0px" y="0px" viewBox="0 0 123.51 117.077" enable-background="new 0 0 123.51 117.077" xml:space="preserve">
<metadata>
	<sfw  xmlns="&ns_sfw;">
		<slices></slices>
		<sliceSourceBounds  bottomLeftOrigin="true" height="117.077" width="123.51" x="235.745" y="-479.538"></sliceSourceBounds>
	</sfw>
</metadata>
<path fill="#FFFFFF" stroke="#534F4D" stroke-width="8" stroke-linecap="round" stroke-miterlimit="10" d="M99.334,47.612h6.133
	c7.756,0,14.044-6.288,14.044-14.044s-6.288-14.044-14.044-14.044h-3.299C101.166,10.786,93.745,4,84.739,4
	c-9.041,0-16.485,6.839-17.441,15.625c-6.957,0.837-12.349,6.76-12.349,13.942c0,7.756,6.288,14.044,14.044,14.044"/>
<path fill="#FFFFFF" stroke="#534F4D" stroke-width="8" stroke-linecap="round" stroke-miterlimit="10" d="M75.867,88.023
	c11.034,0,19.979-8.945,19.979-19.979s-8.945-19.979-19.979-19.979h-4.694c-1.424-12.431-11.982-22.085-24.795-22.085
	c-12.862,0-23.452,9.729-24.811,22.229C11.671,49.4,4,57.827,4,68.045c0,11.034,8.945,19.979,19.979,19.979"/>
<line fill="none" stroke="#8FCFF1" stroke-width="8" stroke-linecap="round" stroke-miterlimit="10" x1="65.402" y1="96.737" x2="60.6" y2="110.077"/>
<line fill="none" stroke="#8FCFF1" stroke-width="8" stroke-linecap="round" stroke-miterlimit="10" x1="34.925" y1="96.737" x2="30.123" y2="110.077"/>
<line fill="none" stroke="#8FCFF1" stroke-width="8" stroke-linecap="round" stroke-miterlimit="10" x1="49.164" y1="99.737" x2="44.362" y2="113.077"/>
<g>
	
		<line fill="none" stroke="#8FCFF1" stroke-width="4" stroke-linecap="round" stroke-miterlimit="10" x1="50.477" y1="67.798" x2="50.477" y2="90.846"/>
	
		<line fill="none" stroke="#8FCFF1" stroke-width="4" stroke-linecap="round" stroke-miterlimit="10" x1="58.626" y1="71.173" x2="42.329" y2="87.471"/>
	
		<line fill="none" stroke="#8FCFF1" stroke-width="4" stroke-linecap="round" stroke-miterlimit="10" x1="58.626" y1="87.471" x2="42.329" y2="71.173"/>
	
		<line fill="none" stroke="#8FCFF1" stroke-width="4" stroke-linecap="round" stroke-miterlimit="10" x1="62.001" y1="79.322" x2="38.953" y2="79.322"/>
</g>
</svg>
