<?xml version="1.0" encoding="utf-8"?>
<!-- Generator: Adobe Illustrator 24.3.0, SVG Export Plug-In . SVG Version: 6.00 Build 0)  -->
<!DOCTYPE svg PUBLIC "-//W3C//DTD SVG 1.1//EN" "http://www.w3.org/Graphics/SVG/1.1/DTD/svg11.dtd" [
	<!ENTITY ns_flows "http://ns.adobe.com/Flows/1.0/">
	<!ENTITY ns_extend "http://ns.adobe.com/Extensibility/1.0/">
	<!ENTITY ns_ai "http://ns.adobe.com/AdobeIllustrator/10.0/">
	<!ENTITY ns_graphs "http://ns.adobe.com/Graphs/1.0/">
	<!ENTITY ns_vars "http://ns.adobe.com/Variables/1.0/">
	<!ENTITY ns_imrep "http://ns.adobe.com/ImageReplacement/1.0/">
	<!ENTITY ns_sfw "http://ns.adobe.com/SaveForWeb/1.0/">
	<!ENTITY ns_custom "http://ns.adobe.com/GenericCustomNamespace/1.0/">
	<!ENTITY ns_adobe_xpath "http://ns.adobe.com/XPath/1.0/">
]>
<svg version="1.1" id="Calque_1" xmlns:x="&ns_extend;" xmlns:i="&ns_ai;" xmlns:graph="&ns_graphs;"
	 xmlns="http://www.w3.org/2000/svg" xmlns:xlink="http://www.w3.org/1999/xlink" xmlns:a="http://ns.adobe.com/AdobeSVGViewerExtensions/3.0/"
	 x="0px" y="0px" viewBox="0 0 123.51 101.547" enable-background="new 0 0 123.51 101.547" xml:space="preserve">
<metadata>
	<sfw  xmlns="&ns_sfw;">
		<slices></slices>
		<sliceSourceBounds  bottomLeftOrigin="true" height="101.547" width="123.51" x="235.745" y="-471.774"></sliceSourceBounds>
	</sfw>
</metadata>
<path fill="#FFFFFF" stroke="#534F4D" stroke-width="8" stroke-linecap="round" stroke-miterlimit="10" d="M99.334,47.612h6.133
	c7.756,0,14.044-6.288,14.044-14.044s-6.288-14.044-14.044-14.044h-3.299C101.166,10.786,93.745,4,84.739,4
	c-9.041,0-16.485,6.839-17.441,15.625c-6.957,0.837-12.349,6.76-12.349,13.942c0,7.756,6.288,14.044,14.044,14.044"/>
<path fill="#FFFFFF" stroke="#534F4D" stroke-width="8" stroke-linecap="round" stroke-miterlimit="10" d="M75.867,88.023
	c11.034,0,19.979-8.945,19.979-19.979s-8.945-19.979-19.979-19.979h-4.694c-1.424-12.431-11.982-22.085-24.795-22.085
	c-12.862,0-23.452,9.729-24.811,22.229C11.671,49.4,4,57.827,4,68.045c0,11.034,8.945,19.979,19.979,19.979"/>
<g>
	
		<line fill="none" stroke="#8FCFF1" stroke-width="4" stroke-linecap="round" stroke-miterlimit="10" x1="49.923" y1="76.499" x2="49.923" y2="99.547"/>
	
		<line fill="none" stroke="#8FCFF1" stroke-width="4" stroke-linecap="round" stroke-miterlimit="10" x1="58.072" y1="79.875" x2="41.774" y2="96.172"/>
	
		<line fill="none" stroke="#8FCFF1" stroke-width="4" stroke-linecap="round" stroke-miterlimit="10" x1="58.072" y1="96.172" x2="41.774" y2="79.875"/>
	
		<line fill="none" stroke="#8FCFF1" stroke-width="4" stroke-linecap="round" stroke-miterlimit="10" x1="61.447" y1="88.023" x2="38.399" y2="88.023"/>
</g>
</svg>
