<?xml version="1.0" encoding="utf-8"?>
<!-- Generator: Adobe Illustrator 24.3.0, SVG Export Plug-In . SVG Version: 6.00 Build 0)  -->
<!DOCTYPE svg PUBLIC "-//W3C//DTD SVG 1.1//EN" "http://www.w3.org/Graphics/SVG/1.1/DTD/svg11.dtd" [
	<!ENTITY ns_flows "http://ns.adobe.com/Flows/1.0/">
	<!ENTITY ns_extend "http://ns.adobe.com/Extensibility/1.0/">
	<!ENTITY ns_ai "http://ns.adobe.com/AdobeIllustrator/10.0/">
	<!ENTITY ns_graphs "http://ns.adobe.com/Graphs/1.0/">
	<!ENTITY ns_vars "http://ns.adobe.com/Variables/1.0/">
	<!ENTITY ns_imrep "http://ns.adobe.com/ImageReplacement/1.0/">
	<!ENTITY ns_sfw "http://ns.adobe.com/SaveForWeb/1.0/">
	<!ENTITY ns_custom "http://ns.adobe.com/GenericCustomNamespace/1.0/">
	<!ENTITY ns_adobe_xpath "http://ns.adobe.com/XPath/1.0/">
]>
<svg version="1.1" id="Calque_1" xmlns:x="&ns_extend;" xmlns:i="&ns_ai;" xmlns:graph="&ns_graphs;"
	 xmlns="http://www.w3.org/2000/svg" xmlns:xlink="http://www.w3.org/1999/xlink" xmlns:a="http://ns.adobe.com/AdobeSVGViewerExtensions/3.0/"
	 x="0px" y="0px" viewBox="0 0 130.025 130.025" enable-background="new 0 0 130.025 130.025" xml:space="preserve">
<metadata>
	<sfw  xmlns="&ns_sfw;">
		<slices></slices>
		<sliceSourceBounds  bottomLeftOrigin="true" height="108.393" width="129.907" x="232.684" y="-475.141"></sliceSourceBounds>
	</sfw>
</metadata>
<g>
	<circle fill="#F3B300" cx="78.507" cy="62.179" r="25.126"/>
	
		<line fill="none" stroke="#F3B300" stroke-width="8" stroke-linecap="round" stroke-miterlimit="10" x1="78.507" y1="14.816" x2="78.507" y2="24.956"/>
	
		<line fill="none" stroke="#F3B300" stroke-width="8" stroke-linecap="round" stroke-miterlimit="10" x1="125.966" y1="62.179" x2="115.827" y2="62.179"/>
	
		<line fill="none" stroke="#F3B300" stroke-width="8" stroke-linecap="round" stroke-miterlimit="10" x1="41.284" y1="62.179" x2="31.144" y2="62.179"/>
	
		<line fill="none" stroke="#F3B300" stroke-width="8" stroke-linecap="round" stroke-miterlimit="10" x1="48.256" y1="31.928" x2="44.864" y2="28.536"/>
	
		<line fill="none" stroke="#F3B300" stroke-width="8" stroke-linecap="round" stroke-miterlimit="10" x1="112.151" y1="95.823" x2="108.758" y2="92.43"/>
	
		<line fill="none" stroke="#F3B300" stroke-width="8" stroke-linecap="round" stroke-miterlimit="10" x1="108.758" y1="31.928" x2="112.151" y2="28.536"/>
	
		<line fill="none" stroke="#F3B300" stroke-width="8" stroke-linecap="round" stroke-miterlimit="10" x1="44.864" y1="95.823" x2="48.256" y2="92.43"/>
</g>
<path fill="#FFFFFF" stroke="#534F4D" stroke-width="8" stroke-linecap="round" stroke-miterlimit="10" d="M75.926,108.156
	c11.034,0,19.979-8.945,19.979-19.979S86.96,68.198,75.926,68.198h-4.694c-1.424-12.431-11.982-22.085-24.795-22.085
	c-12.862,0-23.452,9.729-24.811,22.229c-9.897,1.19-17.568,9.617-17.568,19.835c0,11.034,8.945,19.979,19.979,19.979"/>
<line fill="none" stroke="#8FCFF1" stroke-width="8" stroke-linecap="round" stroke-miterlimit="10" x1="67.461" y1="101.869" x2="62.659" y2="115.209"/>
<line fill="none" stroke="#8FCFF1" stroke-width="8" stroke-linecap="round" stroke-miterlimit="10" x1="36.984" y1="101.869" x2="32.182" y2="115.209"/>
<line fill="none" stroke="#8FCFF1" stroke-width="8" stroke-linecap="round" stroke-miterlimit="10" x1="52.223" y1="101.869" x2="47.421" y2="115.209"/>
</svg>
