<?xml version="1.0" encoding="utf-8"?>
<!-- Generator: Adobe Illustrator 24.3.0, SVG Export Plug-In . SVG Version: 6.00 Build 0)  -->
<!DOCTYPE svg PUBLIC "-//W3C//DTD SVG 1.1//EN" "http://www.w3.org/Graphics/SVG/1.1/DTD/svg11.dtd" [
	<!ENTITY ns_flows "http://ns.adobe.com/Flows/1.0/">
	<!ENTITY ns_extend "http://ns.adobe.com/Extensibility/1.0/">
	<!ENTITY ns_ai "http://ns.adobe.com/AdobeIllustrator/10.0/">
	<!ENTITY ns_graphs "http://ns.adobe.com/Graphs/1.0/">
	<!ENTITY ns_vars "http://ns.adobe.com/Variables/1.0/">
	<!ENTITY ns_imrep "http://ns.adobe.com/ImageReplacement/1.0/">
	<!ENTITY ns_sfw "http://ns.adobe.com/SaveForWeb/1.0/">
	<!ENTITY ns_custom "http://ns.adobe.com/GenericCustomNamespace/1.0/">
	<!ENTITY ns_adobe_xpath "http://ns.adobe.com/XPath/1.0/">
]>
<svg version="1.1" id="Calque_1" xmlns:x="&ns_extend;" xmlns:i="&ns_ai;" xmlns:graph="&ns_graphs;"
	 xmlns="http://www.w3.org/2000/svg" xmlns:xlink="http://www.w3.org/1999/xlink" xmlns:a="http://ns.adobe.com/AdobeSVGViewerExtensions/3.0/"
	 x="0px" y="0px" viewBox="0 0 129.907 122.731" enable-background="new 0 0 129.907 122.731" xml:space="preserve">
<metadata>
	<sfw  xmlns="&ns_sfw;">
		<slices></slices>
		<sliceSourceBounds  bottomLeftOrigin="true" height="122.731" width="129.907" x="232.546" y="-481.866"></sliceSourceBounds>
	</sfw>
</metadata>
<g>
	<g>
		<circle fill="#F3B300" cx="78.448" cy="51.363" r="25.126"/>
		
			<line fill="none" stroke="#F3B300" stroke-width="8" stroke-linecap="round" stroke-miterlimit="10" x1="78.448" y1="4" x2="78.448" y2="14.14"/>
		
			<line fill="none" stroke="#F3B300" stroke-width="8" stroke-linecap="round" stroke-miterlimit="10" x1="125.907" y1="51.363" x2="115.768" y2="51.363"/>
		
			<line fill="none" stroke="#F3B300" stroke-width="8" stroke-linecap="round" stroke-miterlimit="10" x1="41.225" y1="51.363" x2="31.085" y2="51.363"/>
		
			<line fill="none" stroke="#F3B300" stroke-width="8" stroke-linecap="round" stroke-miterlimit="10" x1="48.197" y1="21.112" x2="44.805" y2="17.719"/>
		
			<line fill="none" stroke="#F3B300" stroke-width="8" stroke-linecap="round" stroke-miterlimit="10" x1="112.092" y1="85.006" x2="108.699" y2="81.614"/>
		
			<line fill="none" stroke="#F3B300" stroke-width="8" stroke-linecap="round" stroke-miterlimit="10" x1="108.699" y1="21.112" x2="112.092" y2="17.719"/>
		
			<line fill="none" stroke="#F3B300" stroke-width="8" stroke-linecap="round" stroke-miterlimit="10" x1="44.805" y1="85.006" x2="48.197" y2="81.614"/>
		<path fill="#FFFFFF" stroke="#534F4D" stroke-width="8" stroke-linecap="round" stroke-miterlimit="10" d="M75.867,97.34
			c11.034,0,19.979-8.945,19.979-19.979s-8.945-19.979-19.979-19.979h-4.694c-1.424-12.431-11.982-22.085-24.795-22.085
			c-12.862,0-23.452,9.729-24.811,22.229C11.671,58.716,4,67.143,4,77.361C4,88.395,12.945,97.34,23.979,97.34"/>
	</g>
	<polygon fill="#FEEF62" points="60.431,74.979 47.557,74.979 38.794,98.186 47.929,98.186 38.486,122.731 39.632,122.731 
		60.516,91.916 51.179,91.916 	"/>
</g>
</svg>
