<?xml version="1.0" encoding="utf-8"?>
<!-- Generator: Adobe Illustrator 24.3.0, SVG Export Plug-In . SVG Version: 6.00 Build 0)  -->
<!DOCTYPE svg PUBLIC "-//W3C//DTD SVG 1.1//EN" "http://www.w3.org/Graphics/SVG/1.1/DTD/svg11.dtd" [
	<!ENTITY ns_flows "http://ns.adobe.com/Flows/1.0/">
	<!ENTITY ns_extend "http://ns.adobe.com/Extensibility/1.0/">
	<!ENTITY ns_ai "http://ns.adobe.com/AdobeIllustrator/10.0/">
	<!ENTITY ns_graphs "http://ns.adobe.com/Graphs/1.0/">
	<!ENTITY ns_vars "http://ns.adobe.com/Variables/1.0/">
	<!ENTITY ns_imrep "http://ns.adobe.com/ImageReplacement/1.0/">
	<!ENTITY ns_sfw "http://ns.adobe.com/SaveForWeb/1.0/">
	<!ENTITY ns_custom "http://ns.adobe.com/GenericCustomNamespace/1.0/">
	<!ENTITY ns_adobe_xpath "http://ns.adobe.com/XPath/1.0/">
]>
<svg version="1.1" id="Calque_1" xmlns:x="&ns_extend;" xmlns:i="&ns_ai;" xmlns:graph="&ns_graphs;"
	 xmlns="http://www.w3.org/2000/svg" xmlns:xlink="http://www.w3.org/1999/xlink" xmlns:a="http://ns.adobe.com/AdobeSVGViewerExtensions/3.0/"
	 x="0px" y="0px" viewBox="0 0 123.51 119.207" enable-background="new 0 0 123.51 119.207" xml:space="preserve">
<metadata>
	<sfw  xmlns="&ns_sfw;">
		<slices></slices>
		<sliceSourceBounds  bottomLeftOrigin="true" height="119.207" width="123.51" x="235.745" y="-480.604"></sliceSourceBounds>
	</sfw>
</metadata>
<g>
	<g>
		<path fill="#FFFFFF" stroke="#534F4D" stroke-width="8" stroke-linecap="round" stroke-miterlimit="10" d="M99.334,47.612h6.133
			c7.756,0,14.044-6.288,14.044-14.044s-6.288-14.044-14.044-14.044h-3.299C101.166,10.786,93.745,4,84.739,4
			c-9.041,0-16.485,6.839-17.441,15.625c-6.957,0.837-12.349,6.76-12.349,13.942c0,7.756,6.288,14.044,14.044,14.044"/>
		<path fill="#FFFFFF" stroke="#534F4D" stroke-width="8" stroke-linecap="round" stroke-miterlimit="10" d="M75.867,88.023
			c11.034,0,19.979-8.945,19.979-19.979s-8.945-19.979-19.979-19.979h-4.694c-1.424-12.431-11.982-22.085-24.795-22.085
			c-12.862,0-23.452,9.729-24.811,22.229C11.671,49.4,4,57.827,4,68.045c0,11.034,8.945,19.979,19.979,19.979"/>
		
			<line fill="none" stroke="#8FCFF1" stroke-width="8" stroke-linecap="round" stroke-miterlimit="10" x1="67.402" y1="77.737" x2="62.6" y2="91.077"/>
		
			<line fill="none" stroke="#8FCFF1" stroke-width="8" stroke-linecap="round" stroke-miterlimit="10" x1="52.164" y1="77.737" x2="47.362" y2="91.077"/>
		
			<line fill="none" stroke="#8FCFF1" stroke-width="8" stroke-linecap="round" stroke-miterlimit="10" x1="58.722" y1="101.852" x2="53.92" y2="115.192"/>
		
			<line fill="none" stroke="#8FCFF1" stroke-width="8" stroke-linecap="round" stroke-miterlimit="10" x1="43.483" y1="101.852" x2="38.681" y2="115.192"/>
		<polygon fill="#FEEF62" points="41.019,71.455 28.145,71.455 19.382,94.662 28.516,94.662 19.073,119.207 20.22,119.207 
			41.104,88.392 31.766,88.392 		"/>
	</g>
	<g>
		<rect x="78.915" y="72.289" fill="#C51718" width="40.596" height="46.918"/>
		<g>
			<path fill="#FFFFFF" d="M102.333,116.028c-2.68,0-5.19-0.431-7.53-1.29c-2.34-0.859-4.371-2.13-6.09-3.81
				c-1.72-1.681-3.07-3.771-4.05-6.271c-0.98-2.499-1.47-5.39-1.47-8.67c0-3.24,0.5-6.129,1.5-8.67c1-2.54,2.37-4.689,4.11-6.45
				c1.74-1.76,3.77-3.1,6.09-4.02c2.319-0.92,4.779-1.38,7.38-1.38c2.84,0,5.28,0.52,7.32,1.56c2.04,1.041,3.699,2.22,4.98,3.54
				l-4.62,5.64c-1-0.879-2.061-1.62-3.18-2.22c-1.12-0.6-2.52-0.9-4.2-0.9c-1.521,0-2.91,0.291-4.17,0.87
				c-1.26,0.581-2.351,1.41-3.27,2.49c-0.921,1.08-1.63,2.4-2.13,3.959c-0.5,1.561-0.75,3.32-0.75,5.28c0,4.04,0.91,7.17,2.73,9.39
				c1.82,2.221,4.569,3.33,8.25,3.33c0.8,0,1.58-0.1,2.34-0.3c0.759-0.2,1.38-0.5,1.86-0.9v-6.72h-6.48v-7.2h14.28v18
				c-1.36,1.32-3.16,2.44-5.4,3.36C107.592,115.568,105.093,116.028,102.333,116.028z"/>
		</g>
	</g>
</g>
</svg>
