<?xml version="1.0" encoding="utf-8"?>
<!-- Generator: Adobe Illustrator 24.3.0, SVG Export Plug-In . SVG Version: 6.00 Build 0)  -->
<svg version="1.1" id="Calque_1" xmlns="http://www.w3.org/2000/svg" xmlns:xlink="http://www.w3.org/1999/xlink" x="0px" y="0px"
	 viewBox="0 0 52.9 103" style="enable-background:new 0 0 52.9 103;" xml:space="preserve">
<style type="text/css">
	.st0{fill:none;stroke:#534F4D;stroke-width:5;stroke-miterlimit:10;}
	.st1{fill:#534F4D;}
</style>
<g>
	<path class="st0" d="M45.4,100.5H7.5c-2.8,0-5-2.3-5-5V13c0-2.8,2.3-5,5-5h37.8c2.8,0,5,2.3,5,5v82.4
		C50.4,98.3,48.2,100.5,45.4,100.5z"/>
	<path class="st1" d="M34.2,8H18.7c-1.3,0-2.4-1.1-2.4-2.4V2.4c0-1.3,1.1-2.4,2.4-2.4h15.4c1.3,0,2.4,1.1,2.4,2.4v3.1
		C36.6,6.9,35.5,8,34.2,8z"/>
	<rect x="8.6" y="82.9" class="st1" width="35.6" height="11.5"/>
	<rect x="8.6" y="32" class="st1" width="35.6" height="11.5"/>
	<rect x="8.6" y="48.9" class="st1" width="35.6" height="11.5"/>
	<rect x="8.6" y="65.9" class="st1" width="35.6" height="11.5"/>
</g>
</svg>
