<?xml version="1.0" encoding="utf-8"?>
<!-- Generator: Adobe Illustrator 24.3.0, SVG Export Plug-In . SVG Version: 6.00 Build 0)  -->
<svg version="1.1" id="Calque_1" xmlns="http://www.w3.org/2000/svg" xmlns:xlink="http://www.w3.org/1999/xlink" x="0px" y="0px"
	 width="160.9px" height="141.2px" viewBox="0 0 160.9 141.2" style="enable-background:new 0 0 160.9 141.2;" xml:space="preserve"
	>
<style type="text/css">
	.st0{fill:none;stroke:#534F4D;stroke-width:11;stroke-miterlimit:10;}
	.st1{fill:none;stroke:#534F4D;stroke-width:11;stroke-linecap:round;stroke-miterlimit:10;}
	.st2{fill:#534F4D;}
	.st3{fill:none;stroke:#534F4D;stroke-width:6;stroke-miterlimit:10;}
	.st4{fill:none;stroke:#534F4D;stroke-width:6;stroke-miterlimit:10;stroke-dasharray:10.4414,6.2648;}
	.st5{fill:#ED6B06;}
</style>
<path class="st0" d="M137.4,21h9.5c4.7,0,8.5,3.8,8.5,8.5v97.7c0,4.7-3.8,8.5-8.5,8.5H14c-4.7,0-8.5-3.8-8.5-8.5V29.5
	c0-4.7,3.8-8.5,8.5-8.5h11.2"/>
<line class="st0" x1="40.6" y1="21" x2="122" y2="21"/>
<line class="st1" x1="32.9" y1="5.5" x2="32.9" y2="36.5"/>
<line class="st1" x1="129.7" y1="5.5" x2="129.7" y2="36.5"/>
<circle class="st2" cx="32.9" cy="36.5" r="7.7"/>
<circle class="st2" cx="129.7" cy="36.5" r="7.7"/>
<g>
	<g>
		<line class="st3" x1="5.5" y1="52" x2="10.5" y2="52"/>
		<line class="st4" x1="16.8" y1="52" x2="147.3" y2="52"/>
		<line class="st3" x1="150.4" y1="52" x2="155.4" y2="52"/>
	</g>
</g>
<g>
	<path class="st2" d="M31.9,78.9h-7.5c-2.9,0-5.2-2.3-5.2-5.2v-7.5c0-2.9,2.3-5.2,5.2-5.2h7.5c2.9,0,5.2,2.3,5.2,5.2v7.5
		C37.1,76.5,34.8,78.9,31.9,78.9z"/>
	<path class="st2" d="M58.2,78.9h-7.5c-2.9,0-5.2-2.3-5.2-5.2v-7.5c0-2.9,2.3-5.2,5.2-5.2h7.5c2.9,0,5.2,2.3,5.2,5.2v7.5
		C63.4,76.5,61.1,78.9,58.2,78.9z"/>
	<path class="st2" d="M84.6,78.9h-7.5c-2.9,0-5.2-2.3-5.2-5.2v-7.5c0-2.9,2.3-5.2,5.2-5.2h7.5c2.9,0,5.2,2.3,5.2,5.2v7.5
		C89.7,76.5,87.4,78.9,84.6,78.9z"/>
	<path class="st2" d="M110.9,78.9h-7.5c-2.9,0-5.2-2.3-5.2-5.2v-7.5c0-2.9,2.3-5.2,5.2-5.2h7.5c2.9,0,5.2,2.3,5.2,5.2v7.5
		C116.1,76.5,113.7,78.9,110.9,78.9z"/>
	<path class="st2" d="M137.2,78.9h-7.5c-2.9,0-5.2-2.3-5.2-5.2v-7.5c0-2.9,2.3-5.2,5.2-5.2h7.5c2.9,0,5.2,2.3,5.2,5.2v7.5
		C142.4,76.5,140.1,78.9,137.2,78.9z"/>
</g>
<g>
	<path class="st2" d="M31.9,102.3h-7.5c-2.9,0-5.2-2.3-5.2-5.2v-7.5c0-2.9,2.3-5.2,5.2-5.2h7.5c2.9,0,5.2,2.3,5.2,5.2v7.5
		C37.1,100,34.8,102.3,31.9,102.3z"/>
	<path class="st2" d="M58.2,102.3h-7.5c-2.9,0-5.2-2.3-5.2-5.2v-7.5c0-2.9,2.3-5.2,5.2-5.2h7.5c2.9,0,5.2,2.3,5.2,5.2v7.5
		C63.4,100,61.1,102.3,58.2,102.3z"/>
	<path class="st2" d="M84.6,102.3h-7.5c-2.9,0-5.2-2.3-5.2-5.2v-7.5c0-2.9,2.3-5.2,5.2-5.2h7.5c2.9,0,5.2,2.3,5.2,5.2v7.5
		C89.7,100,87.4,102.3,84.6,102.3z"/>
	<path class="st5" d="M110.9,102.3h-7.5c-2.9,0-5.2-2.3-5.2-5.2v-7.5c0-2.9,2.3-5.2,5.2-5.2h7.5c2.9,0,5.2,2.3,5.2,5.2v7.5
		C116.1,100,113.7,102.3,110.9,102.3z"/>
	<path class="st2" d="M137.2,102.3h-7.5c-2.9,0-5.2-2.3-5.2-5.2v-7.5c0-2.9,2.3-5.2,5.2-5.2h7.5c2.9,0,5.2,2.3,5.2,5.2v7.5
		C142.4,100,140.1,102.3,137.2,102.3z"/>
</g>
<g>
	<path class="st2" d="M31.6,125.8h-7.5c-2.9,0-5.2-2.3-5.2-5.2v-7.5c0-2.9,2.3-5.2,5.2-5.2h7.5c2.9,0,5.2,2.3,5.2,5.2v7.5
		C36.7,123.5,34.4,125.8,31.6,125.8z"/>
	<path class="st2" d="M57.9,125.8h-7.5c-2.9,0-5.2-2.3-5.2-5.2v-7.5c0-2.9,2.3-5.2,5.2-5.2h7.5c2.9,0,5.2,2.3,5.2,5.2v7.5
		C63.1,123.5,60.7,125.8,57.9,125.8z"/>
	<path class="st2" d="M84.2,125.8h-7.5c-2.9,0-5.2-2.3-5.2-5.2v-7.5c0-2.9,2.3-5.2,5.2-5.2h7.5c2.9,0,5.2,2.3,5.2,5.2v7.5
		C89.4,123.5,87.1,125.8,84.2,125.8z"/>
	<path class="st2" d="M110.5,125.8H103c-2.9,0-5.2-2.3-5.2-5.2v-7.5c0-2.9,2.3-5.2,5.2-5.2h7.5c2.9,0,5.2,2.3,5.2,5.2v7.5
		C115.7,123.5,113.4,125.8,110.5,125.8z"/>
	<path class="st2" d="M136.8,125.8h-7.5c-2.9,0-5.2-2.3-5.2-5.2v-7.5c0-2.9,2.3-5.2,5.2-5.2h7.5c2.9,0,5.2,2.3,5.2,5.2v7.5
		C142,123.5,139.7,125.8,136.8,125.8z"/>
</g>
</svg>
