<?xml version="1.0" encoding="utf-8"?>
<!-- Generator: Adobe Illustrator 24.3.0, SVG Export Plug-In . SVG Version: 6.00 Build 0)  -->
<!DOCTYPE svg PUBLIC "-//W3C//DTD SVG 1.1//EN" "http://www.w3.org/Graphics/SVG/1.1/DTD/svg11.dtd" [
	<!ENTITY ns_flows "http://ns.adobe.com/Flows/1.0/">
	<!ENTITY ns_extend "http://ns.adobe.com/Extensibility/1.0/">
	<!ENTITY ns_ai "http://ns.adobe.com/AdobeIllustrator/10.0/">
	<!ENTITY ns_graphs "http://ns.adobe.com/Graphs/1.0/">
	<!ENTITY ns_vars "http://ns.adobe.com/Variables/1.0/">
	<!ENTITY ns_imrep "http://ns.adobe.com/ImageReplacement/1.0/">
	<!ENTITY ns_sfw "http://ns.adobe.com/SaveForWeb/1.0/">
	<!ENTITY ns_custom "http://ns.adobe.com/GenericCustomNamespace/1.0/">
	<!ENTITY ns_adobe_xpath "http://ns.adobe.com/XPath/1.0/">
]>
<svg version="1.1" id="Calque_1" xmlns:x="&ns_extend;" xmlns:i="&ns_ai;" xmlns:graph="&ns_graphs;"
	 xmlns="http://www.w3.org/2000/svg" xmlns:xlink="http://www.w3.org/1999/xlink" xmlns:a="http://ns.adobe.com/AdobeSVGViewerExtensions/3.0/"
	 x="0px" y="0px" viewBox="0 0 201.192 158.298" enable-background="new 0 0 201.192 158.298" xml:space="preserve">
<metadata>
	<sfw  xmlns="&ns_sfw;">
		<slices></slices>
		<sliceSourceBounds  bottomLeftOrigin="true" height="147.021" width="167.572" x="213.852" y="-494.455"></sliceSourceBounds>
	</sfw>
</metadata>
<g>
	<path fill="none" stroke="#534F4D" stroke-width="11" stroke-miterlimit="10" d="M160.081,27.316h9.913
		c4.909,0,8.888,3.979,8.888,8.888v102.067c0,4.909-3.979,8.888-8.888,8.888H31.198c-4.909,0-8.888-3.979-8.888-8.888V36.204
		c0-4.909,3.979-8.888,8.888-8.888h11.65"/>
	<line fill="none" stroke="#534F4D" stroke-width="11" stroke-miterlimit="10" x1="58.925" y1="27.316" x2="144.004" y2="27.316"/>
	
		<line fill="none" stroke="#534F4D" stroke-width="11" stroke-linecap="round" stroke-miterlimit="10" x1="50.887" y1="11.139" x2="50.887" y2="43.493"/>
	
		<line fill="none" stroke="#534F4D" stroke-width="11" stroke-linecap="round" stroke-miterlimit="10" x1="152.042" y1="11.139" x2="152.042" y2="43.493"/>
	<circle fill="#534F4D" cx="50.887" cy="43.493" r="8.039"/>
	<circle fill="#534F4D" cx="152.042" cy="43.493" r="8.039"/>
	<g>
		<g>
			<line fill="none" stroke="#534F4D" stroke-width="6" stroke-miterlimit="10" x1="22.31" y1="59.661" x2="27.31" y2="59.661"/>
			
				<line fill="none" stroke="#534F4D" stroke-width="6" stroke-miterlimit="10" stroke-dasharray="9.7715,5.8629" x1="33.173" y1="59.661" x2="170.95" y2="59.661"/>
			
				<line fill="none" stroke="#534F4D" stroke-width="6" stroke-miterlimit="10" x1="173.882" y1="59.661" x2="178.882" y2="59.661"/>
		</g>
	</g>
	<g>
		<path fill="#534F4D" d="M50.123,87.761H41.84c-2.867,0-5.191-2.324-5.191-5.191v-8.283c0-2.867,2.324-5.191,5.191-5.191h8.283
			c2.867,0,5.191,2.324,5.191,5.191v8.283C55.314,85.437,52.99,87.761,50.123,87.761z"/>
		<path fill="#534F4D" d="M77.615,87.761h-8.283c-2.867,0-5.191-2.324-5.191-5.191v-8.283c0-2.867,2.324-5.191,5.191-5.191h8.283
			c2.867,0,5.191,2.324,5.191,5.191v8.283C82.806,85.437,80.482,87.761,77.615,87.761z"/>
		<path fill="#534F4D" d="M105.107,87.761h-8.283c-2.867,0-5.191-2.324-5.191-5.191v-8.283c0-2.867,2.324-5.191,5.191-5.191h8.283
			c2.867,0,5.191,2.324,5.191,5.191v8.283C110.298,85.437,107.974,87.761,105.107,87.761z"/>
		<path fill="#534F4D" d="M132.599,87.761h-8.283c-2.867,0-5.191-2.324-5.191-5.191v-8.283c0-2.867,2.324-5.191,5.191-5.191h8.283
			c2.867,0,5.191,2.324,5.191,5.191v8.283C137.79,85.437,135.466,87.761,132.599,87.761z"/>
		<path fill="#534F4D" d="M160.091,87.761h-8.283c-2.867,0-5.191-2.324-5.191-5.191v-8.283c0-2.867,2.324-5.191,5.191-5.191h8.283
			c2.867,0,5.191,2.324,5.191,5.191v8.283C165.282,85.437,162.958,87.761,160.091,87.761z"/>
	</g>
	<g>
		<path fill="#534F4D" d="M50.123,112.272H41.84c-2.867,0-5.191-2.324-5.191-5.191v-8.283c0-2.867,2.324-5.191,5.191-5.191h8.283
			c2.867,0,5.191,2.324,5.191,5.191v8.283C55.314,109.947,52.99,112.272,50.123,112.272z"/>
		<path fill="#534F4D" d="M77.615,112.272h-8.283c-2.867,0-5.191-2.324-5.191-5.191v-8.283c0-2.867,2.324-5.191,5.191-5.191h8.283
			c2.867,0,5.191,2.324,5.191,5.191v8.283C82.806,109.947,80.482,112.272,77.615,112.272z"/>
		<path fill="#534F4D" d="M105.107,112.272h-8.283c-2.867,0-5.191-2.324-5.191-5.191v-8.283c0-2.867,2.324-5.191,5.191-5.191h8.283
			c2.867,0,5.191,2.324,5.191,5.191v8.283C110.298,109.947,107.974,112.272,105.107,112.272z"/>
		<path fill="#ED6B06" d="M132.599,112.272h-8.283c-2.867,0-5.191-2.324-5.191-5.191v-8.283c0-2.867,2.324-5.191,5.191-5.191h8.283
			c2.867,0,5.191,2.324,5.191,5.191v8.283C137.79,109.947,135.466,112.272,132.599,112.272z"/>
		<path fill="#534F4D" d="M160.091,112.272h-8.283c-2.867,0-5.191-2.324-5.191-5.191v-8.283c0-2.867,2.324-5.191,5.191-5.191h8.283
			c2.867,0,5.191,2.324,5.191,5.191v8.283C165.282,109.947,162.958,112.272,160.091,112.272z"/>
	</g>
	<g>
		<path fill="#534F4D" d="M49.753,136.782H41.47c-2.867,0-5.191-2.324-5.191-5.191v-8.283c0-2.867,2.324-5.191,5.191-5.191h8.283
			c2.867,0,5.191,2.324,5.191,5.191v8.283C54.945,134.458,52.62,136.782,49.753,136.782z"/>
		<path fill="#534F4D" d="M77.245,136.782h-8.283c-2.867,0-5.191-2.324-5.191-5.191v-8.283c0-2.867,2.324-5.191,5.191-5.191h8.283
			c2.867,0,5.191,2.324,5.191,5.191v8.283C82.437,134.458,80.112,136.782,77.245,136.782z"/>
		<path fill="#534F4D" d="M104.737,136.782h-8.283c-2.867,0-5.191-2.324-5.191-5.191v-8.283c0-2.867,2.324-5.191,5.191-5.191h8.283
			c2.867,0,5.191,2.324,5.191,5.191v8.283C109.929,134.458,107.604,136.782,104.737,136.782z"/>
		<path fill="#534F4D" d="M132.229,136.782h-8.283c-2.867,0-5.191-2.324-5.191-5.191v-8.283c0-2.867,2.324-5.191,5.191-5.191h8.283
			c2.867,0,5.191,2.324,5.191,5.191v8.283C137.421,134.458,135.096,136.782,132.229,136.782z"/>
		<path fill="#534F4D" d="M159.721,136.782h-8.283c-2.867,0-5.191-2.324-5.191-5.191v-8.283c0-2.867,2.324-5.191,5.191-5.191h8.283
			c2.867,0,5.191,2.324,5.191,5.191v8.283C164.913,134.458,162.588,136.782,159.721,136.782z"/>
	</g>
</g>
</svg>
