<?xml version="1.0" encoding="utf-8"?>
<!-- Generator: Adobe Illustrator 24.3.0, SVG Export Plug-In . SVG Version: 6.00 Build 0)  -->
<!DOCTYPE svg PUBLIC "-//W3C//DTD SVG 1.1//EN" "http://www.w3.org/Graphics/SVG/1.1/DTD/svg11.dtd" [
	<!ENTITY ns_flows "http://ns.adobe.com/Flows/1.0/">
	<!ENTITY ns_extend "http://ns.adobe.com/Extensibility/1.0/">
	<!ENTITY ns_ai "http://ns.adobe.com/AdobeIllustrator/10.0/">
	<!ENTITY ns_graphs "http://ns.adobe.com/Graphs/1.0/">
	<!ENTITY ns_vars "http://ns.adobe.com/Variables/1.0/">
	<!ENTITY ns_imrep "http://ns.adobe.com/ImageReplacement/1.0/">
	<!ENTITY ns_sfw "http://ns.adobe.com/SaveForWeb/1.0/">
	<!ENTITY ns_custom "http://ns.adobe.com/GenericCustomNamespace/1.0/">
	<!ENTITY ns_adobe_xpath "http://ns.adobe.com/XPath/1.0/">
]>
<svg version="1.1" id="Calque_1" xmlns:x="&ns_extend;" xmlns:i="&ns_ai;" xmlns:graph="&ns_graphs;"
	 xmlns="http://www.w3.org/2000/svg" xmlns:xlink="http://www.w3.org/1999/xlink" xmlns:a="http://ns.adobe.com/AdobeSVGViewerExtensions/3.0/"
	 x="0px" y="0px" viewBox="0 0 109.739 74.026" enable-background="new 0 0 109.739 74.026" xml:space="preserve">
<metadata>
	<sfw  xmlns="&ns_sfw;">
		<slices></slices>
		<sliceSourceBounds  bottomLeftOrigin="true" height="74.026" width="109.739" x="242.631" y="-458.013"></sliceSourceBounds>
	</sfw>
</metadata>
<g id="rafale">
	<path fill="#4F4A49" d="M0,52.217c0,1.107,0.415,2.075,1.291,2.859c0.738,0.876,1.706,1.291,2.905,1.291H71.93
		c1.337,0,2.444,0.461,3.366,1.383c0.922,0.922,1.383,2.075,1.383,3.412c0,1.337-0.461,2.444-1.383,3.32
		c-0.922,0.876-2.029,1.337-3.412,1.337c-1.337,0-2.49-0.461-3.366-1.337c-0.738-0.83-1.66-1.199-2.767-1.199
		c-1.153,0-2.121,0.415-2.951,1.199c-0.83,0.784-1.245,1.752-1.245,2.813c0,1.153,0.415,2.121,1.291,2.905
		c2.582,2.536,5.625,3.827,9.037,3.827c3.596,0,6.686-1.245,9.268-3.735s3.827-5.487,3.827-9.083c0-3.596-1.291-6.64-3.873-9.222
		c-2.582-2.582-5.671-3.873-9.222-3.873H4.196c-1.153,0-2.121,0.415-2.951,1.199C0.415,50.096,0,51.064,0,52.217z"/>
	<path fill="#4F4A49" d="M0,37.093c0,1.061,0.415,1.983,1.291,2.813c0.784,0.83,1.752,1.199,2.905,1.199h92.402
		c3.596,0,6.686-1.245,9.268-3.781c2.582-2.49,3.873-5.533,3.873-9.083c0-3.55-1.291-6.64-3.873-9.176
		c-2.582-2.536-5.671-3.827-9.268-3.827c-3.55,0-6.547,1.245-8.991,3.689c-0.83,0.738-1.245,1.752-1.245,3.089
		c0,1.199,0.415,2.167,1.199,2.905c0.784,0.738,1.752,1.107,2.905,1.107c1.107,0,2.075-0.369,2.905-1.107
		c0.876-0.968,1.937-1.429,3.228-1.429c1.337,0,2.444,0.461,3.366,1.383c0.922,0.922,1.383,2.029,1.383,3.366
		c0,1.337-0.461,2.444-1.383,3.32c-0.922,0.876-2.029,1.337-3.366,1.337H4.196c-1.153,0-2.121,0.415-2.951,1.199
		C0.415,34.972,0,35.94,0,37.093z"/>
	<path fill="#4F4A49" d="M24.235,25.913h22.648c3.55,0,6.64-1.291,9.222-3.873c2.582-2.582,3.873-5.625,3.873-9.222
		s-1.245-6.594-3.827-9.083C53.569,1.245,50.48,0,46.884,0c-3.412,0-6.455,1.291-9.037,3.827c-0.876,0.784-1.291,1.752-1.291,2.905
		c0,1.061,0.415,2.029,1.245,2.813s1.798,1.199,2.951,1.199c1.107,0,2.029-0.369,2.767-1.199c0.876-0.876,2.029-1.337,3.366-1.337
		c1.383,0,2.49,0.461,3.412,1.337c0.922,0.876,1.383,1.983,1.383,3.32c0,1.337-0.461,2.49-1.383,3.412
		c-0.922,0.922-2.029,1.383-3.366,1.383H24.363H15.47H4.196c-1.199,0-2.167,0.415-2.905,1.291C0.415,19.735,0,20.703,0,21.809
		c0,1.153,0.415,2.121,1.245,2.905c0.83,0.784,1.798,1.199,2.951,1.199H15.47H24.235z"/>
</g>
</svg>
