<?xml version="1.0" encoding="utf-8"?>
<!-- Generator: Adobe Illustrator 24.3.0, SVG Export Plug-In . SVG Version: 6.00 Build 0)  -->
<svg version="1.1" id="Calque_1" xmlns="http://www.w3.org/2000/svg" xmlns:xlink="http://www.w3.org/1999/xlink" x="0px" y="0px"
	 viewBox="0 0 168.8 129.8" style="enable-background:new 0 0 168.8 129.8;" xml:space="preserve">
<style type="text/css">
	.st0{fill:#FFD000;}
	.st1{fill:none;stroke:#FFD000;stroke-width:4;stroke-miterlimit:10;}
	.st2{fill:#534F4D;}
	.st3{fill:#FFFFFF;}
	.st4{display:none;fill:#38388D;}
	.st5{display:none;fill:#C51718;}
	.st6{display:none;}
	.st7{display:inline;}
	.st8{fill:none;stroke:#534F4D;stroke-width:4;stroke-miterlimit:10;}
	.st9{display:none;fill:none;stroke:#534F4D;stroke-width:4;stroke-miterlimit:10;}
</style>
<g>
	<circle class="st0" cx="32.4" cy="29.3" r="12.6"/>
	<line class="st1" x1="32.4" y1="13.4" x2="32.4" y2="0"/>
	<line class="st1" x1="32.4" y1="58.6" x2="32.4" y2="45.2"/>
	<line class="st1" x1="48.2" y1="29.3" x2="61.7" y2="29.3"/>
	<line class="st1" x1="3.1" y1="29.3" x2="16.5" y2="29.3"/>
	<line class="st1" x1="43.6" y1="18.1" x2="53.1" y2="8.6"/>
	<line class="st1" x1="11.7" y1="50" x2="21.2" y2="40.5"/>
	<line class="st1" x1="43.6" y1="40.5" x2="53.1" y2="50"/>
	<line class="st1" x1="11.7" y1="8.6" x2="21.2" y2="18.1"/>
</g>
<path class="st2" d="M121.4,45.3c0,0-21.6,20.3-21.6,20.3v-10h-5.1v14.8L77.5,86.7h9.5v43.2h8.6v-28.4h17.7v28.4h42.7V86.7h9.5
	L121.4,45.3z M141.9,115.2h-14.1V94.9h14.1V115.2z"/>
<path class="st3" d="M29.6,49.3c-4.3,0-7.7-3-7.7-6.6c0-3.6,3.5-6.6,7.7-6.6c0.1,0,0.2,0,0.2,0c1.3-6.8,8-12,16-12
	c3.4,0,6.6,1,9.2,2.6c1.4-0.7,3.1-1.1,4.8-1.1c4.6,0,8.4,2.6,8.8,5.9c1-0.3,2.1-0.4,3.3-0.4c4.1,0,7.8,1.8,10,4.5
	c1.4-1.2,3.1-1.9,5-1.9c4.3,0,7.7,3.5,7.7,7.7s-3.5,7.7-7.7,7.7H29.9"/>
<polyline class="st4" points="88.1,74.2 94.6,86.8 101.1,95.1 114.3,105.2 126,107.4 138.6,105.2 147.8,98.5 157.5,87.8 163,77.3 
	164.3,73.3 164.3,122 85.8,122 85.8,73.3 "/>
<polygon class="st5" points="85.8,67.9 85.8,122 7.4,122 7.4,67.9 9.1,58.4 15.1,47.5 24.1,37.1 32.5,31.5 42.2,28.6 52.1,29.1 
	59.9,32 69.7,39.5 77.7,49.7 "/>
<g class="st6">
	<g class="st7">
		<polyline class="st8" points="156.8,122 7.4,122 7.4,15.7 		"/>
		<g>
			<polygon class="st2" points="151.2,114.6 154.4,122 151.2,129.4 168.8,122 			"/>
		</g>
		<g>
			<polygon class="st2" points="14.8,21.4 7.4,18.2 0,21.4 7.4,3.8 			"/>
		</g>
	</g>
</g>
<path class="st9" d="M164.3,73.3c-7.9,20.4-22.1,34.1-38.3,34.1c-17.6,0-32.8-16.1-40.2-39.5S63.3,28.4,45.7,28.4
	C29.5,28.4,15.3,42,7.4,62.5"/>
</svg>
