<?xml version="1.0" encoding="utf-8"?>
<!-- Generator: Adobe Illustrator 24.3.0, SVG Export Plug-In . SVG Version: 6.00 Build 0)  -->
<svg version="1.1" id="Calque_1" xmlns="http://www.w3.org/2000/svg" xmlns:xlink="http://www.w3.org/1999/xlink" x="0px" y="0px"
	 viewBox="0 0 191.8 146.6" style="enable-background:new 0 0 191.8 146.6;" xml:space="preserve">
<style type="text/css">
	.st0{fill:none;stroke:#534F4D;stroke-width:6;stroke-linecap:round;stroke-miterlimit:10;}
	.st1{fill:none;stroke:#12100B;stroke-miterlimit:10;}
	.st2{fill:#534F4D;}
	.st3{fill:none;stroke:#534F4D;stroke-width:2;stroke-miterlimit:10;}
	.st4{fill:#F3B300;}
</style>
<g>
	<g>
		<polyline class="st0" points="188.8,103.5 144.8,74.1 100.8,103.5 		"/>
		<path class="st1" d="M100.9,112.1"/>
		<g>
			<polygon class="st2" points="179.3,105.5 179.3,105.7 179.3,105.7 			"/>
			<path class="st2" d="M179.3,146.6l0-40.9l-34.5-23l-34.5,23v40.9h8.6v-28.4h17.7v28.4H179.3z M149.7,109.1h17.5v21.3h-17.5V109.1
				z"/>
		</g>
		<line class="st3" x1="158.5" y1="109.1" x2="158.5" y2="130.4"/>
		<line class="st3" x1="149.7" y1="119.8" x2="167.2" y2="119.8"/>
		<path class="st2" d="M121.3,80.9V68.5c0-0.7,0.5-1.2,1.2-1.2h4.5c0.7,0,1.2,0.5,1.2,1.2v7.8"/>
	</g>
	<path class="st2" d="M12.4,119.6c0-2.3,0.4-4.6,1.4-6.7s2.1-4,3.7-5.5c1.6-1.5,3.4-2.8,5.5-3.7s4.4-1.4,6.7-1.4s4.6,0.4,6.7,1.4
		c2.1,0.9,4,2.1,5.5,3.7c1.5,1.5,2.8,3.4,3.7,5.5c0.9,2.1,1.4,4.4,1.4,6.7c0,3.8-1.1,7.2-3.4,10.2c-2.3,3-5.2,5-8.7,6.2v7.8h-10V136
		c-3.6-1.1-6.6-3.1-8.9-6.2C13.6,126.9,12.4,123.4,12.4,119.6z M16.2,119.6c0,3.7,1.3,6.8,4,9.4c2.6,2.6,5.8,4,9.5,4
		c2.4,0,4.7-0.6,6.7-1.8c2.1-1.2,3.7-2.8,4.9-4.9c1.2-2.1,1.8-4.3,1.8-6.7c0-1.8-0.4-3.5-1.1-5.2c-0.7-1.7-1.7-3.1-2.9-4.3
		c-1.2-1.2-2.6-2.2-4.3-2.9c-1.7-0.7-3.4-1.1-5.2-1.1c-1.8,0-3.5,0.4-5.2,1.1c-1.7,0.7-3.1,1.7-4.3,2.9c-1.2,1.2-2.2,2.6-2.9,4.3
		C16.6,116,16.2,117.8,16.2,119.6z M17.6,120.4v-1.7h5.1v1.7H17.6z M20.2,112.1l1.2-1.2l3.6,3.6l-1.2,1.2L20.2,112.1z M26.1,123.7
		c0-1,0.4-1.8,1-2.6s1.5-1.1,2.5-1.1l6.4-10.6l1.6,0.8l-4.8,11.4c0.4,0.6,0.6,1.3,0.6,2.1c0,1-0.4,1.9-1.1,2.6
		c-0.7,0.7-1.6,1.1-2.6,1.1c-1,0-1.9-0.4-2.6-1.1C26.5,125.6,26.1,124.7,26.1,123.7z M29.2,112.7v-5.1h1.6v5.1L29.2,112.7
		L29.2,112.7z M36.1,120.4v-1.7h5.1v1.7H36.1z"/>
	<path class="st2" d="M71.9,134.2c0-1.6,0.4-3.1,1.1-4.5c0.7-1.4,1.8-2.5,3.1-3.4v-18.6c0-1.5,0.5-2.8,1.5-3.8s2.3-1.6,3.8-1.6
		c1.5,0,2.8,0.5,3.8,1.6c1,1,1.6,2.3,1.6,3.8v18.6c1.3,0.9,2.3,2.1,3.1,3.4s1.1,2.9,1.1,4.5c0,1.7-0.4,3.3-1.3,4.8
		c-0.8,1.5-2,2.6-3.5,3.5s-3.1,1.3-4.8,1.3c-1.7,0-3.3-0.4-4.8-1.3s-2.6-2-3.5-3.5C72.3,137.5,71.9,135.9,71.9,134.2z M75.2,134.2
		c0,1.7,0.6,3.2,1.8,4.5c1.2,1.2,2.7,1.9,4.4,1.9c1.7,0,3.2-0.6,4.5-1.9c1.3-1.3,1.9-2.7,1.9-4.4c0-1.2-0.3-2.2-0.9-3.2
		c-0.6-1-1.4-1.8-2.5-2.3l-0.5-0.3c-0.2-0.1-0.3-0.3-0.3-0.5v-20.2c0-0.6-0.2-1.1-0.6-1.5c-0.4-0.4-1-0.6-1.6-0.6
		c-0.6,0-1.1,0.2-1.6,0.6c-0.4,0.4-0.6,0.9-0.6,1.5v20.1c0,0.3-0.1,0.5-0.3,0.5l-0.5,0.3c-1,0.5-1.8,1.3-2.4,2.3
		C75.4,131.9,75.2,133,75.2,134.2z M76.6,134.2c0,1.3,0.4,2.5,1.4,3.4c0.9,0.9,2,1.4,3.3,1.4s2.4-0.5,3.4-1.4c1-0.9,1.4-2.1,1.4-3.4
		c0-1.2-0.4-2.2-1.2-3.1c-0.8-0.9-1.8-1.4-3-1.6v-13.8c0-0.1-0.1-0.2-0.2-0.4c-0.1-0.1-0.3-0.2-0.4-0.2c-0.2,0-0.3,0.1-0.4,0.1
		c-0.1,0.1-0.1,0.2-0.1,0.4v13.7c-1.1,0.2-2.1,0.7-2.9,1.6C77,132,76.6,133,76.6,134.2z"/>
	<g>
		<path class="st2" d="M37.8,77c0,0.6,0.2,1.3,0.6,1.8c0.4,0.6,0.9,1,1.6,1.1c0.1,0,0.2,0,0.3,0s0.3,0,0.3,0s0.2,0,0.3,0
			c1.5-0.1,2.5-0.8,2.9-2.2l1-3.8c0.2-0.8,0.1-1.5-0.3-2.3c-0.4-0.7-1.1-1.2-1.9-1.5c-0.8-0.2-1.5-0.1-2.3,0.3
			c-0.7,0.4-1.2,1.1-1.5,1.9L38,76.1C37.9,76.7,37.8,77,37.8,77z"/>
		<path class="st2" d="M42.6,59.9c0,0.5,0.2,1.1,0.5,1.6c0.4,0.5,0.9,0.9,1.6,1.2c0.8,0.3,1.5,0.2,2.3-0.2c0.7-0.4,1.2-1,1.4-1.9
			l1.1-3.7c0.2-0.9,0.1-1.7-0.3-2.4c-0.4-0.7-1-1.1-1.9-1.3c-0.8-0.3-1.6-0.2-2.3,0.3c-0.7,0.4-1.2,1-1.5,1.9L42.7,59
			c0,0.1,0,0.2,0,0.3c0,0.1,0,0.3,0,0.3C42.6,59.7,42.6,59.8,42.6,59.9z"/>
		<path class="st2" d="M52.8,65.8c0,0.7,0.2,1.3,0.6,1.9c0.4,0.6,0.9,1,1.7,1.1c0.6,0.1,0.9,0.2,1,0.2c1.4,0,2.3-0.7,2.8-2.2
			l0.9-3.8c0.3-0.8,0.2-1.5-0.2-2.3c-0.4-0.7-1-1.2-1.8-1.5c-0.9-0.2-1.7-0.1-2.4,0.3c-0.8,0.4-1.2,1.1-1.4,1.9l-1,3.6
			C52.8,65.2,52.8,65.5,52.8,65.8z"/>
		<path class="st2" d="M57.6,48.7c0,0.6,0.2,1.1,0.6,1.7c0.4,0.5,1,1,1.8,1.2c0.6,0.1,0.9,0.1,0.9,0.1c0.4,0,0.9-0.1,1.4-0.3
			c0.7-0.4,1.2-1,1.4-1.9l1-3.7c0.2-0.8,0.1-1.5-0.3-2.3c-0.4-0.7-1.1-1.2-1.9-1.5c-0.8-0.3-1.6-0.2-2.3,0.3s-1.2,1-1.4,1.9l-1,3.7
			C57.7,48.2,57.6,48.5,57.6,48.7z"/>
		<g>
			<path class="st4" d="M90.1,41.6c4.2-4.4,6.8-10.4,6.8-17C96.9,11,85.9,0,72.3,0c-8.5,0-16,4.3-20.4,10.8l8.3,5.4l5.9,7l1.6,7.2
				l8.5,1.2l7.9,3.4L90.1,41.6z"/>
			<g>
				<g>
					<path class="st2" d="M88.8,33.6c-4.6-4.4-9.9-6.6-16.1-6.6h-1.5c-1.4-5.3-4-9.8-7.7-13.5L57,9.3c-3.8-2-7.9-3-12.4-3
						c-6.5,0-12.3,2-17.3,6c-5,4-8.3,9.2-9.7,15.5c-5.1,1.2-9.3,3.8-12.6,8C1.6,39.9,0,44.5,0,49.8c0,5.1,1.5,9.6,4.6,13.7
						c3.1,4,7,6.8,11.8,8.3l-3,7.6c-0.2,0.6,0,1,0.6,1h9.8l-5.2,18.8h1.3l18.8-25.3c0.2-0.2,0.2-0.4,0-0.6C38.6,73.1,38.4,73,38,73
						h-10l11.4-21.5c0.3-0.6,0.1-1-0.6-1H25.2c-0.4,0-0.7,0.2-0.9,0.6l-5.1,13.5c-3.3-0.8-6-2.6-8.2-5.4c-2.2-2.8-3.3-5.8-3.3-9.3
						c0-3.9,1.3-7.2,3.9-10.1c2.6-2.9,5.8-4.5,9.7-4.8l2.4-0.3c0.6,0,0.9-0.3,0.9-0.8l0.3-2.4c0.5-5,2.6-9.2,6.3-12.5
						c3.7-3.4,8.1-5,13.2-5c5,0,9.4,1.7,13.2,5c3.7,3.4,5.9,7.5,6.4,12.5l0.3,2.7c0,0.5,0.3,0.8,0.8,0.8h7.5c4.2,0,7.7,1.5,10.7,4.4
						c2.9,2.9,4.5,6.4,4.5,10.5c0,4-1.4,7.4-4.1,10.3c-2.8,2.9-6.1,4.5-10.1,4.8c-0.6,0-0.9,0.3-0.9,0.8v6.3c0,0.5,0.3,0.8,0.9,0.8
						c6.1-0.2,11.3-2.5,15.6-7c4.3-4.5,6.4-9.8,6.4-16c0-3.4-0.6-6.4-1.9-9.2L88.8,33.6z"/>
					<path class="st2" d="M88.8,33.6c0,0,2.8,2.4,4.9,7"/>
				</g>
				<path class="st2" d="M57,9.3c0,0,3.4,1.7,6.5,4.3"/>
			</g>
		</g>
	</g>
	<path class="st2" d="M122.3,37.4c0,0.5,0.2,1,0.6,1.4c0.4,0.4,0.8,0.6,1.4,0.6h33.6c0.7,0,1.2,0.2,1.7,0.7c0.5,0.5,0.7,1,0.7,1.7
		c0,0.7-0.2,1.2-0.7,1.6c-0.5,0.4-1,0.7-1.7,0.7c-0.7,0-1.2-0.2-1.7-0.7c-0.4-0.4-0.8-0.6-1.4-0.6c-0.6,0-1.1,0.2-1.5,0.6
		c-0.4,0.4-0.6,0.9-0.6,1.4c0,0.6,0.2,1.1,0.6,1.4c1.3,1.3,2.8,1.9,4.5,1.9c1.8,0,3.3-0.6,4.6-1.9c1.3-1.2,1.9-2.7,1.9-4.5
		s-0.6-3.3-1.9-4.6c-1.3-1.3-2.8-1.9-4.6-1.9h-33.5c-0.6,0-1.1,0.2-1.5,0.6C122.5,36.4,122.3,36.8,122.3,37.4z M122.3,29.9
		c0,0.5,0.2,1,0.6,1.4c0.4,0.4,0.9,0.6,1.4,0.6h45.8c1.8,0,3.3-0.6,4.6-1.9c1.3-1.2,1.9-2.7,1.9-4.5c0-1.8-0.6-3.3-1.9-4.5
		c-1.3-1.3-2.8-1.9-4.6-1.9c-1.8,0-3.2,0.6-4.5,1.8c-0.4,0.4-0.6,0.9-0.6,1.5c0,0.6,0.2,1.1,0.6,1.4c0.4,0.4,0.9,0.5,1.4,0.5
		c0.5,0,1-0.2,1.4-0.5c0.4-0.5,1-0.7,1.6-0.7c0.7,0,1.2,0.2,1.7,0.7c0.5,0.5,0.7,1,0.7,1.7c0,0.7-0.2,1.2-0.7,1.6
		c-0.5,0.4-1,0.7-1.7,0.7h-45.8c-0.6,0-1.1,0.2-1.5,0.6C122.5,28.9,122.3,29.3,122.3,29.9z"/>
</g>
</svg>
