<?xml version="1.0" encoding="utf-8"?>
<!-- Generator: Adobe Illustrator 24.3.0, SVG Export Plug-In . SVG Version: 6.00 Build 0)  -->
<!DOCTYPE svg PUBLIC "-//W3C//DTD SVG 1.1//EN" "http://www.w3.org/Graphics/SVG/1.1/DTD/svg11.dtd" [
	<!ENTITY ns_flows "http://ns.adobe.com/Flows/1.0/">
	<!ENTITY ns_extend "http://ns.adobe.com/Extensibility/1.0/">
	<!ENTITY ns_ai "http://ns.adobe.com/AdobeIllustrator/10.0/">
	<!ENTITY ns_graphs "http://ns.adobe.com/Graphs/1.0/">
	<!ENTITY ns_vars "http://ns.adobe.com/Variables/1.0/">
	<!ENTITY ns_imrep "http://ns.adobe.com/ImageReplacement/1.0/">
	<!ENTITY ns_sfw "http://ns.adobe.com/SaveForWeb/1.0/">
	<!ENTITY ns_custom "http://ns.adobe.com/GenericCustomNamespace/1.0/">
	<!ENTITY ns_adobe_xpath "http://ns.adobe.com/XPath/1.0/">
]>
<svg version="1.1" id="Calque_1" xmlns:x="&ns_extend;" xmlns:i="&ns_ai;" xmlns:graph="&ns_graphs;"
	 xmlns="http://www.w3.org/2000/svg" xmlns:xlink="http://www.w3.org/1999/xlink" xmlns:a="http://ns.adobe.com/AdobeSVGViewerExtensions/3.0/"
	 x="0px" y="0px" viewBox="0 0 123.51 105.568" enable-background="new 0 0 123.51 105.568" xml:space="preserve">
<metadata>
	<sfw  xmlns="&ns_sfw;">
		<slices></slices>
		<sliceSourceBounds  bottomLeftOrigin="true" height="105.568" width="123.51" x="235.745" y="-473.784"></sliceSourceBounds>
	</sfw>
</metadata>
<g>
	<polygon fill="#FFFFFF" points="40.967,88.023 60.983,88.023 69.406,96.372 83.462,101.413 96.757,99.848 107.865,93.075 
		115.21,82.352 117.51,67.543 112.791,54.202 110.358,50.846 119.51,37.032 61.009,24.011 40.967,43.798 	"/>
	<path fill="#FFFFFF" stroke="#534F4D" stroke-width="8" stroke-linecap="round" stroke-miterlimit="10" d="M117.861,40.176
		c1.052-1.97,1.649-4.219,1.649-6.608c0-7.756-6.288-14.044-14.044-14.044h-3.299C101.166,10.786,93.745,4,84.739,4
		c-9.041,0-16.485,6.839-17.441,15.625c-5.025,0.604-9.233,3.862-11.183,8.331"/>
	<path fill="#FFFFFF" stroke="#534F4D" stroke-width="8" stroke-linecap="round" stroke-miterlimit="10" d="M64.038,33.301
		c-4.517-4.523-10.761-7.321-17.659-7.321c-12.862,0-23.452,9.729-24.811,22.229C11.671,49.4,4,57.827,4,68.045
		c0,11.034,8.945,19.979,19.979,19.979h22.988"/>
	
		<ellipse transform="matrix(0.1592 -0.9872 0.9872 0.1592 3.0603 144.852)" fill="none" stroke="#544F4E" stroke-width="8" stroke-miterlimit="10" cx="86.572" cy="70.629" rx="30.939" ry="30.939"/>
	<g>
		<path fill="#544F4E" d="M81.434,55.344c0-3.118,2.306-5.669,5.125-5.669c2.819,0,5.125,2.551,5.125,5.669v14.446
			c0,3.118-2.306,5.669-5.125,5.669c-2.819,0-5.125-2.551-5.125-5.669V55.344z"/>
	</g>
	<circle fill="#544F4E" cx="86.584" cy="85.17" r="5.125"/>
</g>
</svg>
