<?xml version="1.0" encoding="utf-8"?>
<!-- Generator: Adobe Illustrator 24.3.0, SVG Export Plug-In . SVG Version: 6.00 Build 0)  -->
<!DOCTYPE svg PUBLIC "-//W3C//DTD SVG 1.1//EN" "http://www.w3.org/Graphics/SVG/1.1/DTD/svg11.dtd" [
	<!ENTITY ns_flows "http://ns.adobe.com/Flows/1.0/">
	<!ENTITY ns_extend "http://ns.adobe.com/Extensibility/1.0/">
	<!ENTITY ns_ai "http://ns.adobe.com/AdobeIllustrator/10.0/">
	<!ENTITY ns_graphs "http://ns.adobe.com/Graphs/1.0/">
	<!ENTITY ns_vars "http://ns.adobe.com/Variables/1.0/">
	<!ENTITY ns_imrep "http://ns.adobe.com/ImageReplacement/1.0/">
	<!ENTITY ns_sfw "http://ns.adobe.com/SaveForWeb/1.0/">
	<!ENTITY ns_custom "http://ns.adobe.com/GenericCustomNamespace/1.0/">
	<!ENTITY ns_adobe_xpath "http://ns.adobe.com/XPath/1.0/">
]>
<svg version="1.1" id="Calque_1" xmlns:x="&ns_extend;" xmlns:i="&ns_ai;" xmlns:graph="&ns_graphs;"
	 xmlns="http://www.w3.org/2000/svg" xmlns:xlink="http://www.w3.org/1999/xlink" xmlns:a="http://ns.adobe.com/AdobeSVGViewerExtensions/3.0/"
	 x="0px" y="0px" viewBox="0 0 201.192 158.298" enable-background="new 0 0 201.192 158.298" xml:space="preserve">
<metadata>
	<sfw  xmlns="&ns_sfw;">
		<slices></slices>
		<sliceSourceBounds  bottomLeftOrigin="true" height="151.508" width="189.11" x="203.083" y="-496.699"></sliceSourceBounds>
	</sfw>
</metadata>
<g>
	<g>
		<path fill="#534F4D" d="M63.795,121.069c0,0.986,0.274,1.917,0.876,2.794c0.603,0.931,1.424,1.479,2.52,1.643
			c0.11,0,0.274,0,0.438,0.055s0.383,0.055,0.493,0.055c0.11,0,0.274,0,0.438,0c2.355-0.164,3.78-1.26,4.382-3.342l1.589-5.807
			c0.329-1.205,0.164-2.355-0.493-3.451c-0.657-1.096-1.643-1.862-2.903-2.246c-1.205-0.329-2.355-0.164-3.451,0.438
			c-1.096,0.657-1.862,1.643-2.246,2.903l-1.369,5.478C63.905,120.576,63.795,121.014,63.795,121.069z"/>
		<path fill="#534F4D" d="M71.136,94.94c0,0.822,0.274,1.643,0.822,2.465c0.548,0.822,1.424,1.424,2.52,1.862
			c1.205,0.438,2.355,0.329,3.451-0.274c1.096-0.603,1.808-1.589,2.191-2.903l1.643-5.697c0.329-1.369,0.219-2.629-0.438-3.725
			c-0.657-1.096-1.589-1.753-2.903-2.027c-1.205-0.383-2.41-0.274-3.506,0.383s-1.862,1.589-2.301,2.903l-1.369,5.587
			c0,0.11,0,0.274-0.055,0.438c-0.055,0.164-0.055,0.383-0.055,0.493C71.136,94.611,71.136,94.775,71.136,94.94z"/>
		<path fill="#534F4D" d="M86.638,103.814c0,1.041,0.274,1.972,0.876,2.849c0.603,0.876,1.424,1.479,2.575,1.753
			c0.876,0.164,1.369,0.274,1.479,0.274c2.136,0,3.561-1.096,4.218-3.287l1.315-5.807c0.383-1.205,0.274-2.355-0.329-3.451
			c-0.603-1.096-1.479-1.862-2.739-2.246c-1.369-0.329-2.629-0.164-3.725,0.493c-1.15,0.657-1.808,1.643-2.082,2.903l-1.534,5.423
			C86.693,102.992,86.638,103.376,86.638,103.814z"/>
		<path fill="#534F4D" d="M94.088,77.794c0,0.876,0.274,1.753,0.876,2.575s1.479,1.479,2.684,1.862
			c0.931,0.11,1.424,0.164,1.424,0.164c0.657,0,1.315-0.164,2.082-0.438c1.041-0.548,1.808-1.479,2.136-2.849l1.589-5.697
			c0.329-1.205,0.164-2.355-0.493-3.451c-0.657-1.096-1.643-1.862-2.903-2.246c-1.26-0.383-2.41-0.274-3.506,0.383
			c-1.096,0.657-1.808,1.589-2.191,2.903l-1.534,5.587C94.143,77.082,94.088,77.465,94.088,77.794z"/>
		<g>
			<path fill="#F3B300" d="M143.597,66.869c6.463-6.739,10.434-15.886,10.434-25.961c0-20.718-16.795-37.513-37.513-37.513
				c-12.949,0-24.365,6.561-31.107,16.539l12.669,8.204l8.961,10.661l2.424,11.029l13.051,1.838l12.132,5.147L143.597,66.869z"/>
			<g>
				<g>
					<path fill="#534F4D" d="M141.64,54.785c-6.956-6.745-15.106-10.117-24.52-10.117h-2.248
						c-2.108-8.15-6.042-15.035-11.803-20.586l-9.977-6.534c-5.761-3.091-12.085-4.637-18.97-4.637
						c-9.977,0-18.829,3.091-26.487,9.204c-7.658,6.113-12.647,14.052-14.825,23.677c-7.799,1.827-14.192,5.831-19.251,12.155
						C8.5,64.27,6.041,71.366,6.041,79.445c0,7.728,2.319,14.684,7.026,20.937c4.707,6.183,10.679,10.398,18.056,12.647
						l-4.567,11.663c-0.281,0.984,0,1.475,0.984,1.475h14.895l-8.009,28.736h2.037l28.666-38.572
						c0.281-0.281,0.281-0.632,0.07-0.984c-0.211-0.351-0.562-0.492-1.054-0.492H48.899l17.354-32.811
						c0.492-0.984,0.211-1.546-0.913-1.546H44.543c-0.632,0-1.124,0.351-1.335,0.984l-7.799,20.586
						c-4.988-1.265-9.134-4.005-12.506-8.22c-3.302-4.216-4.988-8.923-4.988-14.192c0-5.902,1.967-11.031,5.972-15.387
						c4.005-4.356,8.923-6.815,14.754-7.377l3.653-0.492c0.913,0,1.405-0.422,1.405-1.194l0.492-3.653
						c0.773-7.658,3.934-14.052,9.625-19.11c5.691-5.129,12.365-7.658,20.094-7.658c7.658,0,14.403,2.529,20.094,7.658
						c5.691,5.129,8.993,11.522,9.836,19.11l0.492,4.075c0,0.773,0.422,1.194,1.265,1.194h11.382c6.394,0,11.803,2.248,16.37,6.675
						c4.496,4.426,6.815,9.836,6.815,16.019c0,6.042-2.108,11.241-6.323,15.668c-4.216,4.426-9.344,6.815-15.457,7.307
						c-0.843,0-1.335,0.422-1.335,1.265v9.696c0,0.773,0.422,1.194,1.335,1.194c9.344-0.281,17.284-3.864,23.818-10.679
						c6.534-6.815,9.766-14.895,9.766-24.38c0-5.129-0.984-9.766-2.881-14.052L141.64,54.785z"/>
					<path fill="#534F4D" d="M141.64,54.785c0,0,4.257,3.7,7.447,10.75"/>
				</g>
				<path fill="#534F4D" d="M93.091,17.548c0,0,5.16,2.596,9.977,6.534"/>
			</g>
		</g>
	</g>
	<path fill="#534F4D" d="M145.252,124.527c0-4.52,1.13-8.708,3.368-12.541c2.238-3.833,5.273-6.869,9.107-9.107
		c3.833-2.238,7.999-3.346,12.497-3.346c3.368,0,6.603,0.665,9.683,1.972c3.08,1.307,5.717,3.102,7.954,5.318
		c2.238,2.216,4.01,4.875,5.318,7.977c1.307,3.102,1.972,6.315,1.972,9.727c0,3.368-0.665,6.603-1.972,9.683
		c-1.307,3.08-3.102,5.739-5.318,7.954s-4.875,3.988-7.954,5.296s-6.293,1.972-9.683,1.972c-3.39,0-6.647-0.665-9.727-1.972
		c-3.08-1.307-5.739-3.102-7.977-5.318c-2.238-2.216-3.988-4.875-5.318-7.932C145.873,131.152,145.252,127.917,145.252,124.527z
		 M150.747,124.527c0,5.251,1.906,9.816,5.739,13.693c3.833,3.833,8.398,5.739,13.738,5.739c3.501,0,6.758-0.864,9.727-2.615
		s5.362-4.099,7.113-7.09s2.637-6.226,2.637-9.727s-0.886-6.758-2.637-9.749c-1.75-2.991-4.121-5.362-7.113-7.113
		c-2.991-1.75-6.226-2.615-9.727-2.615c-3.501,0-6.758,0.864-9.727,2.615c-2.969,1.75-5.362,4.121-7.135,7.113
		C151.589,117.769,150.747,121.026,150.747,124.527z M168.296,134.72V109.77c0-0.51,0.177-0.953,0.532-1.307
		c0.355-0.355,0.798-0.532,1.307-0.532c0.51,0,0.953,0.177,1.307,0.532c0.355,0.355,0.532,0.798,0.532,1.307v24.949
		c0,0.51-0.177,0.953-0.532,1.329c-0.355,0.377-0.798,0.554-1.307,0.554c-0.51,0-0.953-0.177-1.307-0.554
		C168.473,135.672,168.296,135.251,168.296,134.72z"/>
	<g>
		<g>
			<path fill="none" stroke="#534F4D" stroke-width="2" stroke-linecap="round" stroke-miterlimit="10" d="M179.648,113.88
				c2.583,2.782,4.162,6.508,4.162,10.603c0,4.377-1.804,8.332-4.709,11.163"/>
			<g>
				<path fill="#534F4D" d="M176.233,137.857c0.947-1.551,1.941-3.706,2.263-5.415l0.955,2.88l2.576,1.603
					C180.291,136.838,177.963,137.299,176.233,137.857z"/>
			</g>
		</g>
	</g>
</g>
</svg>
