<?xml version="1.0" encoding="utf-8"?>
<!-- Generator: Adobe Illustrator 24.3.0, SVG Export Plug-In . SVG Version: 6.00 Build 0)  -->
<svg version="1.1" id="Calque_1" xmlns="http://www.w3.org/2000/svg" xmlns:xlink="http://www.w3.org/1999/xlink" x="0px" y="0px"
	 viewBox="0 0 168.8 129.8" style="enable-background:new 0 0 168.8 129.8;" xml:space="preserve">
<style type="text/css">
	.st0{display:none;}
	.st1{display:inline;fill:#FFD000;}
	.st2{display:inline;fill:none;stroke:#FFD000;stroke-width:4;stroke-miterlimit:10;}
	.st3{display:none;fill:#534F4D;}
	.st4{display:none;fill:#FFFFFF;}
	.st5{display:none;fill:#38388D;}
	.st6{display:none;fill:#C51718;}
	.st7{display:inline;}
	.st8{fill:none;stroke:#534F4D;stroke-width:4;stroke-miterlimit:10;}
	.st9{fill:#534F4D;}
	.st10{display:none;fill:none;stroke:#534F4D;stroke-width:4;stroke-miterlimit:10;}
	.st11{fill:#FFD000;}
	.st12{fill:none;stroke:#FFD000;stroke-width:4;stroke-miterlimit:10;}
	.st13{fill:none;stroke:#9BCBEF;stroke-width:4;stroke-miterlimit:10;stroke-dasharray:6;}
	.st14{fill:#FFFFFF;}
</style>
<g class="st0">
	<circle class="st1" cx="32.4" cy="29.3" r="12.6"/>
	<line class="st2" x1="32.4" y1="13.4" x2="32.4" y2="0"/>
	<line class="st2" x1="32.4" y1="58.6" x2="32.4" y2="45.2"/>
	<line class="st2" x1="48.2" y1="29.3" x2="61.7" y2="29.3"/>
	<line class="st2" x1="3.1" y1="29.3" x2="16.5" y2="29.3"/>
	<line class="st2" x1="43.6" y1="18.1" x2="53.1" y2="8.6"/>
	<line class="st2" x1="11.7" y1="50" x2="21.2" y2="40.5"/>
	<line class="st2" x1="43.6" y1="40.5" x2="53.1" y2="50"/>
	<line class="st2" x1="11.7" y1="8.6" x2="21.2" y2="18.1"/>
</g>
<path class="st3" d="M121.4,45.3c0,0-21.6,20.3-21.6,20.3v-10h-5.1v14.8L77.5,86.7h9.5v43.2h8.6v-28.4h17.7v28.4h42.7V86.7h9.5
	L121.4,45.3z M141.9,115.2h-14.1V94.9h14.1V115.2z"/>
<path class="st4" d="M29.6,49.3c-4.3,0-7.7-3-7.7-6.6c0-3.6,3.5-6.6,7.7-6.6c0.1,0,0.2,0,0.2,0c1.3-6.8,8-12,16-12
	c3.4,0,6.6,1,9.2,2.6c1.4-0.7,3.1-1.1,4.8-1.1c4.6,0,8.4,2.6,8.8,5.9c1-0.3,2.1-0.4,3.3-0.4c4.1,0,7.8,1.8,10,4.5
	c1.4-1.2,3.1-1.9,5-1.9c4.3,0,7.7,3.5,7.7,7.7s-3.5,7.7-7.7,7.7H29.9"/>
<polyline class="st5" points="88.1,74.2 94.6,86.8 101.1,95.1 114.3,105.2 126,107.4 138.6,105.2 147.8,98.5 157.5,87.8 163,77.3 
	164.3,73.3 164.3,122 85.8,122 85.8,73.3 "/>
<polygon class="st6" points="85.8,67.9 85.8,122 7.4,122 7.4,67.9 9.1,58.4 15.1,47.5 24.1,37.1 32.5,31.5 42.2,28.6 52.1,29.1 
	59.9,32 69.7,39.5 77.7,49.7 "/>
<g class="st0">
	<g class="st7">
		<polyline class="st8" points="156.8,122 7.4,122 7.4,15.7 		"/>
		<g>
			<polygon class="st9" points="151.2,114.6 154.4,122 151.2,129.4 168.8,122 			"/>
		</g>
		<g>
			<polygon class="st9" points="14.8,21.4 7.4,18.2 0,21.4 7.4,3.8 			"/>
		</g>
	</g>
</g>
<path class="st10" d="M164.3,73.3c-7.9,20.4-22.1,34.1-38.3,34.1c-17.6,0-32.8-16.1-40.2-39.5S63.3,28.4,45.7,28.4
	C29.5,28.4,15.3,42,7.4,62.5"/>
<g>
	<g>
		<circle class="st11" cx="40.9" cy="35.5" r="12.6"/>
		<line class="st12" x1="40.9" y1="19.6" x2="40.9" y2="6.2"/>
		<line class="st12" x1="40.9" y1="64.8" x2="40.9" y2="51.3"/>
		<line class="st12" x1="56.8" y1="35.5" x2="70.2" y2="35.5"/>
		<line class="st12" x1="11.6" y1="35.5" x2="25.1" y2="35.5"/>
		<line class="st12" x1="52.1" y1="24.2" x2="61.6" y2="14.7"/>
		<line class="st12" x1="20.2" y1="56.2" x2="29.7" y2="46.7"/>
		<line class="st12" x1="52.1" y1="46.7" x2="61.6" y2="56.2"/>
		<line class="st12" x1="20.2" y1="14.7" x2="29.7" y2="24.2"/>
	</g>
	<g>
		<line class="st13" x1="31.8" y1="71.2" x2="6.6" y2="123.7"/>
		<line class="st13" x1="55.7" y1="71.2" x2="30.5" y2="123.7"/>
		<line class="st13" x1="79.6" y1="71.2" x2="54.4" y2="123.7"/>
		<line class="st13" x1="103.5" y1="71.2" x2="78.2" y2="123.7"/>
	</g>
	<path class="st14" d="M115.9,53.4c6.1,0,11.1,3,11.1,6.8c0,3.7-5,6.8-11.1,6.8c-0.1,0-0.2,0-0.3,0c-1.9,7-11.4,12.4-22.9,12.4
		c-4.9,0-9.5-1-13.3-2.7c-2,0.7-4.4,1.1-6.9,1.1c-6.7,0-12.1-2.7-12.7-6.1c-1.5,0.3-3.1,0.4-4.7,0.4c-5.9,0-11.2-1.8-14.3-4.6
		c-1.9,1.2-4.5,1.9-7.2,1.9c-6.1,0-11.1-3.6-11.1-8s5-8,11.1-8l81.9,0"/>
	<path class="st14" d="M25.1,66c-4.8,0-8.7-3-8.7-6.6c0-3.6,3.9-6.6,8.7-6.6c0.1,0,0.2,0,0.3,0c1.5-6.8,8.9-12,17.9-12
		c3.8,0,7.4,1,10.3,2.6c1.6-0.7,3.4-1.1,5.4-1.1c5.2,0,9.4,2.6,9.9,5.9c1.2-0.3,2.4-0.4,3.7-0.4c4.6,0,8.7,1.8,11.1,4.5
		c1.5-1.2,3.5-1.9,5.6-1.9c4.8,0,8.7,3.5,8.7,7.7S94,66,89.2,66H25.3"/>
	<path class="st14" d="M67.2,62.7c-4.3,0-7.7-3-7.7-6.6c0-3.6,3.5-6.6,7.7-6.6c0.1,0,0.2,0,0.2,0c1.3-6.8,8-12,16-12
		c3.4,0,6.6,1,9.2,2.6c1.4-0.7,3.1-1.1,4.8-1.1c4.6,0,8.4,2.6,8.8,5.9c1-0.3,2.1-0.4,3.3-0.4c4.1,0,7.8,1.8,10,4.5
		c1.4-1.2,3.1-1.9,5-1.9c4.3,0,7.7,3.5,7.7,7.7s-3.5,7.7-7.7,7.7H67.4"/>
	<path class="st14" d="M141.7,32.1c3.7,0,6.7-3,6.7-6.6s-3-6.6-6.7-6.6c-0.1,0-0.1,0-0.2,0c-1.1-6.8-6.9-12-13.8-12
		c-3,0-5.7,1-8,2.6c-1.2-0.7-2.6-1.1-4.2-1.1c-4,0-7.3,2.6-7.6,5.9c-0.9-0.3-1.8-0.4-2.8-0.4c-3.6,0-6.7,1.8-8.6,4.5
		c-1.2-1.2-2.7-1.9-4.3-1.9c-3.7,0-6.7,3.5-6.7,7.7s3,7.7,6.7,7.7h49.2"/>
	<g>
		<path class="st9" d="M82.5,64.4c-0.2-1.2-0.1-2.3,0.1-3.3s0.6-1.9,1.1-2.8c0.5-0.8,1-1.6,1.6-2.3s1.2-1.4,1.8-2.1
			c0.6-0.7,1-1.4,1.4-2c0.4-0.7,0.6-1.4,0.6-2.2c0-1.2-0.4-2.2-1.1-2.9c-0.7-0.7-1.7-1.1-3-1.1c-1,0-2,0.2-2.8,0.7
			c-0.8,0.5-1.6,1.1-2.3,1.9l-3.2-3c1.1-1.3,2.4-2.3,3.9-3.1c1.5-0.8,3.2-1.2,5.1-1.2c1.3,0,2.5,0.2,3.6,0.5c1.1,0.4,2,0.9,2.8,1.6
			s1.4,1.6,1.9,2.6c0.5,1,0.7,2.2,0.7,3.6c0,1.1-0.2,2-0.6,2.9c-0.4,0.8-0.9,1.7-1.4,2.4c-0.6,0.8-1.2,1.5-1.8,2.2
			c-0.6,0.7-1.2,1.4-1.8,2.2s-0.9,1.6-1.2,2.4c-0.3,0.9-0.4,1.8-0.3,2.9H82.5z M85.1,75.8c-1.1,0-2-0.4-2.7-1.1s-1-1.7-1-2.8
			c0-1.1,0.3-2.1,1-2.8S84,68,85.1,68c1.1,0,2,0.4,2.7,1.1c0.7,0.7,1.1,1.7,1.1,2.8c0,1.1-0.4,2.1-1.1,2.8
			C87,75.4,86.1,75.8,85.1,75.8z"/>
	</g>
	<g>
		<path class="st9" d="M113.2,115.4v-4.9h7.4V88.8h-6.1V85c1.7-0.3,3.1-0.7,4.3-1.1c1.2-0.4,2.3-1,3.4-1.6h4.5v28.2h6.5v4.9H113.2z"
			/>
		<path class="st9" d="M139.8,115.4V78.7h6v9.5l-0.2,4.9c1.1-1,2.3-1.9,3.6-2.7c1.3-0.8,2.8-1.2,4.6-1.2c2.7,0,4.7,0.9,6,2.6
			c1.2,1.8,1.9,4.3,1.9,7.5v16h-6v-15.2c0-2.1-0.3-3.6-0.9-4.5c-0.6-0.9-1.6-1.3-3.1-1.3c-1.1,0-2.1,0.3-2.9,0.8
			c-0.8,0.5-1.8,1.3-2.9,2.4v17.8H139.8z"/>
	</g>
</g>
</svg>
