<?xml version="1.0" encoding="utf-8"?>
<!-- Generator: Adobe Illustrator 24.3.0, SVG Export Plug-In . SVG Version: 6.00 Build 0)  -->
<svg version="1.1" id="Calque_1" xmlns="http://www.w3.org/2000/svg" xmlns:xlink="http://www.w3.org/1999/xlink" x="0px" y="0px"
	 viewBox="0 0 189.1 151.5" style="enable-background:new 0 0 189.1 151.5;" xml:space="preserve">
<style type="text/css">
	.st0{fill:#534F4D;}
	.st1{fill:#FFE600;}
	.st2{fill:none;stroke:#534F4D;stroke-width:2;stroke-linecap:round;stroke-miterlimit:10;}
</style>
<g>
	<path class="st0" d="M57.8,117.7c0,1,0.3,1.9,0.9,2.8c0.6,0.9,1.4,1.5,2.5,1.6c0.1,0,0.3,0,0.4,0.1c0.2,0.1,0.4,0.1,0.5,0.1
		c0.1,0,0.3,0,0.4,0c2.4-0.2,3.8-1.3,4.4-3.3l1.6-5.8c0.3-1.2,0.2-2.4-0.5-3.5c-0.7-1.1-1.6-1.9-2.9-2.2c-1.2-0.3-2.4-0.2-3.5,0.4
		c-1.1,0.7-1.9,1.6-2.2,2.9l-1.4,5.5C57.9,117.2,57.8,117.6,57.8,117.7z"/>
	<path class="st0" d="M65.1,91.5c0,0.8,0.3,1.6,0.8,2.5c0.5,0.8,1.4,1.4,2.5,1.9c1.2,0.4,2.4,0.3,3.5-0.3c1.1-0.6,1.8-1.6,2.2-2.9
		l1.6-5.7c0.3-1.4,0.2-2.6-0.4-3.7c-0.7-1.1-1.6-1.8-2.9-2c-1.2-0.4-2.4-0.3-3.5,0.4s-1.9,1.6-2.3,2.9l-1.4,5.6c0,0.1,0,0.3-0.1,0.4
		c-0.1,0.2-0.1,0.4-0.1,0.5C65.1,91.2,65.1,91.4,65.1,91.5z"/>
	<path class="st0" d="M80.6,100.4c0,1,0.3,2,0.9,2.8c0.6,0.9,1.4,1.5,2.6,1.8c0.9,0.2,1.4,0.3,1.5,0.3c2.1,0,3.6-1.1,4.2-3.3
		l1.3-5.8c0.4-1.2,0.3-2.4-0.3-3.5c-0.6-1.1-1.5-1.9-2.7-2.2c-1.4-0.3-2.6-0.2-3.7,0.5c-1.2,0.7-1.8,1.6-2.1,2.9l-1.5,5.4
		C80.7,99.6,80.6,100,80.6,100.4z"/>
	<path class="st0" d="M88,74.4c0,0.9,0.3,1.8,0.9,2.6c0.6,0.8,1.5,1.5,2.7,1.9C92.5,78.9,93,79,93,79c0.7,0,1.3-0.2,2.1-0.4
		c1-0.5,1.8-1.5,2.1-2.8l1.6-5.7c0.3-1.2,0.2-2.4-0.5-3.5c-0.7-1.1-1.6-1.9-2.9-2.2c-1.3-0.4-2.4-0.3-3.5,0.4
		c-1.1,0.7-1.8,1.6-2.2,2.9l-1.5,5.6C88.1,73.7,88,74.1,88,74.4z"/>
	<g>
		<path class="st1" d="M137.6,63.5c6.5-6.7,10.4-15.9,10.4-26C148,16.8,131.2,0,110.5,0C97.5,0,86.1,6.6,79.4,16.5L92,24.7l9,10.7
			l2.4,11l13.1,1.8l12.1,5.1L137.6,63.5z"/>
		<g>
			<g>
				<path class="st0" d="M135.6,51.4c-7-6.7-15.1-10.1-24.5-10.1h-2.2c-2.1-8.2-6-15-11.8-20.6l-10-6.5c-5.8-3.1-12.1-4.6-19-4.6
					c-10,0-18.8,3.1-26.5,9.2c-7.7,6.1-12.6,14.1-14.8,23.7C19,44.2,12.6,48.2,7.5,54.6C2.5,60.9,0,68,0,76.1C0,83.8,2.3,90.7,7,97
					c4.7,6.2,10.7,10.4,18.1,12.6l-4.6,11.7c-0.3,1,0,1.5,1,1.5h14.9l-8,28.7h2l28.7-38.6c0.3-0.3,0.3-0.6,0.1-1
					c-0.2-0.4-0.6-0.5-1.1-0.5H42.9l17.4-32.8c0.5-1,0.2-1.5-0.9-1.5H38.5c-0.6,0-1.1,0.4-1.3,1l-7.8,20.6c-5-1.3-9.1-4-12.5-8.2
					c-3.3-4.2-5-8.9-5-14.2c0-5.9,2-11,6-15.4c4-4.4,8.9-6.8,14.8-7.4l3.7-0.5c0.9,0,1.4-0.4,1.4-1.2l0.5-3.7
					c0.8-7.7,3.9-14.1,9.6-19.1c5.7-5.1,12.4-7.7,20.1-7.7c7.7,0,14.4,2.5,20.1,7.7c5.7,5.1,9,11.5,9.8,19.1l0.5,4.1
					c0,0.8,0.4,1.2,1.3,1.2h11.4c6.4,0,11.8,2.2,16.4,6.7c4.5,4.4,6.8,9.8,6.8,16c0,6-2.1,11.2-6.3,15.7c-4.2,4.4-9.3,6.8-15.5,7.3
					c-0.8,0-1.3,0.4-1.3,1.3v9.7c0,0.8,0.4,1.2,1.3,1.2c9.3-0.3,17.3-3.9,23.8-10.7c6.5-6.8,9.8-14.9,9.8-24.4c0-5.1-1-9.8-2.9-14.1
					L135.6,51.4z"/>
				<path class="st0" d="M135.6,51.4c0,0,4.3,3.7,7.4,10.7"/>
			</g>
			<path class="st0" d="M87.1,14.2c0,0,5.2,2.6,10,6.5"/>
		</g>
	</g>
</g>
<path class="st0" d="M139.2,121.1c0-4.5,1.1-8.7,3.4-12.5c2.2-3.8,5.3-6.9,9.1-9.1c3.8-2.2,8-3.3,12.5-3.3c3.4,0,6.6,0.7,9.7,2
	c3.1,1.3,5.7,3.1,8,5.3c2.2,2.2,4,4.9,5.3,8c1.3,3.1,2,6.3,2,9.7c0,3.4-0.7,6.6-2,9.7c-1.3,3.1-3.1,5.7-5.3,8c-2.2,2.2-4.9,4-8,5.3
	c-3.1,1.3-6.3,2-9.7,2s-6.6-0.7-9.7-2c-3.1-1.3-5.7-3.1-8-5.3s-4-4.9-5.3-7.9C139.8,127.8,139.2,124.5,139.2,121.1z M144.7,121.1
	c0,5.3,1.9,9.8,5.7,13.7c3.8,3.8,8.4,5.7,13.7,5.7c3.5,0,6.8-0.9,9.7-2.6c3-1.8,5.4-4.1,7.1-7.1c1.8-3,2.6-6.2,2.6-9.7
	c0-3.5-0.9-6.8-2.6-9.7c-1.8-3-4.1-5.4-7.1-7.1c-3-1.8-6.2-2.6-9.7-2.6s-6.8,0.9-9.7,2.6c-3,1.8-5.4,4.1-7.1,7.1
	C145.5,114.4,144.7,117.6,144.7,121.1z M162.3,131.3v-24.9c0-0.5,0.2-1,0.5-1.3c0.4-0.4,0.8-0.5,1.3-0.5c0.5,0,1,0.2,1.3,0.5
	c0.4,0.4,0.5,0.8,0.5,1.3v24.9c0,0.5-0.2,1-0.5,1.3c-0.4,0.4-0.8,0.6-1.3,0.6c-0.5,0-1-0.2-1.3-0.6
	C162.4,132.3,162.3,131.9,162.3,131.3z"/>
<g>
	<g>
		<path class="st2" d="M173.6,110.5c2.6,2.8,4.2,6.5,4.2,10.6c0,4.4-1.8,8.3-4.7,11.2"/>
		<g>
			<path class="st0" d="M170.2,134.5c0.9-1.6,1.9-3.7,2.3-5.4l1,2.9l2.6,1.6C174.2,133.4,171.9,133.9,170.2,134.5z"/>
		</g>
	</g>
</g>
</svg>
