<?xml version="1.0" encoding="utf-8"?>
<!-- Generator: Adobe Illustrator 24.3.0, SVG Export Plug-In . SVG Version: 6.00 Build 0)  -->
<!DOCTYPE svg PUBLIC "-//W3C//DTD SVG 1.1//EN" "http://www.w3.org/Graphics/SVG/1.1/DTD/svg11.dtd" [
	<!ENTITY ns_flows "http://ns.adobe.com/Flows/1.0/">
	<!ENTITY ns_extend "http://ns.adobe.com/Extensibility/1.0/">
	<!ENTITY ns_ai "http://ns.adobe.com/AdobeIllustrator/10.0/">
	<!ENTITY ns_graphs "http://ns.adobe.com/Graphs/1.0/">
	<!ENTITY ns_vars "http://ns.adobe.com/Variables/1.0/">
	<!ENTITY ns_imrep "http://ns.adobe.com/ImageReplacement/1.0/">
	<!ENTITY ns_sfw "http://ns.adobe.com/SaveForWeb/1.0/">
	<!ENTITY ns_custom "http://ns.adobe.com/GenericCustomNamespace/1.0/">
	<!ENTITY ns_adobe_xpath "http://ns.adobe.com/XPath/1.0/">
]>
<svg version="1.1" id="Calque_1" xmlns:x="&ns_extend;" xmlns:i="&ns_ai;" xmlns:graph="&ns_graphs;"
	 xmlns="http://www.w3.org/2000/svg" xmlns:xlink="http://www.w3.org/1999/xlink" xmlns:a="http://ns.adobe.com/AdobeSVGViewerExtensions/3.0/"
	 x="0px" y="0px" viewBox="0 0 201.192 158.298" enable-background="new 0 0 201.192 158.298" xml:space="preserve">
<metadata>
	<sfw  xmlns="&ns_sfw;">
		<slices></slices>
		<sliceSourceBounds  bottomLeftOrigin="true" height="147.386" width="197.128" x="199.519" y="-495.193"></sliceSourceBounds>
	</sfw>
</metadata>
<g>
	<g>
		<g>
			<polyline fill="none" stroke="#534F4D" stroke-width="6" stroke-miterlimit="10" points="181.696,142.287 13.586,142.287 
				13.586,23.92 			"/>
			<g>
				<polygon fill="#534F4D" points="173.27,131.178 177.99,142.287 173.27,153.397 199.605,142.287 				"/>
			</g>
			<g>
				<polygon fill="#534F4D" points="24.696,32.346 13.586,27.626 2.477,32.346 13.586,6.011 				"/>
			</g>
		</g>
	</g>
	<path fill="none" stroke="#534F4D" stroke-width="6" stroke-miterlimit="10" d="M194.405,86.122
		c-9.087,23.566-25.446,39.29-44.117,39.29c-20.273,0-37.821-18.537-46.292-45.524S77.977,34.365,57.704,34.365
		c-18.671,0-35.031,15.724-44.117,39.29"/>
	<g>
		<path fill="#534F4D" d="M38.966,110.389c0-3.159,0.743-6.095,2.193-8.846c1.449-2.75,3.494-5.017,6.132-6.839V57.836
			c0-2.973,1.003-5.501,3.048-7.545c2.044-2.044,4.571-3.122,7.545-3.122c3.01,0,5.538,1.041,7.582,3.085
			c2.044,2.081,3.085,4.571,3.085,7.545v36.869c2.639,1.821,4.646,4.125,6.095,6.839s2.156,5.686,2.156,8.846
			c0,3.419-0.855,6.616-2.527,9.515s-3.977,5.203-6.876,6.876c-2.899,1.672-6.058,2.527-9.515,2.527
			c-3.419,0-6.578-0.855-9.477-2.527c-2.899-1.672-5.203-3.977-6.913-6.876C39.784,116.967,38.966,113.808,38.966,110.389z
			 M45.507,110.389c0,3.456,1.226,6.43,3.642,8.883c2.416,2.453,5.352,3.679,8.771,3.679c3.456,0,6.43-1.226,8.92-3.717
			c2.49-2.49,3.754-5.426,3.754-8.808c0-2.304-0.595-4.46-1.784-6.43c-1.189-1.97-2.825-3.494-4.906-4.571l-1.041-0.52
			c-0.372-0.149-0.557-0.52-0.557-1.078V57.836c0-1.189-0.409-2.193-1.264-3.01c-0.855-0.78-1.895-1.189-3.159-1.189
			c-1.189,0-2.23,0.409-3.085,1.189c-0.855,0.78-1.264,1.784-1.264,3.01v39.917c0,0.557-0.186,0.929-0.52,1.078l-1.003,0.52
			c-2.044,1.078-3.642,2.602-4.794,4.571C46.065,105.892,45.507,108.01,45.507,110.389z"/>
		<path fill="#C51718" d="M59.017,82.805V57.424c0-0.223-0.111-0.483-0.372-0.706c-0.26-0.26-0.52-0.372-0.818-0.372
			c-0.334,0-0.595,0.111-0.78,0.297c-0.186,0.223-0.297,0.446-0.297,0.78v25.381"/>
		<path fill="#C51718" d="M56.731,99.091v1.899c-2.267,0.335-4.2,1.375-5.798,3.159c-1.635,1.821-2.416,3.865-2.416,6.244
			c0,2.639,0.892,4.906,2.713,6.764c1.821,1.858,3.977,2.787,6.541,2.787c2.564,0,4.757-0.929,6.653-2.787
			c1.895-1.858,2.825-4.125,2.825-6.727c0-2.341-0.818-4.423-2.416-6.207c-1.598-1.784-3.568-2.862-5.835-3.159v-1.974"/>
		<path fill="#C51718" d="M59.017,101.798V76.417c0-0.223-0.111-0.483-0.372-0.706c-0.26-0.26-0.52-0.372-0.818-0.372
			c-0.334,0-0.595,0.111-0.78,0.297c-0.186,0.223-0.297,0.446-0.297,0.78v25.381"/>
	</g>
	<g>
		<path fill="#38388D" d="M151.589,81.271v-12.51c0-0.223-0.111-0.483-0.372-0.706c-0.26-0.26-0.52-0.372-0.818-0.372
			c-0.334,0-0.595,0.112-0.78,0.297c-0.186,0.223-0.297,0.446-0.297,0.78v12.51"/>
		<path fill="#38388D" d="M149.303,69.13v14.77c-2.267,0.335-4.2,1.375-5.798,3.159c-1.635,1.821-2.416,3.865-2.416,6.244
			c0,2.639,0.892,4.906,2.713,6.764s3.977,2.787,6.541,2.787s4.757-0.929,6.653-2.787s2.825-4.125,2.825-6.727
			c0-2.341-0.818-4.423-2.416-6.207s-3.568-2.862-5.835-3.159V69.13"/>
		<path fill="#534F4D" d="M131.37,93.287c0-3.159,0.743-6.095,2.193-8.846c1.449-2.75,3.494-5.017,6.132-6.839V40.733
			c0-2.973,1.003-5.501,3.048-7.545s4.571-3.122,7.545-3.122c3.01,0,5.538,1.041,7.582,3.085c2.044,2.081,3.085,4.571,3.085,7.545
			v36.869c2.639,1.821,4.646,4.125,6.095,6.839c1.449,2.713,2.156,5.686,2.156,8.846c0,3.419-0.855,6.616-2.527,9.515
			c-1.672,2.899-3.977,5.203-6.876,6.876c-2.899,1.672-6.058,2.527-9.515,2.527c-3.419,0-6.578-0.855-9.477-2.527
			s-5.203-3.977-6.913-6.876C132.188,99.865,131.37,96.706,131.37,93.287z M137.912,93.287c0,3.456,1.226,6.43,3.642,8.883
			c2.416,2.453,5.352,3.679,8.771,3.679c3.456,0,6.43-1.226,8.92-3.717c2.49-2.49,3.754-5.426,3.754-8.808
			c0-2.304-0.595-4.46-1.784-6.43c-1.189-1.97-2.825-3.494-4.906-4.571l-1.041-0.52c-0.372-0.149-0.557-0.52-0.557-1.078V40.733
			c0-1.189-0.409-2.193-1.264-3.01c-0.855-0.78-1.895-1.189-3.159-1.189c-1.189,0-2.23,0.409-3.085,1.189
			c-0.855,0.78-1.264,1.784-1.264,3.01V80.65c0,0.557-0.186,0.929-0.52,1.078l-1.003,0.52c-2.044,1.078-3.642,2.602-4.794,4.571
			C138.469,88.789,137.912,90.908,137.912,93.287z"/>
	</g>
</g>
</svg>
