<?xml version="1.0" encoding="utf-8"?>
<!-- Generator: Adobe Illustrator 24.3.0, SVG Export Plug-In . SVG Version: 6.00 Build 0)  -->
<svg version="1.1" id="Calque_1" xmlns="http://www.w3.org/2000/svg" xmlns:xlink="http://www.w3.org/1999/xlink" x="0px" y="0px"
	 viewBox="0 0 172.5 129.3" style="enable-background:new 0 0 172.5 129.3;" xml:space="preserve">
<style type="text/css">
	.st0{fill:none;stroke:#534F4D;stroke-width:6;stroke-miterlimit:10;}
	.st1{fill:#534F4D;}
	.st2{fill:#C51718;}
	.st3{fill:#38388D;}
</style>
<g>
	<g>
		<polyline class="st0" points="154.6,118.2 11.1,118.2 11.1,17.9 		"/>
		<g>
			<polygon class="st1" points="146.1,107.1 150.9,118.2 146.1,129.3 172.5,118.2 			"/>
		</g>
		<g>
			<polygon class="st1" points="22.2,26.3 11.1,21.6 0,26.3 11.1,0 			"/>
		</g>
	</g>
</g>
<path class="st0" d="M168,69.5c-7.9,20.4-22.1,34.1-38.3,34.1c-17.6,0-32.8-16.1-40.2-39.5S67,24.6,49.4,24.6
	c-16.2,0-30.4,13.6-38.3,34.1"/>
<g>
	<path class="st1" d="M33.1,90.5c0-2.7,0.6-5.3,1.9-7.7s3-4.4,5.3-5.9V45c0-2.6,0.9-4.8,2.6-6.5c1.8-1.8,4-2.7,6.5-2.7
		c2.6,0,4.8,0.9,6.6,2.7c1.8,1.8,2.7,4,2.7,6.5v32c2.3,1.6,4,3.6,5.3,5.9c1.3,2.4,1.9,4.9,1.9,7.7c0,3-0.7,5.7-2.2,8.3s-3.4,4.5-6,6
		s-5.3,2.2-8.3,2.2c-3,0-5.7-0.7-8.2-2.2s-4.5-3.4-6-6S33.1,93.5,33.1,90.5z M38.8,90.5c0,3,1.1,5.6,3.2,7.7s4.6,3.2,7.6,3.2
		c3,0,5.6-1.1,7.7-3.2c2.2-2.2,3.3-4.7,3.3-7.6c0-2-0.5-3.9-1.5-5.6c-1-1.7-2.5-3-4.3-4l-0.9-0.5c-0.3-0.1-0.5-0.5-0.5-0.9V45
		c0-1-0.4-1.9-1.1-2.6c-0.7-0.7-1.6-1-2.7-1c-1,0-1.9,0.4-2.7,1c-0.7,0.7-1.1,1.5-1.1,2.6v34.6c0,0.5-0.2,0.8-0.5,0.9L44.4,81
		c-1.8,0.9-3.2,2.3-4.2,4S38.8,88.5,38.8,90.5z"/>
	<path class="st2" d="M50.5,66.6v-22c0-0.2-0.1-0.4-0.3-0.6c-0.2-0.2-0.5-0.3-0.7-0.3c-0.3,0-0.5,0.1-0.7,0.3
		c-0.2,0.2-0.3,0.4-0.3,0.7v22"/>
	<path class="st2" d="M48.5,80.7v1.6c-2,0.3-3.6,1.2-5,2.7c-1.4,1.6-2.1,3.4-2.1,5.4c0,2.3,0.8,4.3,2.4,5.9c1.6,1.6,3.4,2.4,5.7,2.4
		c2.2,0,4.1-0.8,5.8-2.4c1.6-1.6,2.5-3.6,2.5-5.8c0-2-0.7-3.8-2.1-5.4c-1.4-1.5-3.1-2.5-5.1-2.7v-1.7"/>
	<path class="st2" d="M50.5,83.1v-22c0-0.2-0.1-0.4-0.3-0.6c-0.2-0.2-0.5-0.3-0.7-0.3c-0.3,0-0.5,0.1-0.7,0.3
		c-0.2,0.2-0.3,0.4-0.3,0.7v22"/>
</g>
<g>
	<path class="st3" d="M130.8,65.3V54.4c0-0.2-0.1-0.4-0.3-0.6c-0.2-0.2-0.5-0.3-0.7-0.3c-0.3,0-0.5,0.1-0.7,0.3
		c-0.2,0.2-0.3,0.4-0.3,0.7v10.9"/>
	<path class="st3" d="M128.8,54.8v12.8c-2,0.3-3.6,1.2-5,2.7c-1.4,1.6-2.1,3.4-2.1,5.4c0,2.3,0.8,4.3,2.4,5.9s3.4,2.4,5.7,2.4
		c2.2,0,4.1-0.8,5.8-2.4c1.6-1.6,2.5-3.6,2.5-5.8c0-2-0.7-3.8-2.1-5.4c-1.4-1.5-3.1-2.5-5.1-2.7V54.8"/>
	<path class="st1" d="M113.3,75.7c0-2.7,0.6-5.3,1.9-7.7s3-4.4,5.3-5.9v-32c0-2.6,0.9-4.8,2.6-6.5c1.8-1.8,4-2.7,6.5-2.7
		c2.6,0,4.8,0.9,6.6,2.7c1.8,1.8,2.7,4,2.7,6.5v32c2.3,1.6,4,3.6,5.3,5.9s1.9,4.9,1.9,7.7c0,3-0.7,5.7-2.2,8.3s-3.4,4.5-6,6
		c-2.5,1.5-5.3,2.2-8.3,2.2c-3,0-5.7-0.7-8.2-2.2c-2.5-1.5-4.5-3.4-6-6S113.3,78.7,113.3,75.7z M119,75.7c0,3,1.1,5.6,3.2,7.7
		c2.1,2.1,4.6,3.2,7.6,3.2c3,0,5.6-1.1,7.7-3.2c2.2-2.2,3.3-4.7,3.3-7.6c0-2-0.5-3.9-1.5-5.6c-1-1.7-2.5-3-4.3-4l-0.9-0.5
		c-0.3-0.1-0.5-0.5-0.5-0.9V30.1c0-1-0.4-1.9-1.1-2.6c-0.7-0.7-1.6-1-2.7-1c-1,0-1.9,0.4-2.7,1c-0.7,0.7-1.1,1.5-1.1,2.6v34.6
		c0,0.5-0.2,0.8-0.5,0.9l-0.9,0.5c-1.8,0.9-3.2,2.3-4.2,4C119.4,71.8,119,73.6,119,75.7z"/>
</g>
</svg>
