<?xml version="1.0" encoding="utf-8"?>
<!-- Generator: Adobe Illustrator 24.3.0, SVG Export Plug-In . SVG Version: 6.00 Build 0)  -->
<svg version="1.1" id="Calque_1" xmlns="http://www.w3.org/2000/svg" xmlns:xlink="http://www.w3.org/1999/xlink" x="0px" y="0px"
	 viewBox="0 0 130 99.3" style="enable-background:new 0 0 130 99.3;" xml:space="preserve">
<style type="text/css">
	.st0{fill:#8ED0F3;}
	.st1{fill:#FFFFFF;}
	.st2{opacity:0.3;}
	.st3{fill:#2B2523;}
	.st4{fill:#E1E0E0;}
	.st5{fill:#FEDA00;}
	.st6{fill:#EE7402;}
</style>
<g id="averses_x5F_orageuses">
	<path class="st0" d="M61.9,98l9-25.7c0.4-0.6,0.6-0.6,1.2-0.6l1.6,0.4c0.6,0,0.6,0.6,0.6,1l0,0l0,0l-9,25.6c0,0.6-0.6,1-1.2,0.6
		l-1.6-0.4C62.3,98.8,61.9,98.2,61.9,98L61.9,98z"/>
	<path class="st0" d="M84.2,98l9-25.7c0.4-0.6,0.6-0.6,1.2-0.6L96,72c0.6,0,0.6,0.6,0.6,1l0,0l0,0l-9,25.6c0,0.6-0.6,1-1.2,0.6
		l-1.6-0.4C84.6,98.8,84,98.2,84.2,98L84.2,98L84.2,98z"/>
	<path class="st0" d="M41.1,98l9-25.7c0.4-0.6,0.6-0.6,1.2-0.6l1.6,0.4c0.6,0,0.6,0.6,0.6,1l0,0l0,0l-9,25.6
		c-0.4,0.6-0.6,0.6-1.2,0.6l-1.6-0.4C41.5,98.8,40.9,98.2,41.1,98L41.1,98z"/>
	<path class="st0" d="M105.4,98l9-25.7c0.4-0.6,0.6-0.6,1.2-0.6l1.6,0.4c0.6,0,0.6,0.6,0.6,1l0,0l0,0l-9,25.6c0,0.6-0.6,0.6-1.2,0.6
		l-1.6-0.4C105.6,98.8,105.4,98.2,105.4,98L105.4,98z"/>
	<path class="st1" d="M73.1,98l9-25.7c0.4-0.6,0.6-0.6,1.2-0.6l1.6,0.4c0.6,0,0.6,0.6,0.6,1l0,0l0,0l-9,25.6
		c-0.4,0.6-0.6,0.6-1.2,0.6l-1.6-0.4C73.4,98.8,73.1,98.6,73.1,98L73.1,98L73.1,98z"/>
	<path class="st1" d="M95,98l9-25.7c0.4-0.6,0.6-0.6,1.2-0.6l1.6,0.2c0.6,0,0.6,0.6,0.6,1l0,0l0,0l-9,25.7c-0.4,0.6-0.6,0.6-1.2,0.6
		l-1.6-0.4C95,98.8,95,98.2,95,98L95,98L95,98z"/>
	<path class="st1" d="M52.1,98l9-25.7c0.4-0.6,0.6-0.6,1.2-0.6l1.6,0.4c0.6,0,0.6,0.6,0.6,1l0,0l0,0l-9,25.6
		c-0.4,0.6-0.6,0.6-1.2,0.6L53,98.8C52.3,98.8,52.1,98.2,52.1,98L52.1,98z"/>
	<path class="st1" d="M116.2,98l9-25.7c0.4-0.6,0.6-0.6,1.2-0.6l1.6,0.4c0.6,0,0.6,0.6,0.6,1l0,0l0,0l-9,25.6
		c-0.4,0.6-0.6,0.6-1.2,0.6l-1.6-0.4C116.4,98.8,116.2,98.2,116.2,98L116.2,98z"/>
	<g class="st2">
		<path class="st3" d="M113,29.5c-7.6-12.4-24.4-16.5-37.1-8.7c-6.2,4-10.6,10.2-12.1,17.4c5,0.6,9.6,3.4,12.1,7.8L74,47.1
			c-3.8-6.2-10.6-6.8-15.5-6.8c-8,3.2-12.1,12.1-9,20.1c2.4,5.8,8,10,14.2,10h46.7c11.4-0.6,20.1-10.2,19.5-21.7
			C130.1,39.1,122.7,31.1,113,29.5L113,29.5z"/>
		<path class="st3" d="M48.3,18.6c-1.6-8-8.6-14-17-14c-5.2,0-10.2,2.4-13.6,6.6c3.8,0.6,8,2.2,10.2,6.6l-2.2,1
			c-2.4-5.6-10.8-5.6-12.1-5.6C8.6,14.7,5,19.7,5,24.9c0.4,7.2,5.8,12.7,13,12.4h29.7c5.2,0,9.6-4,9.6-9.3
			C57.7,22.9,53.3,18.6,48.3,18.6L48.3,18.6L48.3,18.6z"/>
	</g>
	<path class="st4" d="M108.4,24.8C100.6,12,83.9,8.4,71.5,16.1c-6.6,4-10.8,10.2-12.4,18c5,0.6,9.6,3.4,12.1,7.8l-1.8,1.2
		c-3.8-6.2-10.6-6.8-15.5-6.8c-8,3.2-12.1,12.1-9,20.1c2.4,5.8,8,10,14.2,10h46.7c11.4-0.4,20.4-10,20.1-21.4
		C125.8,34.5,118.3,26.1,108.4,24.8L108.4,24.8z"/>
	<path class="st4" d="M43.3,14c-1.6-8-8.6-14-17-14c-5.2,0-10.2,2.4-13.6,6.8c3.8,0.6,8,2.2,10.2,6.6l-2.2,1
		C18.3,8.7,10,8.7,8.6,8.7C3.8,10.3,0,15.2,0,20.5c0.4,7.2,5.8,12.7,13,12.4h29.7c5.2,0,9.6-4,9.6-9.3C52.9,18,48.7,14,43.3,14
		L43.3,14L43.3,14L43.3,14z"/>
	<polygon class="st5" points="83.3,41.5 97.2,41.5 93,53.3 100.4,53.3 80.8,90.8 85.2,63.2 79,63.2 	"/>
	<polygon class="st6" points="80.2,38.7 94.4,38.7 90.2,50.5 97.6,50.5 77.7,88 82.4,60.4 76.2,60.4 	"/>
</g>
</svg>
