<?xml version="1.0" encoding="utf-8"?>
<!-- Generator: Adobe Illustrator 24.3.0, SVG Export Plug-In . SVG Version: 6.00 Build 0)  -->
<svg version="1.1" id="Calque_1" xmlns="http://www.w3.org/2000/svg" xmlns:xlink="http://www.w3.org/1999/xlink" x="0px" y="0px"
	 viewBox="0 0 130 99.2" style="enable-background:new 0 0 130 99.2;" xml:space="preserve">
<style type="text/css">
	.st0{opacity:0.3;}
	.st1{fill:#2B2523;}
	.st2{fill:#E1E0E0;}
	.st3{fill:#8ED0F3;}
	.st4{fill:#FFFFFF;}
</style>
<g id="averses">
	<g class="st0">
		<path class="st1" d="M112.8,29.2c-7.8-12.5-24.3-16.3-37-8.5c-6.2,4-10.5,10.2-12,17.4c5.1,0.5,9.4,3.3,12,7.6l-2,1.1
			c-3.6-6.2-10.5-6.9-15.4-6.7c-8,3.1-12,12-8.9,20c2.4,6,8,10,14.3,10h46.7c11.4-0.5,20.2-10.3,19.6-21.6
			C129.6,38.9,122.4,30.9,112.8,29.2L112.8,29.2z"/>
		<path class="st1" d="M47.9,18.5c-1.5-8.2-8.5-14-16.9-13.8c-5.3,0-10.3,2.4-13.6,6.5c3.6,0.5,8.2,2.2,10.2,6.5l-2.2,0.9
			c-2.5-5.4-10.9-5.6-12.2-5.6c-5.1,1.8-8.4,6.4-8.5,11.8c0.2,7.1,6,12.7,13.1,12.5l0,0h29.8c5.3,0,9.4-4.2,9.6-9.3
			C57.2,22.7,53,18.5,47.9,18.5L47.9,18.5z"/>
	</g>
	<path class="st2" d="M108,24.7C100.2,12,83.7,8.2,71.2,15.8c-6.4,4-10.9,10.3-12.2,17.6c5.1,0.5,9.4,3.3,12,7.6l-2,1.1
		c-3.6-6.2-10.5-6.9-15.4-6.7c-8,3.1-12,12-8.9,20c2.4,6,8,10,14.3,10h46.7c11.4-0.7,20-10.5,19.4-21.8
		C124.6,34.3,117.5,26.3,108,24.7L108,24.7z"/>
	<path class="st2" d="M43,13.8C41.6,5.6,34.5-0.2,26.1,0c-5.3,0-10.3,2.4-13.6,6.5c3.6,0.5,8.2,2.2,10.2,6.5l-2,0.9
		C18.2,8.5,9.8,8.4,8.5,8.4C3.4,10.2,0.2,14.7,0,20.2c0.2,7.1,6,12.7,13.1,12.5h29.8c5.3,0,9.4-4.2,9.6-9.3
		C52.5,18,48.3,13.8,43,13.8L43,13.8z"/>
	<path class="st3" d="M54.3,82.4l2.4-8.7c0.2-0.9,1.3-1.6,2.2-1.3l0,0l0,0c0.9,0.2,1.6,1.3,1.3,2.2l0,0l-2.5,8.7
		c-0.2,0.9-1.3,1.6-2.2,1.3l0,0l0,0C54.7,84.4,53.9,83.5,54.3,82.4C54.3,82.6,54.3,82.4,54.3,82.4z"/>
	<path class="st3" d="M49.9,97l2.4-8.7c0.2-0.9,1.3-1.6,2.2-1.3l0,0l0,0c0.9,0.2,1.6,1.3,1.3,2.2l0,0l-2.5,8.7
		c-0.2,0.9-1.3,1.5-2.2,1.3l0,0l0,0C50.3,99,49.8,98.1,49.9,97L49.9,97z"/>
	<path class="st3" d="M74.3,82.4l2.5-8.7c0.2-0.9,1.3-1.6,2.2-1.3l0,0l0,0c0.9,0.2,1.6,1.3,1.3,2.2l0,0l-2.4,8.7
		c-0.2,0.9-1.3,1.6-2.2,1.3l0,0l0,0C74.6,84.4,73.9,83.5,74.3,82.4C74.3,82.6,74.3,82.4,74.3,82.4z"/>
	<path class="st3" d="M70.1,97l2.4-8.7c0.2-0.9,1.3-1.6,2.2-1.3l0,0l0,0c0.9,0.2,1.6,1.3,1.3,2.2l0,0l-2.5,8.7
		c-0.2,0.9-1.3,1.5-2.2,1.3l0,0l0,0C70.3,99,69.7,98.1,70.1,97L70.1,97z"/>
	<path class="st3" d="M94.2,82.4l2.5-8.7c0.2-0.9,1.3-1.5,2.2-1.3l0,0l0,0c0.9,0.2,1.5,1.3,1.3,2.2l0,0l-2.4,8.7
		c-0.2,0.9-1.3,1.6-2.2,1.3l0,0l0,0C94.6,84.4,94.1,83.5,94.2,82.4C94.2,82.6,94.2,82.6,94.2,82.4z"/>
	<path class="st3" d="M90.1,97l2.4-8.7c0.2-0.9,1.3-1.6,2.2-1.3l0,0l0,0c0.9,0.2,1.5,1.3,1.3,2.2l0,0l-2.5,8.7
		c-0.2,0.9-1.3,1.5-2.2,1.3l0,0l0,0C90.2,99,89.7,98.1,90.1,97L90.1,97z"/>
	<path class="st3" d="M118.9,72.5L118.9,72.5c0.9,0.4,1.5,1.3,1.3,2.2l0,0l-2.5,8.7c-0.2,0.9-1.3,1.5-2.2,1.3l0,0
		c-0.9-0.2-1.5-1.3-1.3-2.2l0,0l2.5-8.7C116.9,72.8,118,72.3,118.9,72.5L118.9,72.5L118.9,72.5z"/>
	<path class="st3" d="M114.8,87L114.8,87c0.9,0.2,1.6,1.3,1.3,2.2l0,0l0,0l-2.5,8.7c-0.2,0.9-1.3,1.5-2.2,1.3l0,0
		c-0.9-0.2-1.5-1.3-1.3-2.2l0,0l2.5-8.7C112.8,87.3,113.8,86.8,114.8,87L114.8,87L114.8,87z"/>
	<path class="st4" d="M109.9,72.5L109.9,72.5c0.9,0.2,1.5,1.3,1.3,2.2l0,0l0,0l-2.5,8.7c-0.2,0.9-1.3,1.5-2.2,1.3l0,0
		c-0.9-0.2-1.5-1.3-1.3-2.2l0,0l2.5-8.7C107.9,72.8,108.9,72.3,109.9,72.5L109.9,72.5L109.9,72.5z"/>
	<path class="st4" d="M105.7,87L105.7,87c0.9,0.2,1.6,1.3,1.3,2.2l0,0l0,0l-2.5,8.7c-0.2,0.9-1.3,1.5-2.2,1.3l0,0
		c-0.9-0.2-1.5-1.3-1.3-2.2l0,0l2.5-8.7C103.7,87.3,104.8,86.8,105.7,87L105.7,87L105.7,87z"/>
	<path class="st4" d="M85.2,82.4l2.4-8.7c0.2-0.9,1.3-1.5,2.2-1.3l0,0l0,0c0.9,0.2,1.5,1.3,1.3,2.2l0,0l-2.5,8.7
		c-0.2,0.9-1.3,1.5-2.2,1.3l0,0l0,0C85.5,84.4,85,83.5,85.2,82.4L85.2,82.4z"/>
	<path class="st4" d="M81,97l2.4-8.7c0.2-0.9,1.3-1.6,2.2-1.3l0,0l0,0c0.9,0.2,1.6,1.3,1.3,2.2l0,0l-2.5,8.7
		c-0.2,0.9-1.3,1.5-2.2,1.3l0,0l0,0C81.2,99,80.6,98.1,81,97L81,97z"/>
	<path class="st4" d="M65.2,82.4l2.5-8.7c0.2-0.9,1.3-1.6,2.2-1.3l0,0l0,0c0.9,0.2,1.6,1.3,1.3,2.2l0,0l-2.4,8.7
		c-0.2,0.9-1.3,1.6-2.2,1.3l0,0l0,0C65.5,84.4,64.8,83.5,65.2,82.4C65.2,82.6,65.2,82.4,65.2,82.4z"/>
	<path class="st4" d="M60.8,97l2.4-8.7c0.2-0.9,1.3-1.6,2.2-1.3h0.2l0,0c0.9,0.2,1.5,1.3,1.3,2.2l0,0l-2.5,8.7
		c-0.2,0.9-1.3,1.5-2.2,1.3l0,0l0,0C61.4,99.1,60.6,98.1,60.8,97C60.8,97.1,60.8,97,60.8,97z"/>
</g>
</svg>
