<?xml version="1.0" encoding="utf-8"?>
<!-- Generator: Adobe Illustrator 24.3.0, SVG Export Plug-In . SVG Version: 6.00 Build 0)  -->
<svg version="1.1" id="Calque_1" xmlns="http://www.w3.org/2000/svg" xmlns:xlink="http://www.w3.org/1999/xlink" x="0px" y="0px"
	 viewBox="0 0 130 119" style="enable-background:new 0 0 130 119;" xml:space="preserve">
<style type="text/css">
	.st0{opacity:0.18;fill:#4B4851;enable-background:new    ;}
	.st1{fill:#FFFFFF;}
	.st2{opacity:0.18;fill:#686675;enable-background:new    ;}
	.st3{fill:#FEFDF1;}
	.st4{fill:#C7C3C3;}
	.st5{fill:#F9F9FA;}
</style>
<g>
	<circle class="st0" cx="67.8" cy="55.3" r="55.3"/>
	<path class="st1" d="M92.9,62.7c1.2,0,2.1-0.9,2.1-2.1l0,0l0,0v-7.4c0-1.2-0.9-2.1-2.1-2.1c-1.2,0-2.1,0.9-2.1,2.1l0,0v7.4
		C90.6,61.6,91.5,62.7,92.9,62.7C92.7,62.7,92.7,62.7,92.9,62.7L92.9,62.7L92.9,62.7z"/>
	<path class="st1" d="M98.7,56.7c0-1.2-0.9-2.1-2.1-2.1l0,0H89c-1.2,0-2.1,0.9-2.1,2.1s0.9,2.1,2.1,2.1h7.4
		C97.5,59,98.4,58.1,98.7,56.7L98.7,56.7L98.7,56.7z"/>
	<path class="st1" d="M23.3,33.4c1.2,0,2.1-0.9,2.1-2.1l0,0l0,0V24c0-1.2-0.9-2.1-2.1-2.1s-2.1,0.9-2.1,2.1l0,0v7.4
		C21.2,32.5,22.1,33.4,23.3,33.4L23.3,33.4L23.3,33.4L23.3,33.4z"/>
	<path class="st1" d="M29,27.7c0-1.2-0.9-2.1-2.1-2.1l0,0h-7.4c-1.2,0-2.1,0.9-2.1,2.1s0.9,2.1,2.1,2.1H27C28.1,30,29,29,29,27.7
		L29,27.7L29,27.7z"/>
	<path class="st2" d="M65.5,18.4c4.4-0.9,8.8-1.2,13.1-0.7C61.3,29,56.3,52.3,67.8,69.9c6,9.2,15.9,15.4,27,16.8
		C77.5,98,53.9,93.1,42.7,75.9S36,35,53.3,23.7C56.9,21.2,61.1,19.6,65.5,18.4L65.5,18.4z"/>
	<path class="st1" d="M84.2,27.7c1.2,0,2.1-0.9,2.1-2.1l0,0l0,0v-7.4c0-1.2-0.9-2.1-2.1-2.1c-1.2,0-2.1,0.9-2.1,2.1l0,0v7.1
		C81.8,26.7,82.8,27.7,84.2,27.7L84.2,27.7z"/>
	<path class="st1" d="M89.9,21.7c0-1.2-0.9-2.1-2.1-2.1l0,0h-7.4c-1.2,0-2.1,0.9-2.1,2.1s0.9,2.1,2.1,2.1h7.4
		C89,24,89.9,23.1,89.9,21.7L89.9,21.7L89.9,21.7z"/>
	<path class="st3" d="M57.9,19.8c4.1-0.9,8.8-1.2,12.9-0.7C53.5,30.4,48.9,53.5,60.2,70.8c6,9.2,15.9,15.2,26.7,16.6
		c-17.3,11.3-40.3,6.5-51.6-10.6s-6.5-40.3,10.6-51.6C49.6,22.6,53.7,21,57.9,19.8z"/>
	<path class="st4" d="M9,73.3h87.6c2.1,0,3.5,1.6,3.5,3.5v5.5c0,2.1-1.6,3.5-3.5,3.5H9c-2.1,0-3.5-1.6-3.5-3.5v-5.5
		C5.5,74.9,7.1,73.3,9,73.3z"/>
	<path class="st4" d="M16.4,106.5H104c2.1,0,3.5,1.6,3.5,3.5v5.5c0,2.1-1.6,3.5-3.5,3.5H16.4c-2.1,0-3.5-1.6-3.5-3.5V110
		C12.9,108.1,14.5,106.5,16.4,106.5z"/>
	<path class="st4" d="M39,90.1h87.6c2.1,0,3.5,1.6,3.5,3.5v5.5c0,2.1-1.6,3.5-3.5,3.5H39c-2.1,0-3.5-1.6-3.5-3.5v-5.5
		C35.5,91.5,37.1,90.1,39,90.1z"/>
	<path class="st5" d="M3.5,67.8h87.6c2.1,0,3.5,1.6,3.5,3.5v5.5c0,2.1-1.6,3.5-3.5,3.5H3.5c-2.1,0-3.5-1.6-3.5-3.5v-5.5
		C0,69.4,1.6,67.8,3.5,67.8z"/>
	<path class="st5" d="M10.8,101h87.6c2.1,0,3.5,1.6,3.5,3.5v5.5c0,2.1-1.6,3.5-3.5,3.5H10.8c-2.1,0-3.5-1.6-3.5-3.5v-5.5
		C7.4,102.6,9,101,10.8,101z"/>
	<path class="st5" d="M33.4,84.6H121c2.1,0,3.5,1.6,3.5,3.5v5.5c0,2.1-1.6,3.5-3.5,3.5H33.4c-2.1,0-3.5-1.6-3.5-3.5v-5.5
		C30,86,31.6,84.6,33.4,84.6z"/>
</g>
</svg>
