<?xml version="1.0" encoding="utf-8"?>
<!-- Generator: Adobe Illustrator 24.3.0, SVG Export Plug-In . SVG Version: 6.00 Build 0)  -->
<svg version="1.1" id="Calque_1" xmlns="http://www.w3.org/2000/svg" xmlns:xlink="http://www.w3.org/1999/xlink" x="0px" y="0px"
	 viewBox="0 0 130 97.7" style="enable-background:new 0 0 130 97.7;" xml:space="preserve">
<style type="text/css">
	.st0{fill:#C7C3C3;}
	.st1{fill:#F9F9FA;}
	.st2{fill:#CD251B;}
	.st3{fill:#FFFFFF;}
</style>
<g>
	<path class="st0" d="M8.9,4.9h88.2c1.7,0,3.2,1.5,3.2,3.2v4.9c0,1.7-1.5,3.2-3.2,3.2H8.9c-1.7,0-3.2-1.5-3.2-3.2V7.8
		C5.7,6.1,7,4.9,8.9,4.9z"/>
	<path class="st0" d="M16,33.8h88.2c1.7,0,3.2,1.5,3.2,3.2v4.9c0,1.7-1.5,3.2-3.2,3.2H16c-1.7,0-3.2-1.5-3.2-3.2v-4.9
		C13.1,35.3,14.4,33.8,16,33.8z"/>
	<path class="st0" d="M38.6,19.4h88.2c1.7,0,3.2,1.5,3.2,3.2v4.9c0,1.7-1.5,3.2-3.2,3.2H38.6c-1.7,0-3.2-1.5-3.2-3.2v-4.9
		C35.5,20.9,36.9,19.4,38.6,19.4z"/>
	<path class="st1" d="M3.2,0h88.2c1.7,0,3.2,1.5,3.2,3.2v4.6c0,1.7-1.5,3.2-3.2,3.2H3.2C1.5,11,0,9.5,0,7.8V3C0.2,1.3,1.5,0,3.2,0z"
		/>
	<path class="st1" d="M10.6,29.1h88.2c1.7,0,3.2,1.5,3.2,3.2v4.9c0,1.7-1.5,3.2-3.2,3.2H10.6c-1.7,0-3.2-1.5-3.2-3.2v-4.9
		C7.4,30.4,8.9,29.1,10.6,29.1z"/>
	<path class="st1" d="M33.1,14.6h88.2c1.7,0,3.2,1.5,3.2,3.2v4.9c0,1.7-1.5,3.2-3.2,3.2H33.1c-1.7,0-3.2-1.5-3.2-3.2v-4.9
		C30,16,31.2,14.6,33.1,14.6z"/>
	<path class="st0" d="M8.9,50.9h88.2c1.7,0,3.2,1.5,3.2,3.2v4.9c0,1.7-1.5,3.2-3.2,3.2H8.9c-1.7,0-3.2-1.5-3.2-3.2V54
		C5.7,52.4,7,50.9,8.9,50.9z"/>
	<path class="st0" d="M16,80h88.2c1.7,0,3.2,1.5,3.2,3.2V88c0,1.7-1.5,3.2-3.2,3.2H16c-1.7,0-3.2-1.5-3.2-3.2v-4.9
		C13.1,81.3,14.4,80,16,80z"/>
	<path class="st0" d="M38.6,65.4h88.2c1.7,0,3.2,1.5,3.2,3.2v4.9c0,1.7-1.5,3.2-3.2,3.2H38.6c-1.7,0-3.2-1.5-3.2-3.2v-4.9
		C35.5,66.9,36.9,65.4,38.6,65.4z"/>
	<path class="st1" d="M3.2,46h88.2c1.7,0,3.2,1.5,3.2,3.2V54c0,1.7-1.5,3.2-3.2,3.2H3.2C1.5,57.2,0,55.7,0,54v-4.9
		C0.2,47.5,1.5,46,3.2,46z"/>
	<path class="st1" d="M10.6,75.1h88.2c1.7,0,3.2,1.5,3.2,3.2v4.9c0,1.7-1.5,3.2-3.2,3.2H10.6c-1.7,0-3.2-1.5-3.2-3.2v-4.9
		C7.4,76.4,8.9,75.1,10.6,75.1z"/>
	<path class="st1" d="M33.1,60.6h88.2c1.7,0,3.2,1.5,3.2,3.2v4.9c0,1.7-1.5,3.2-3.2,3.2H33.1c-1.7,0-3.2-1.5-3.2-3.2v-4.9
		C30,62.1,31.2,60.6,33.1,60.6z"/>
	<rect x="50.9" y="61.6" class="st2" width="76" height="36.1"/>
	<path class="st3" d="M81.5,92c-2.7,1.1-5.5,1.5-8.4,1.5c-7,0.6-13.1-4.2-13.9-11.2l0,0c0-0.8,0-1.7,0-2.3c0-8,5.7-13.9,14.8-13.9
		c2.3,0,4.6,0.2,6.8,1.1l-0.8,2.7c-1.9-0.8-4-1.3-5.9-1.1c-5.5-0.4-10.6,3.8-11,9.3l0,0c0,0.4,0,1.1,0,1.7c0,7,4.2,11,10.6,11
		c1.7,0,3.2-0.2,4.6-0.6v-8h-5.7v-2.7h8.9L81.5,92z"/>
	<path class="st3" d="M90.3,66.1v27h-3.6v-27H90.3z"/>
	<path class="st3" d="M102.4,93.1l-8.9-27h3.8l4.2,13.3c1.1,3.6,2.1,7,3,10.1l0,0c0.8-3.2,1.9-6.5,3.2-10.1l4.6-13.3h3.8l-9.5,27
		H102.4z"/>
	<path class="st3" d="M115.7,91c0-1.3,0.8-2.3,2.1-2.5h0.2c1.5,0,2.5,1.1,2.5,2.5s-1.1,2.5-2.5,2.5C116.7,93.7,115.7,92.7,115.7,91
		L115.7,91z"/>
</g>
</svg>
