<?xml version="1.0" encoding="utf-8"?>
<!-- Generator: Adobe Illustrator 24.3.0, SVG Export Plug-In . SVG Version: 6.00 Build 0)  -->
<svg version="1.1" id="Calque_1" xmlns="http://www.w3.org/2000/svg" xmlns:xlink="http://www.w3.org/1999/xlink" x="0px" y="0px"
	 viewBox="0 0 130 91.2" style="enable-background:new 0 0 130 91.2;" xml:space="preserve">
<style type="text/css">
	.st0{fill:#C7C3C3;}
	.st1{fill:#F9F9FA;}
</style>
<g>
	<path class="st0" d="M8.9,4.9h88.2c1.7,0,3.2,1.5,3.2,3.2v4.9c0,1.7-1.5,3.2-3.2,3.2H8.9c-1.7,0-3.2-1.5-3.2-3.2V8
		C5.7,6.3,7,4.9,8.9,4.9z"/>
	<path class="st0" d="M16,34h88.2c1.7,0,3.2,1.5,3.2,3.2V42c0,1.7-1.5,3.2-3.2,3.2H16c-1.7,0-3.2-1.5-3.2-3.2v-4.9
		C13.1,35.5,14.4,34,16,34z"/>
	<path class="st0" d="M38.6,19.6h88.2c1.7,0,3.2,1.5,3.2,3.2v4.9c0,1.7-1.5,3.2-3.2,3.2H38.6c-1.7,0-3.2-1.5-3.2-3.2v-4.9
		C35.5,20.9,36.9,19.6,38.6,19.6z"/>
	<path class="st1" d="M3.2,0h88.2c1.7,0,3.2,1.5,3.2,3.2V8c0,1.7-1.5,3.2-3.2,3.2H3.2C1.5,11.2,0,9.7,0,8V3.2C0.2,1.5,1.5,0,3.2,0z"
		/>
	<path class="st1" d="M10.6,29.1h88.2c1.7,0,3.2,1.5,3.2,3.2v4.9c0,1.7-1.5,3.2-3.2,3.2H10.6c-1.7,0-3.2-1.5-3.2-3.2v-4.9
		C7.4,30.6,8.9,29.1,10.6,29.1z"/>
	<path class="st1" d="M33.1,14.8h88.2c1.7,0,3.2,1.5,3.2,3.2v4.9c0,1.7-1.5,3.2-3.2,3.2H33.1c-1.7,0-3.2-1.5-3.2-3.2v-5.1
		C30,16,31.2,14.8,33.1,14.8z"/>
	<path class="st0" d="M8.9,51.1h88.2c1.7,0,3.2,1.5,3.2,3.2v4.9c0,1.7-1.5,3.2-3.2,3.2H8.9c-1.7,0-3.2-1.5-3.2-3.2v-4.9
		C5.7,52.4,7,51.1,8.9,51.1z"/>
	<path class="st0" d="M16,80h88.2c1.7,0,3.2,1.5,3.2,3.2V88c0,1.7-1.5,3.2-3.2,3.2H16c-1.7,0-3.2-1.5-3.2-3.2v-4.9
		C13.1,81.5,14.4,80,16,80z"/>
	<path class="st0" d="M38.6,65.6h88.2c1.7,0,3.2,1.5,3.2,3.2v4.9c0,1.7-1.5,3.2-3.2,3.2H38.6c-1.7,0-3.2-1.5-3.2-3.2v-4.9
		C35.5,67.1,36.9,65.6,38.6,65.6z"/>
	<path class="st1" d="M3.2,46.2h88.2c1.7,0,3.2,1.5,3.2,3.2v4.9c0,1.7-1.5,3.2-3.2,3.2H3.2c-1.7,0-3.2-1.5-3.2-3.2v-4.9
		C0.2,47.5,1.5,46.2,3.2,46.2z"/>
	<path class="st1" d="M10.6,75.1h88.2c1.7,0,3.2,1.5,3.2,3.2v4.9c0,1.7-1.5,3.2-3.2,3.2H10.6c-1.7,0-3.2-1.5-3.2-3.2v-4.9
		C7.4,76.6,8.9,75.1,10.6,75.1z"/>
	<path class="st1" d="M33.1,60.8h88.2c1.7,0,3.2,1.5,3.2,3.2v4.9c0,1.7-1.5,3.2-3.2,3.2H33.1c-1.7,0-3.2-1.5-3.2-3.2V64
		C30,62.3,31.2,60.8,33.1,60.8z"/>
</g>
</svg>
