<?xml version="1.0" encoding="utf-8"?>
<!-- Generator: Adobe Illustrator 24.3.0, SVG Export Plug-In . SVG Version: 6.00 Build 0)  -->
<svg version="1.1" id="Calque_1" xmlns="http://www.w3.org/2000/svg" xmlns:xlink="http://www.w3.org/1999/xlink" x="0px" y="0px"
	 viewBox="0 0 130 111.1" style="enable-background:new 0 0 130 111.1;" xml:space="preserve">
<style type="text/css">
	.st0{opacity:0.51;fill:#F3E957;enable-background:new    ;}
	.st1{fill:#F5B300;stroke:#FFE800;stroke-width:0.5866;stroke-miterlimit:5.8658;}
	.st2{fill:#C7C3C3;}
	.st3{fill:#F9F9FA;}
</style>
<g id="brume">
	<circle class="st0" cx="65" cy="55.3" r="55.3"/>
	<circle class="st1" cx="65" cy="55.3" r="42.2"/>
	<path class="st2" d="M9.1,65.3h87.6c2,0,3.5,1.6,3.5,3.5v5.6c0,2-1.6,3.5-3.5,3.5H9.1c-2,0-3.5-1.6-3.5-3.5v-5.6
		C5.5,66.9,7.1,65.3,9.1,65.3z"/>
	<path class="st2" d="M16.4,98.4H104c2,0,3.5,1.6,3.5,3.5v5.6c0,2-1.6,3.5-3.5,3.5H16.4c-2,0-3.5-1.6-3.5-3.5V102
		C12.9,100,14.5,98.4,16.4,98.4z"/>
	<path class="st2" d="M38.9,82h87.6c2,0,3.5,1.6,3.5,3.5v5.6c0,2-1.6,3.5-3.5,3.5H38.9c-2,0-3.5-1.6-3.5-3.5v-5.6
		C35.4,83.6,37,82,38.9,82z"/>
	<path class="st3" d="M3.5,59.7h87.6c2,0,3.5,1.6,3.5,3.5v5.6c0,2-1.6,3.5-3.5,3.5H3.5c-2,0-3.5-1.6-3.5-3.5v-5.6
		C0,61.3,1.6,59.7,3.5,59.7z"/>
	<path class="st3" d="M10.9,92.9h87.6c2,0,3.5,1.6,3.5,3.5v5.6c0,2-1.6,3.5-3.5,3.5H10.9c-2,0-3.5-1.6-3.5-3.5v-5.6
		C7.3,94.5,8.9,92.9,10.9,92.9z"/>
	<path class="st3" d="M33.4,76.4H121c2,0,3.5,1.6,3.5,3.5v5.6c0,2-1.6,3.5-3.5,3.5H33.4c-2,0-3.5-1.6-3.5-3.5V80
		C29.9,78,31.4,76.4,33.4,76.4z"/>
</g>
</svg>
