<?xml version="1.0" encoding="utf-8"?>
<!-- Generator: Adobe Illustrator 24.3.0, SVG Export Plug-In . SVG Version: 6.00 Build 0)  -->
<svg version="1.1" id="Calque_1" xmlns="http://www.w3.org/2000/svg" xmlns:xlink="http://www.w3.org/1999/xlink" x="0px" y="0px"
	 viewBox="0 0 120.1 97.1" style="enable-background:new 0 0 120.1 97.1;" xml:space="preserve">
<style type="text/css">
	.st0{opacity:0.51;fill:#F3E957;enable-background:new    ;}
	.st1{fill:#F5B300;stroke:#FFE800;stroke-width:0.5866;stroke-miterlimit:5.8658;}
	.st2{opacity:0.9;}
	.st3{fill:#F9F9FA;stroke:#D6E1EF;stroke-width:2;stroke-miterlimit:10;}
</style>
<g>
	<circle class="st0" cx="60" cy="48.6" r="48.6"/>
	<circle class="st1" cx="60" cy="48.6" r="37.1"/>
	<g class="st2">
		<path class="st3" d="M4.2,33h77.1c1.6,0,3.2,1.3,3.2,3.2v4.8c0,1.6-1.3,3.2-3.2,3.2H4.2c-1.6,0-3.2-1.3-3.2-3.2v-4.8
			C1,34.3,2.6,33,4.2,33z"/>
		<path class="st3" d="M38.8,54.9h77.1c1.6,0,3.2,1.3,3.2,3.2v4.8c0,1.6-1.3,3.2-3.2,3.2H38.8c-1.6,0-3.2-1.3-3.2-3.2v-4.8
			C35.6,56.5,36.9,54.9,38.8,54.9z"/>
	</g>
</g>
</svg>
