<?xml version="1.0" encoding="utf-8"?>
<!-- Generator: Adobe Illustrator 24.3.0, SVG Export Plug-In . SVG Version: 6.00 Build 0)  -->
<svg version="1.1" id="Calque_1" xmlns="http://www.w3.org/2000/svg" xmlns:xlink="http://www.w3.org/1999/xlink" x="0px" y="0px"
	 viewBox="0 0 132 91.3" style="enable-background:new 0 0 132 91.3;" xml:space="preserve">
<style type="text/css">
	.st0{opacity:0.51;fill:#F3E957;enable-background:new    ;}
	.st1{fill:#F5B300;stroke:#FFE800;stroke-width:0.5866;stroke-miterlimit:5.8658;}
	.st2{opacity:0.8;fill:#FFFFFF;stroke:#D6E1EF;stroke-width:2;stroke-miterlimit:10;enable-background:new    ;}
</style>
<g id="eclaircies">
	<circle class="st0" cx="66.3" cy="41.9" r="41.9"/>
	<circle class="st1" cx="66.3" cy="41.9" r="31.9"/>
	<path class="st2" d="M113.8,49.1c-7.8-12.8-24.7-16.6-37.2-8.7c-6.9,4.1-11.2,10.9-12.5,18.7c-8.7,0.9-15,8.4-14.1,17.2
		c0.6,7.5,6.9,13.4,14.4,14.1h47.2c11.6-0.9,20-10.6,19.4-22.2C130.1,58.4,123.2,50.6,113.8,49.1z"/>
	<path class="st2" d="M11,25.9c2.8-4.1,7.5-6.6,12.5-6.6c6.9,0,13.1,5,14.4,11.9c4.4,0,8.1,3.4,8.4,7.8c0,4.4-3.4,8.1-7.8,8.4H12.3
		C6.3,47.5,1.3,42.8,1,36.9C0.7,31.2,5.1,26.2,11,25.9L11,25.9z"/>
</g>
</svg>
