<?xml version="1.0" encoding="utf-8"?>
<!-- Generator: Adobe Illustrator 24.3.0, SVG Export Plug-In . SVG Version: 6.00 Build 0)  -->
<svg version="1.1" id="Calque_1" xmlns="http://www.w3.org/2000/svg" xmlns:xlink="http://www.w3.org/1999/xlink" x="0px" y="0px"
	 viewBox="0 0 130 130" style="enable-background:new 0 0 130 130;" xml:space="preserve">
<style type="text/css">
	.st0{opacity:0.18;fill:#4B4851;enable-background:new    ;}
	.st1{opacity:0.18;fill:#686675;enable-background:new    ;}
	.st2{fill:#FEFDF1;}
	.st3{fill:#FFFFFF;}
</style>
<g id="nuit_x5F_claire">
	<circle class="st0" cx="65" cy="65" r="48.6"/>
	<path class="st1" d="M64,31.4c3.8-0.9,7.7-1.1,11.5-0.6c-15.2,9.8-19.5,30-9.7,45.1c5.3,8.2,14,13.6,23.8,14.7
		c-15.3,9.5-35.4,4.9-45-10.4s-4.9-35.4,10.4-45C57.9,33.5,60.9,32.2,64,31.4z"/>
	<path class="st2" d="M53.8,33.7c3.7-0.9,7.6-1.1,11.4-0.7c-15.1,9.8-19.4,30.1-9.5,45.2c5.3,8.1,13.9,13.5,23.6,14.6
		c-15,10-35.3,5.8-45.3-9.2s-5.8-35.3,9.2-45.3c0.3-0.2,0.5-0.3,0.8-0.5C47,36,50.3,34.6,53.8,33.7z"/>
	<path class="st3" d="M86.9,75.1c1,0,1.9-0.8,1.9-1.9v-6.4c0-1.1-0.9-1.9-1.9-1.9c-1.1,0-1.9,0.9-1.9,1.9l0,0v6.4
		c0,1,0.8,1.9,1.9,1.9H86.9z"/>
	<path class="st3" d="M92,70c0-1-0.8-1.9-1.9-1.9h-6.4c-1.1,0-2,0.9-2,2c0,1.1,0.9,2,2,2h6.4c1,0,1.9-0.8,1.9-1.9
		C92,70.2,92,70.2,92,70z"/>
	<path class="st3" d="M25.9,43.4c1,0,1.9-0.8,1.9-1.9v-6.6c0-1.1-0.9-1.9-1.9-1.9s-1.9,0.9-1.9,1.9v6.4c-0.1,1,0.7,1.9,1.7,2
		c0,0,0,0,0,0L25.9,43.4L25.9,43.4z"/>
	<path class="st3" d="M31,38.3c0-1-0.8-1.9-1.9-1.9h-6.5c-1.1,0-1.9,0.9-1.9,1.9c0,1.1,0.9,1.9,1.9,1.9h6.4c1,0,1.9-0.8,1.9-1.9
		L31,38.3L31,38.3z"/>
	<path class="st3" d="M79.3,34.6c1,0,1.9-0.8,1.9-1.9v-6.4c0-1.1-0.9-1.9-1.9-1.9c-1.1,0-1.9,0.9-1.9,1.9v6.4c0,1,0.8,1.9,1.9,1.9
		L79.3,34.6z"/>
	<path class="st3" d="M84.4,29.3c0-1-0.8-1.9-1.9-1.9h-6.5c-1.1,0-1.9,0.9-1.9,1.9s0.9,1.9,1.9,1.9h6.4c1,0,1.9-0.8,1.9-1.9
		L84.4,29.3L84.4,29.3z"/>
</g>
</svg>
