<?xml version="1.0" encoding="utf-8"?>
<!-- Generator: Adobe Illustrator 24.3.0, SVG Export Plug-In . SVG Version: 6.00 Build 0)  -->
<svg version="1.1" id="Calque_1" xmlns="http://www.w3.org/2000/svg" xmlns:xlink="http://www.w3.org/1999/xlink" x="0px" y="0px"
	 viewBox="0 0 130 125.1" style="enable-background:new 0 0 130 125.1;" xml:space="preserve">
<style type="text/css">
	.st0{opacity:0.25;fill:#4B4851;enable-background:new    ;}
	.st1{fill:#FFFFFF;}
	.st2{opacity:0.18;fill:#686675;enable-background:new    ;}
	.st3{fill:#FEFDF1;}
	.st4{fill:#9B9795;}
	.st5{fill:#FEDA00;}
	.st6{fill:#EE7402;}
</style>
<g>
	<circle class="st0" cx="78.2" cy="43.1" r="43.1"/>
	<path class="st1" d="M97.6,48.7c0.9,0,1.7-0.8,1.7-1.7l0,0v-5.6c0.1-0.9-0.6-1.7-1.5-1.8c-0.9-0.1-1.7,0.6-1.8,1.5
		c0,0.1,0,0.2,0,0.4V47C96,48,96.7,48.7,97.6,48.7C97.6,48.7,97.6,48.7,97.6,48.7L97.6,48.7L97.6,48.7z"/>
	<path class="st1" d="M102.2,44.3c0-0.9-0.8-1.7-1.7-1.7h-5.6c-0.9-0.1-1.7,0.6-1.8,1.5c-0.1,0.9,0.6,1.7,1.5,1.8l0,0h6.1
		C101.5,45.8,102.2,45.1,102.2,44.3z"/>
	<path class="st1" d="M43.6,20.6c0.9,0,1.7-0.8,1.7-1.7l0,0v-5.6c0.1-0.9-0.6-1.7-1.5-1.8c-0.9-0.1-1.7,0.6-1.8,1.5l0,0
		c0,0.1,0,0.2,0,0.4v5.6C41.9,19.9,42.7,20.6,43.6,20.6C43.6,20.6,43.6,20.6,43.6,20.6L43.6,20.6L43.6,20.6z"/>
	<path class="st1" d="M48.1,16c0-0.9-0.8-1.7-1.7-1.7h-5.6c-0.9-0.1-1.7,0.6-1.8,1.5c-0.1,0.9,0.6,1.7,1.5,1.8h6.1
		C47.4,17.6,48.1,16.9,48.1,16z"/>
	<path class="st1" d="M90.9,16c0.9,0,1.7-0.8,1.7-1.7l0,0V8.7c0.1-0.9-0.6-1.7-1.5-1.8c-0.9-0.1-1.7,0.6-1.8,1.5l0,0
		c0,0.1,0,0.2,0,0.4v5.6C89.2,15.3,90,16,90.9,16C90.9,16,90.9,16,90.9,16L90.9,16L90.9,16z"/>
	<path class="st1" d="M95.5,11.5c0-0.9-0.8-1.7-1.7-1.7h-5.6c-0.9-0.1-1.7,0.6-1.8,1.5c-0.1,0.9,0.6,1.7,1.5,1.8h6.1
		C94.7,13.1,95.4,12.4,95.5,11.5z"/>
	<path class="st2" d="M78.3,14c3.3-0.8,6.8-1,10.2-0.5C74.9,22.2,71,40.2,79.8,53.8C84.5,61.1,92.3,66,101,67
		c-13.5,8.9-31.7,5.1-40.5-8.5S55.4,26.8,69,17.9c2.8-1.8,5.9-3.2,9.2-4H78.3z"/>
	<path class="st3" d="M70.5,15.3c3.3-0.8,6.7-0.9,10.1-0.5c-13.5,8.6-17.5,26.5-8.9,40c4.7,7.4,12.6,12.3,21.3,13.2
		c-13.6,8.5-31.5,4.3-40-9.3s-4.3-31.5,9.3-40C64.9,17.2,67.6,16,70.5,15.3z"/>
	<path class="st4" d="M112.1,51.8c-8.1-13-25.3-17-38.3-8.8C67.4,47,62.8,53.5,61.3,61c5.2,0.5,9.9,3.4,12.5,7.9l-2.1,1.2
		c-3.8-6.4-11-7.2-15.9-6.9c-8.3,3.2-12.4,12.4-9.3,20.7c2.4,6.2,8.3,10.3,14.9,10.3h48.4c11.8-0.6,20.9-10.7,20.3-22.5
		C129.5,61.8,122.1,53.4,112.1,51.8z"/>
	<path class="st4" d="M44.7,40.6c-1.5-8.4-8.9-14.5-17.5-14.4c-5.5,0-10.7,2.4-14.1,6.7c3.8,0.6,8.5,2.3,10.6,6.9l-2.2,1.1
		C18.9,35.2,10.2,35,8.8,35C3.6,36.8,0.1,41.7,0,47.2c0.2,7.4,6.2,13.2,13.6,13h30.9c5.4,0.1,9.9-4.3,9.9-9.7
		C54.5,45.1,50.1,40.7,44.7,40.6L44.7,40.6z"/>
	<polygon class="st5" points="75.5,73.2 90.5,73.2 86,85.5 93.7,85.5 73,125.1 77.8,96.1 71.1,96.1 	"/>
	<polygon class="st6" points="72.5,70.1 87.5,70.1 83,82.5 90.7,82.5 70,122.2 74.7,93 68.1,93 	"/>
	<polygon class="st5" points="104,73.2 119,73.2 114.5,85.5 122.2,85.5 101.5,125.1 106.2,96.1 99.6,96.1 	"/>
	<polygon class="st6" points="101,70.1 115.9,70.1 111.5,82.5 119.2,82.5 98.5,122.2 103.2,93 96.6,93 	"/>
</g>
</svg>
