<?xml version="1.0" encoding="utf-8"?>
<!-- Generator: Adobe Illustrator 24.3.0, SVG Export Plug-In . SVG Version: 6.00 Build 0)  -->
<svg version="1.1" id="Calque_1" xmlns="http://www.w3.org/2000/svg" xmlns:xlink="http://www.w3.org/1999/xlink" x="0px" y="0px"
	 viewBox="0 0 130 112.6" style="enable-background:new 0 0 130 112.6;" xml:space="preserve">
<style type="text/css">
	.st0{opacity:0.51;fill:#F3E957;enable-background:new    ;}
	.st1{fill:#F5B300;stroke:#FFE800;stroke-width:0.5866;stroke-miterlimit:5.8658;}
	.st2{fill:#9B9795;}
	.st3{fill:#FEDA00;}
	.st4{fill:#EE7402;}
</style>
<g>
	<circle class="st0" cx="69.5" cy="35.7" r="35.7"/>
	<circle class="st1" cx="69.5" cy="35.7" r="27.3"/>
	<path class="st2" d="M111.7,41c-8.1-13-25.2-16.9-38.2-8.8c-6.4,4-11,10.5-12.5,18c5.2,0.5,9.8,3.4,12.5,7.9l-2.1,1.2
		c-3.8-6.4-10.9-7.2-15.9-6.9c-8.3,3-12.6,12.1-9.7,20.4c2.3,6.4,8.4,10.7,15.3,10.6h48.2c11.8-0.3,21-10.2,20.7-21.9
		C129.7,51.1,122,42.5,111.7,41z"/>
	<path class="st2" d="M44.6,29.8c-1.5-8.4-8.9-14.5-17.4-14.3c-5.5,0-10.6,2.4-14.1,6.7c3.8,0.6,8.5,2.3,10.6,6.8l-2.2,1
		c-2.6-5.6-11.3-5.8-12.6-5.8C3.6,25.9,0.1,30.8,0,36.3c0.2,7.3,6.2,13.1,13.5,13h30.8c5.4-0.3,9.5-5,9.1-10.4
		C53.2,34.1,49.4,30.2,44.6,29.8L44.6,29.8z"/>
	<polygon class="st3" points="77.3,62.6 91.7,62.6 87.4,74.5 94.8,74.5 74.9,112.6 79.5,84.6 73.1,84.6 	"/>
	<polygon class="st4" points="74.4,59.7 88.8,59.7 84.5,71.6 91.9,71.6 72,109.7 76.6,81.7 70.2,81.7 	"/>
	<polygon class="st3" points="103.4,62.6 117.9,62.6 113.6,74.5 120.9,74.5 101,112.6 105.6,84.6 99.2,84.6 	"/>
	<polygon class="st4" points="100.6,59.7 115,59.7 110.7,71.6 118.1,71.6 98.2,109.7 102.7,81.7 96.3,81.7 	"/>
</g>
</svg>
