<?xml version="1.0" encoding="utf-8"?>
<!-- Generator: Adobe Illustrator 24.3.0, SVG Export Plug-In . SVG Version: 6.00 Build 0)  -->
<svg version="1.1" id="Calque_1" xmlns="http://www.w3.org/2000/svg" xmlns:xlink="http://www.w3.org/1999/xlink" x="0px" y="0px"
	 viewBox="0 0 130 88.5" style="enable-background:new 0 0 130 88.5;" xml:space="preserve">
<style type="text/css">
	.st0{opacity:0.3;}
	.st1{fill:#2B2523;}
	.st2{fill:#E1E0E0;}
	.st3{fill:#8ED0F3;}
	.st4{fill:#FFFFFF;}
</style>
<g id="pluies_x5F_eparses">
	<g class="st0">
		<path class="st1" d="M112.8,29.4c-7.8-12.5-24.3-16.3-37-8.5c-6.2,4-10.5,10.2-12,17.4c5.1,0.5,9.4,3.3,12,7.6l-2,1.1
			c-3.6-6.2-10.5-6.9-15.4-6.7c-8,3.1-12,12-8.9,19.9c2.4,6,8,10,14.3,10h46.6c11.4-0.5,20.1-10.3,19.6-21.6
			C129.6,39,122.4,31,112.8,29.4L112.8,29.4z"/>
		<path class="st1" d="M48,18.5c-1.5-8.2-8.7-14-16.9-13.8c-5.3,0-10.3,2.4-13.6,6.5c3.6,0.5,8.2,2.2,10.2,6.5l-2.2,0.9
			c-2.5-5.4-10.9-5.6-12.1-5.6c-5.1,1.6-8.5,6.3-8.5,11.8c0.2,7.1,6,12.7,13.1,12.5l0,0h29.7c5.3,0,9.4-4.2,9.6-9.2
			C57.3,22.8,53.1,18.7,48,18.5L48,18.5z"/>
	</g>
	<path class="st2" d="M108,24.7C100.3,12,83.8,8.2,71.2,15.8c-6.3,4-10.9,10.3-12.3,17.6c5.1,0.5,9.4,3.3,12,7.6l-2,1.1
		c-3.6-6.2-10.5-6.9-15.4-6.7c-8,3.1-12,12-8.9,19.9c2.4,6,8,10,14.3,10h46.8c11.4-0.7,19.9-10.5,19.2-21.9
		C124.4,34.3,117.3,26.3,108,24.7z"/>
	<path class="st2" d="M43.1,13.8C41.7,5.6,34.6-0.2,26.3,0C21,0,16,2.4,12.7,6.5c3.6,0.5,8.2,2.2,10.2,6.5L20.7,14
		C18.1,8.5,9.8,8.3,8.5,8.3C3.4,10,0,14.7,0,20.1c0.2,7.1,6,12.7,13.1,12.5l0,0h29.7c5.3,0,9.4-4.2,9.6-9.2
		C52.6,18.1,48.4,13.8,43.1,13.8L43.1,13.8L43.1,13.8L43.1,13.8z"/>
	<path class="st3" d="M62.7,86.8l3.4-11.1c0.2-0.5,0.7-0.9,1.3-0.7l1.5,0.4c0.5,0.2,0.9,0.7,0.7,1.3l-3.4,11.1
		c-0.2,0.5-0.7,0.9-1.3,0.7l-1.5-0.4C62.9,87.9,62.7,87.4,62.7,86.8z"/>
	<path class="st3" d="M81.4,86.8l3.4-11.1c0.2-0.5,0.7-0.9,1.3-0.7l1.5,0.4c0.5,0.2,0.9,0.7,0.7,1.3l-3.4,11.1
		c-0.2,0.5-0.7,0.9-1.3,0.7l-1.5-0.4C81.6,87.9,81.4,87.4,81.4,86.8z"/>
	<path class="st3" d="M44.1,86.8l3.4-11.1c0.2-0.5,0.7-0.9,1.3-0.7l1.5,0.4c0.5,0.2,0.9,0.7,0.7,1.3l-3.4,11.1
		c-0.2,0.5-0.7,0.9-1.3,0.7l-1.5-0.4C44.2,87.9,43.9,87.4,44.1,86.8z"/>
	<path class="st3" d="M99.7,86.8l3.4-11.1c0.2-0.5,0.7-0.9,1.3-0.7l1.5,0.4c0.5,0.2,0.9,0.7,0.7,1.3l-3.4,11.1
		c-0.2,0.5-0.7,0.9-1.3,0.7l-1.6-0.4C99.7,87.9,99.5,87.4,99.7,86.8z"/>
	<path class="st3" d="M118,86.8l3.4-11.1c0.2-0.5,0.7-0.9,1.3-0.7l1.5,0.4c0.5,0.2,0.9,0.7,0.7,1.3l-3.4,11.1
		c-0.2,0.5-0.7,0.9-1.3,0.7l-1.5-0.4C118.2,87.9,117.8,87.4,118,86.8z"/>
	<path class="st4" d="M72.3,86.8l3.4-11.1c0.2-0.5,0.7-0.9,1.3-0.7l1.5,0.4c0.5,0.2,0.9,0.7,0.7,1.3l-3.4,11.1
		c-0.2,0.5-0.7,0.9-1.3,0.7l-1.5-0.4C72.3,87.9,72.2,87.4,72.3,86.8z"/>
	<path class="st4" d="M53.7,86.8l3.4-11.1c0.2-0.5,0.7-0.9,1.3-0.7l1.5,0.4c0.5,0.2,0.9,0.7,0.7,1.3l-3.4,11.1
		c-0.2,0.5-0.7,0.9-1.3,0.7l-1.5-0.4C53.8,87.9,53.7,87.2,53.7,86.8z"/>
	<path class="st4" d="M109.5,86.8l3.3-11.1c0.2-0.5,0.7-0.9,1.3-0.7l1.5,0.4c0.5,0.2,0.9,0.7,0.7,1.3l-3.3,11.1
		c-0.2,0.5-0.7,0.9-1.3,0.7l-1.5-0.4C109.5,87.9,109.3,87.4,109.5,86.8z"/>
	<path class="st4" d="M90.8,86.8l3.3-11.1c0.2-0.5,0.7-0.9,1.3-0.7l1.5,0.4c0.5,0.2,0.9,0.7,0.7,1.3l-3.3,11.1
		c-0.2,0.5-0.7,0.9-1.3,0.7l-1.5-0.4C91,87.9,90.6,87.4,90.8,86.8z"/>
</g>
</svg>
