<?xml version="1.0" encoding="utf-8"?>
<!-- Generator: Adobe Illustrator 24.3.0, SVG Export Plug-In . SVG Version: 6.00 Build 0)  -->
<svg version="1.1" id="Calque_1" xmlns="http://www.w3.org/2000/svg" xmlns:xlink="http://www.w3.org/1999/xlink" x="0px" y="0px"
	 viewBox="0 0 130 98.9" style="enable-background:new 0 0 130 98.9;" xml:space="preserve">
<style type="text/css">
	.st0{fill:#8ED0F3;}
	.st1{fill:#FFFFFF;}
	.st2{opacity:0.3;}
	.st3{fill:#2B2523;}
	.st4{fill:#E1E0E0;}
	.st5{fill:#FEDA00;}
	.st6{fill:#EE7402;}
</style>
<g id="pluies_x5F_orageuses_1_">
	<path class="st0" d="M61.8,97.6L70.7,72c0.2-0.5,0.7-0.7,1.3-0.5l1.5,0.4c0.5,0,0.7,0.5,0.7,0.9l0,0l0,0l-8.9,25.6
		c-0.2,0.5-0.7,0.7-1.3,0.5l-1.5-0.4C62,98.5,61.8,97.9,61.8,97.6L61.8,97.6z"/>
	<path class="st0" d="M84,97.6L92.8,72c0.2-0.5,0.7-0.7,1.3-0.5l1.5,0.4c0.5,0,0.7,0.5,0.7,0.9l0,0l0,0l-8.9,25.6
		c-0.2,0.5-0.7,0.7-1.3,0.5l-1.5-0.4C84.1,98.5,83.8,97.9,84,97.6L84,97.6L84,97.6z"/>
	<path class="st0" d="M41,97.6L49.9,72c0.2-0.5,0.7-0.7,1.3-0.5l1.5,0.4c0.5,0,0.7,0.5,0.7,0.9l0,0l0,0l-8.9,25.6
		c-0.2,0.5-0.7,0.7-1.3,0.5l-1.5-0.4C41.2,98.5,40.8,97.9,41,97.6L41,97.6z"/>
	<path class="st0" d="M105,97.6l8.9-25.6c0.2-0.5,0.7-0.7,1.3-0.5l1.5,0.4c0.5,0,0.7,0.5,0.7,0.9l0,0l0,0l-8.9,25.4
		c-0.2,0.5-0.7,0.7-1.3,0.5l-1.5-0.2C105.2,98.5,105,97.9,105,97.6L105,97.6z"/>
	<path class="st1" d="M72.7,97.6L81.8,72c0.2-0.5,0.7-0.7,1.3-0.5l1.5,0.4c0.5,0,0.7,0.5,0.7,0.9l0,0l0,0l-8.9,25.6
		c-0.2,0.5-0.7,0.7-1.3,0.5l-1.5-0.4C73.1,98.5,72.7,98.1,72.7,97.6C72.7,97.6,72.7,97.4,72.7,97.6L72.7,97.6z"/>
	<path class="st1" d="M94.8,97.6l8.9-25.6c0.2-0.5,0.7-0.7,1.3-0.5l1.5,0.4c0.5,0,0.7,0.5,0.7,0.9l0,0l0,0l-9.1,25.6
		c-0.2,0.5-0.7,0.7-1.3,0.5l-1.5-0.4C94.8,98.5,94.6,97.9,94.8,97.6L94.8,97.6L94.8,97.6z"/>
	<path class="st1" d="M51.9,97.6L60.7,72c0.2-0.5,0.7-0.7,1.3-0.5l1.5,0.4c0.5,0,0.7,0.5,0.7,0.9l0,0l0,0l-8.9,25.6
		c-0.2,0.5-0.7,0.7-1.3,0.5l-1.5-0.4C52,98.5,51.7,97.9,51.9,97.6L51.9,97.6z"/>
	<path class="st1" d="M115.9,97.6l8.9-25.6c0.2-0.5,0.7-0.7,1.3-0.5l1.5,0.4c0.5,0,0.7,0.5,0.7,0.9l0,0l0,0l-8.9,25.6
		c-0.2,0.5-0.7,0.7-1.3,0.5l-1.5-0.4C116,98.5,115.9,97.9,115.9,97.6L115.9,97.6z"/>
	<g class="st2">
		<path class="st3" d="M112.8,29.2c-7.8-12.5-24.3-16.3-37-8.5c-6.2,4-10.5,10.2-12,17.4c5.1,0.5,9.4,3.3,12,7.6l-2,1.1
			c-3.6-6.2-10.5-6.9-15.4-6.7c-8,3.1-12,12-8.9,19.9c2.4,6,8,10,14.3,10h46.6c11.4-0.5,20.1-10.3,19.6-21.6
			C129.6,38.8,122.4,30.8,112.8,29.2L112.8,29.2z"/>
		<path class="st3" d="M48.1,18.5c-1.5-8.2-8.7-14-16.9-13.8c-5.3,0-10.3,2.4-13.6,6.5c3.6,0.5,8.2,2.2,10.2,6.5l-2.2,0.9
			c-2.5-5.4-10.9-5.6-12.1-5.6c-5.1,1.6-8.5,6.3-8.5,11.8c0.2,7.1,6,12.7,13.1,12.5h29.7c5.3,0,9.4-4.2,9.6-9.2
			C57.3,22.9,53.1,18.5,48.1,18.5L48.1,18.5L48.1,18.5z"/>
	</g>
	<path class="st4" d="M108.1,24.5C100.3,11.8,83.8,8,71.3,15.8c-6.3,4-10.9,10.3-12.3,17.8c5.1,0.5,9.4,3.3,12,7.6l-2,1.1
		c-3.6-6.2-10.5-6.9-15.4-6.7c-8,3.1-12,12-8.9,19.9c2.4,6,8,10,14.3,10h46.8c11.4-0.4,20.3-10,19.9-21.4
		C125.3,34.3,117.9,25.9,108.1,24.5L108.1,24.5z"/>
	<path class="st4" d="M43.2,13.8C41.7,5.6,34.6-0.2,26.3,0C21,0,16,2.4,12.7,6.5c3.6,0.5,8.2,2.2,10.2,6.5L20.7,14
		C18.1,8.5,9.8,8.3,8.5,8.3C3.4,10,0,14.7,0,20.1c0.2,7.1,6,12.7,13.1,12.5h29.7c5.3,0,9.4-4.2,9.6-9.2C52.6,18,48.4,13.8,43.2,13.8
		L43.2,13.8L43.2,13.8L43.2,13.8z"/>
	<polygon class="st5" points="82.9,41.3 96.8,41.3 92.7,53.1 99.9,53.1 80.5,90.3 84.9,62.9 78.7,62.9 	"/>
	<polygon class="st6" points="80,38.6 94.1,38.6 89.9,50.2 97.2,50.2 77.6,87.6 82.1,60.2 75.8,60.2 	"/>
</g>
</svg>
