<?xml version="1.0" encoding="utf-8"?>
<!-- Generator: Adobe Illustrator 24.3.0, SVG Export Plug-In . SVG Version: 6.00 Build 0)  -->
<svg version="1.1" id="Calque_1" xmlns="http://www.w3.org/2000/svg" xmlns:xlink="http://www.w3.org/1999/xlink" x="0px" y="0px"
	 viewBox="0 0 130 110.4" style="enable-background:new 0 0 130 110.4;" xml:space="preserve">
<style type="text/css">
	.st0{opacity:0.51;fill:#F3E957;enable-background:new    ;}
	.st1{fill:#F5B300;stroke:#FFE800;stroke-width:0.5869;stroke-miterlimit:5.8685;}
	.st2{opacity:0.3;}
	.st3{fill:#2B2523;}
	.st4{fill:#E1E0E0;}
	.st5{fill:#8ED0F3;}
	.st6{fill:#FFFFFF;}
</style>
<g id="rares_x5F_averses">
	<circle class="st0" cx="93.6" cy="36.4" r="36.4"/>
	<circle class="st1" cx="93.6" cy="36.4" r="27.8"/>
	<g class="st2">
		<path class="st3" d="M112.2,53.9c-7.8-12.6-24.2-16.4-36.6-8.8c-6.3,4-10.8,10.3-12.3,17.5c5,0.5,9.6,3.2,12.1,7.8l-2,1.1
			c-3.6-6.1-10.5-6.9-15.3-6.7c-7.9,3.1-11.9,11.9-8.8,19.8c2.3,6,7.9,9.9,14.2,9.9h46.3c11.4-0.5,20-10.1,19.5-21.5
			C128.8,63.5,121.6,55.4,112.2,53.9L112.2,53.9z"/>
		<path class="st3" d="M47.6,43.1c-1.4-8.1-8.5-13.9-16.8-13.9c-5.2,0-10.3,2.3-13.5,6.5c3.6,0.5,8.1,2.2,10.1,6.5l-2.2,1.1
			c-2.5-5.4-10.8-5.6-12.1-5.6c-5,1.6-8.5,6.3-8.5,11.7c0.2,7,6,12.6,13,12.4l0,0h29.6c5.2,0,9.6-4.1,9.6-9.2S52.8,43.1,47.6,43.1
			L47.6,43.1L47.6,43.1L47.6,43.1z"/>
	</g>
	<path class="st4" d="M107.3,49.1c-7.8-12.6-24.2-16.4-36.6-8.8c-6.3,4-10.8,10.3-12.3,17.5c5,0.5,9.4,3.2,11.9,7.6l-2,1.4
		c-3.6-6.1-10.5-6.9-15.3-6.7c-7.9,3.1-11.9,11.9-8.8,19.8c2.3,6,7.9,9.9,14.2,9.9H105c11.4-0.5,20-10.3,19.5-21.5
		C124.1,58.6,116.9,50.7,107.3,49.1L107.3,49.1z"/>
	<path class="st4" d="M42.9,38.4c-1.4-8.1-8.5-13.9-16.8-13.9c-5.2,0-10.3,2.3-13.5,6.5c3.6,0.5,8.1,2.2,10.1,6.5l-2.2,1.1
		C18,33.2,9.7,33,8.5,33C3.4,34.6,0,39.3,0,44.7c0.2,7,6,12.6,13,12.4l0,0h29.8c5.2,0,9.4-4.1,9.6-9.2
		C52.3,42.6,48.2,38.4,42.9,38.4L42.9,38.4L42.9,38.4z"/>
	<path class="st5" d="M67.5,108.6l3.4-11c0.2-0.5,0.7-0.9,1.3-0.7l1.4,0.4c0.5,0.2,0.9,0.7,0.7,1.3l-3.4,11
		c-0.2,0.5-0.7,0.9-1.3,0.7l-1.4-0.4C67.6,109.7,67.3,109.1,67.5,108.6z"/>
	<path class="st5" d="M84.9,108.6l3.2-11c0.2-0.5,0.7-0.9,1.3-0.7l1.4,0.5c0.5,0.2,0.9,0.7,0.7,1.3l-3.2,11
		c-0.2,0.5-0.7,0.9-1.3,0.7l-1.6-0.5C84.9,109.7,84.8,109.1,84.9,108.6z"/>
	<path class="st5" d="M48.9,108.6l3.4-11c0.2-0.5,0.7-0.9,1.3-0.7l1.3,0.5c0.5,0.2,0.9,0.7,0.7,1.3l-3.4,11
		c-0.2,0.5-0.7,0.9-1.3,0.7l-1.4-0.4C49.1,109.7,48.7,109.1,48.9,108.6z"/>
	<path class="st5" d="M102.8,108.6l3.2-11c0.2-0.5,0.7-0.9,1.3-0.7l1.6,0.5c0.5,0.2,0.9,0.7,0.7,1.3l-3.2,11
		c-0.2,0.5-0.7,0.9-1.3,0.7l-1.6-0.5C103,109.7,102.6,109.1,102.8,108.6z"/>
	<path class="st5" d="M119,108.6l3.2-11c0.2-0.5,0.7-0.9,1.3-0.7l1.6,0.5c0.5,0.2,0.9,0.7,0.7,1.3l-3.2,11c-0.2,0.5-0.7,0.9-1.3,0.7
		l-1.6-0.5C119.2,109.7,119,109.1,119,108.6z"/>
	<path class="st6" d="M76.1,107.8l3.2-11c0.2-0.5,0.7-0.9,1.3-0.7l1.4,0.4c0.5,0.2,0.9,0.7,0.7,1.3l-3.2,11
		c-0.2,0.5-0.7,0.9-1.3,0.7l-1.4-0.4C76.3,108.9,75.9,108.4,76.1,107.8z"/>
	<path class="st6" d="M94,108.6l3.4-11c0.2-0.5,0.7-0.9,1.3-0.7l1.3,0.5c0.5,0.2,0.9,0.7,0.7,1.3l-3.4,11c-0.2,0.5-0.7,0.9-1.3,0.7
		l-1.4-0.5C94,109.7,93.8,109.1,94,108.6z"/>
	<path class="st6" d="M58.3,108.6l3.4-11c0.2-0.5,0.7-0.9,1.3-0.7l1.4,0.4c0.5,0.2,0.9,0.7,0.7,1.3l-3.4,11
		c-0.2,0.5-0.7,0.9-1.3,0.7l-1.4-0.4C58.4,109.7,58.3,109.1,58.3,108.6z"/>
	<path class="st6" d="M110.9,108.6l3.4-11c0.2-0.5,0.7-0.9,1.3-0.7l1.4,0.4c0.5,0.2,0.9,0.7,0.7,1.3l-3.4,11
		c-0.2,0.5-0.7,0.9-1.3,0.7l-1.4-0.4C111.1,109.7,110.9,109.1,110.9,108.6z"/>
</g>
</svg>
