<?xml version="1.0" encoding="utf-8"?>
<!-- Generator: Adobe Illustrator 24.3.0, SVG Export Plug-In . SVG Version: 6.00 Build 0)  -->
<svg version="1.1" id="Calque_1" xmlns="http://www.w3.org/2000/svg" xmlns:xlink="http://www.w3.org/1999/xlink" x="0px" y="0px"
	 viewBox="0 0 130 97.3" style="enable-background:new 0 0 130 97.3;" xml:space="preserve">
<style type="text/css">
	.st0{fill:#8ED0F3;}
	.st1{fill:#FFFFFF;}
	.st2{fill:#9B9795;}
	.st3{fill:#FEDA00;}
	.st4{fill:#EE7402;}
	.st5{fill:#CD251B;}
</style>
<g>
	<path class="st0" d="M59.9,95.6l8.6-28.5c0.2-0.5,0.7-0.8,1.2-0.6l1.4,0.4c0.5,0.2,0.8,0.7,0.6,1.2l-8.6,28.5
		c-0.2,0.5-0.7,0.8-1.2,0.6l-1.4-0.4C60,96.7,59.7,96.1,59.9,95.6z"/>
	<path class="st0" d="M82.1,95.6l8.6-28.5c0.2-0.5,0.7-0.8,1.2-0.6l1.4,0.4c0.5,0.2,0.8,0.7,0.6,1.2l-8.6,28.5
		c-0.2,0.5-0.7,0.8-1.2,0.6l-1.4-0.4C82.3,96.7,82,96.1,82.1,95.6z"/>
	<path class="st0" d="M39.5,95.5l8.7-28.3c0.2-0.5,0.7-0.8,1.2-0.6l1.4,0.4c0.5,0.2,0.8,0.7,0.6,1.2l-8.7,28.3
		c-0.2,0.5-0.7,0.8-1.2,0.6l-1.4-0.4C39.6,96.6,39.3,96,39.5,95.5z"/>
	<path class="st0" d="M101.7,95.5l8.7-28.3c0.2-0.5,0.7-0.8,1.2-0.6L113,67c0.5,0.2,0.8,0.7,0.6,1.2L105,96.5
		c-0.2,0.5-0.7,0.8-1.2,0.6l-1.4-0.4C101.8,96.6,101.6,96,101.7,95.5z"/>
	<path class="st1" d="M70.5,95.5l8.7-28.3c0.2-0.5,0.7-0.8,1.2-0.6l1.4,0.4c0.5,0.2,0.8,0.7,0.6,1.2l-8.7,28.3
		c-0.2,0.5-0.7,0.8-1.2,0.6l-1.4-0.4C70.6,96.6,70.3,96,70.5,95.5z"/>
	<path class="st1" d="M91.9,95.5l8.7-28.3c0.2-0.5,0.7-0.8,1.2-0.6l1.4,0.4c0.5,0.2,0.8,0.7,0.6,1.2l-8.7,28.3
		c-0.2,0.5-0.7,0.8-1.2,0.6l-1.4-0.4C92,96.6,91.7,96.1,91.9,95.5z"/>
	<path class="st1" d="M69.2,80.3l8.6-28.5c0.2-0.5,0.7-0.8,1.2-0.6l1.4,0.4c0.5,0.2,0.8,0.7,0.6,1.2l-8.6,28.5
		c-0.2,0.5-0.7,0.8-1.2,0.6l-1.4-0.4C69.4,81.3,69.1,80.8,69.2,80.3z"/>
	<path class="st1" d="M112.4,95.5l8.7-28.3c0.2-0.5,0.7-0.8,1.2-0.6l1.4,0.4c0.5,0.2,0.8,0.7,0.6,1.2l-8.7,28.3
		c-0.2,0.5-0.7,0.8-1.2,0.6l-1.4-0.4C112.5,96.6,112.2,96.1,112.4,95.5z"/>
	<path class="st2" d="M104.8,24C97.2,11.7,81.2,8,69,15.5c-6.2,3.8-10.4,10-11.8,17.1c4.9,0.5,9.2,3.2,11.7,7.4l-2,1.1
		c-3.5-6-10.2-6.8-14.9-6.5c-7.7,3-11.6,11.6-8.7,19.4c2.2,5.8,7.8,9.6,13.9,9.7h45.4c11-0.6,19.5-10,19-21
		C121,33.3,114,25.5,104.8,24L104.8,24z"/>
	<path class="st2" d="M41.8,13.4C40.4,5.6,33.5-0.1,25.5,0c-5.1,0-10,2.3-13.2,6.3c3.5,0.6,8,2.1,9.9,6.4l-2.1,1
		C17.7,8.4,9.5,8.2,8.3,8.2C3.4,9.9,0.1,14.4,0,19.6c0.2,6.9,5.9,12.3,12.7,12.1h28.9c5.1,0.1,9.2-4,9.3-9.1
		C51,17.6,47,13.4,41.8,13.4L41.8,13.4L41.8,13.4z"/>
	<polygon class="st3" points="75.4,43.1 89.2,43.1 85.1,54.6 92.2,54.6 73.1,91.1 77.5,64.3 71.3,64.3 	"/>
	<polygon class="st4" points="72.6,40.3 86.5,40.3 82.4,51.8 89.4,51.8 70.3,88.4 74.7,61.5 68.6,61.5 	"/>
	<rect x="100.1" y="54" class="st5" width="29.9" height="29.9"/>
	<path class="st1" d="M123,77.1c-1.9,0.6-4,1-6,1c-2.7,0.2-5.3-0.7-7.3-2.4c-1.7-1.7-2.6-4.1-2.6-6.5c0-6,4.4-9.4,10.3-9.4
		c1.7-0.1,3.4,0.2,5,0.9l-0.9,3.3c-1.3-0.5-2.8-0.8-4.2-0.8c-3.2-0.2-6,2.3-6.2,5.5c-0.2,3.2,2.3,6,5.5,6.2c0,0,0.1,0,0.1,0
		c0.8,0,1.5-0.1,2.2-0.3v-3.6h-2.7v-3.2h6.7V77.1z"/>
</g>
</svg>
