<?xml version="1.0" encoding="utf-8"?>
<!-- Generator: Adobe Illustrator 24.3.0, SVG Export Plug-In . SVG Version: 6.00 Build 0)  -->
<svg version="1.1" id="Calque_1" xmlns="http://www.w3.org/2000/svg" xmlns:xlink="http://www.w3.org/1999/xlink" x="0px" y="0px"
	 viewBox="0 0 130 118.6" style="enable-background:new 0 0 130 118.6;" xml:space="preserve">
<style type="text/css">
	.st0{opacity:0.51;fill:#F3E957;enable-background:new    ;}
	.st1{fill:#F5B300;stroke:#FFE800;stroke-width:0.5866;stroke-miterlimit:5.8658;}
	.st2{fill:#9B9795;}
	.st3{fill:#FEDA00;}
	.st4{fill:#EE7402;}
</style>
<g>
	<circle class="st0" cx="76.4" cy="33.5" r="33.5"/>
	<circle class="st1" cx="76.4" cy="33.5" r="25.5"/>
	<path class="st2" d="M112.1,45.3c-8.1-13-25.3-17-38.3-8.8c-6.5,4.1-11,10.6-12.5,18.1c5.2,0.5,9.8,3.4,12.5,7.9l-2.1,1.2
		c-3.8-6.4-11-7.2-15.9-6.9c-8.3,3.2-12.4,12.4-9.3,20.7c2.4,6.2,8.3,10.3,14.9,10.3h48.4c11.8-0.6,20.9-10.7,20.3-22.5
		c-0.5-10.1-8-18.4-18-20L112.1,45.3z"/>
	<path class="st2" d="M44.7,34c-1.5-8.4-8.9-14.5-17.5-14.4c-5.5,0-10.7,2.4-14.1,6.7c3.8,0.6,8.5,2.3,10.6,6.9l-2.2,1
		c-2.6-5.6-11.3-5.8-12.6-5.8C3.6,30.1,0.1,35,0,40.5c0.2,7.4,6.2,13.2,13.6,13h30.9c5.4,0.1,9.9-4.3,9.9-9.7
		C54.5,38.5,50.1,34,44.7,34L44.7,34z"/>
	<polygon class="st3" points="79.2,67.7 93.9,67.7 89.5,79.8 97,79.8 76.7,118.6 81.4,90.1 74.9,90.1 	"/>
	<polygon class="st4" points="76.2,64.7 90.9,64.7 86.6,76.9 94.1,76.9 73.8,115.7 78.4,87.2 72,87.2 	"/>
</g>
</svg>
