<?xml version="1.0" encoding="utf-8"?>
<!-- Generator: Adobe Illustrator 24.3.0, SVG Export Plug-In . SVG Version: 6.00 Build 0)  -->
<svg version="1.1" id="Calque_1" xmlns="http://www.w3.org/2000/svg" xmlns:xlink="http://www.w3.org/1999/xlink" x="0px" y="0px"
	 viewBox="0 0 130 70.4" style="enable-background:new 0 0 130 70.4;" xml:space="preserve">
<style type="text/css">
	.st0{opacity:0.3;}
	.st1{fill:#2B2523;}
	.st2{fill:#E1E0E0;}
</style>
<g id="tres_x5F_nuageux">
	<g class="st0">
		<path class="st1" d="M112.8,29.4c-7.7-12.6-24.2-16.6-36.9-8.9C69.5,24.5,65.1,31,63.6,38.3c5,0.5,9.5,3.3,12,7.6l-2.1,1.2
			c-3.6-6.2-10.6-7-15.4-6.7c-8,3-12,12-8.9,20c2.3,6,8,9.9,14.4,9.9h46.9c11.4-0.6,20.1-10.4,19.5-21.7
			C129.5,39,122.3,31,112.8,29.4L112.8,29.4z"/>
		<path class="st1" d="M47.9,18.5c-1.5-8.1-8.6-14-16.9-13.9c-5.3,0-10.3,2.4-13.6,6.6c3.6,0.6,8.2,2.2,10.2,6.6l-2.2,1
			c-2.5-5.4-10.9-5.6-12.2-5.6C8.2,15,4.8,19.7,4.7,25c0.1,7.1,6,12.7,13.1,12.6h29.8c5.2,0.1,9.5-4.1,9.6-9.3
			C57.3,23,53.1,18.7,47.9,18.5L47.9,18.5z"/>
	</g>
	<path class="st2" d="M108.1,24.7c-7.9-12.6-24.4-16.4-36.9-8.5c-6.2,3.9-10.6,10.2-12.1,17.4c5,0.5,9.5,3.3,12,7.7l-2.1,1.2
		c-3.6-6.2-10.6-7-15.4-6.7c-8,3-12,11.9-9,19.9c2.3,6,8,10,14.4,10h46.7c11.4-0.5,20.3-10,19.8-21.4
		C125.2,34.4,117.9,26.2,108.1,24.7z"/>
	<path class="st2" d="M43.1,13.9C41.7,5.7,34.5-0.1,26.3,0C21,0,16,2.4,12.6,6.5c3.6,0.6,8.2,2.2,10.2,6.6l-2.2,1
		C18.2,8.6,9.8,8.4,8.5,8.4c-5,1.7-8.5,6.4-8.5,11.7c0.1,7.1,6,12.7,13.1,12.6H43c5.2,0.1,9.5-4.1,9.6-9.3
		C52.6,18.2,48.4,13.9,43.1,13.9L43.1,13.9z"/>
</g>
</svg>
