<?xml version="1.0" encoding="utf-8"?>
<!-- Generator: Adobe Illustrator 24.3.0, SVG Export Plug-In . SVG Version: 6.00 Build 0)  -->
<!DOCTYPE svg PUBLIC "-//W3C//DTD SVG 1.1//EN" "http://www.w3.org/Graphics/SVG/1.1/DTD/svg11.dtd" [
	<!ENTITY ns_flows "http://ns.adobe.com/Flows/1.0/">
	<!ENTITY ns_extend "http://ns.adobe.com/Extensibility/1.0/">
	<!ENTITY ns_ai "http://ns.adobe.com/AdobeIllustrator/10.0/">
	<!ENTITY ns_graphs "http://ns.adobe.com/Graphs/1.0/">
	<!ENTITY ns_vars "http://ns.adobe.com/Variables/1.0/">
	<!ENTITY ns_imrep "http://ns.adobe.com/ImageReplacement/1.0/">
	<!ENTITY ns_sfw "http://ns.adobe.com/SaveForWeb/1.0/">
	<!ENTITY ns_custom "http://ns.adobe.com/GenericCustomNamespace/1.0/">
	<!ENTITY ns_adobe_xpath "http://ns.adobe.com/XPath/1.0/">
]>
<svg version="1.1" id="Calque_1" xmlns:x="&ns_extend;" xmlns:i="&ns_ai;" xmlns:graph="&ns_graphs;"
	 xmlns="http://www.w3.org/2000/svg" xmlns:xlink="http://www.w3.org/1999/xlink" xmlns:a="http://ns.adobe.com/AdobeSVGViewerExtensions/3.0/"
	 x="0px" y="0px" viewBox="0 0 130.025 130.025" enable-background="new 0 0 130.025 130.025" xml:space="preserve">
<metadata>
	<sfw  xmlns="&ns_sfw;">
		<slices></slices>
		<sliceSourceBounds  bottomLeftOrigin="true" height="88.379" width="116.064" x="239.606" y="-465.134"></sliceSourceBounds>
	</sfw>
</metadata>
<g>
	<path fill="#FFFFFF" stroke="#C6C4C3" stroke-width="3" stroke-miterlimit="10" d="M89.481,33.557H14.098
		c-3.102,0-5.617-2.515-5.617-5.617v0c0-3.102,2.515-5.617,5.617-5.617h75.383c3.102,0,5.617,2.515,5.617,5.617v0
		C95.098,31.042,92.583,33.557,89.481,33.557z"/>
	<path fill="#FFFFFF" stroke="#C6C4C3" stroke-width="3" stroke-miterlimit="10" d="M115.927,52.093H40.545
		c-3.102,0-5.617-2.515-5.617-5.617v0c0-3.102,2.515-5.617,5.617-5.617h75.383c3.102,0,5.617,2.515,5.617,5.617v0
		C121.545,49.579,119.03,52.093,115.927,52.093z"/>
	<path fill="#FFFFFF" stroke="#C6C4C3" stroke-width="3" stroke-miterlimit="10" d="M100.374,70.63H24.991
		c-3.102,0-5.617-2.515-5.617-5.617v0c0-3.102,2.515-5.617,5.617-5.617h75.383c3.102,0,5.617,2.515,5.617,5.617v0
		C105.991,68.115,103.477,70.63,100.374,70.63z"/>
	<path fill="#FFFFFF" stroke="#C6C4C3" stroke-width="3" stroke-miterlimit="10" d="M89.481,89.166H14.098
		c-3.102,0-5.617-2.515-5.617-5.617v0c0-3.102,2.515-5.617,5.617-5.617h75.383c3.102,0,5.617,2.515,5.617,5.617v0
		C95.098,86.651,92.583,89.166,89.481,89.166z"/>
	<path fill="#FFFFFF" stroke="#C6C4C3" stroke-width="3" stroke-miterlimit="10" d="M115.927,107.702H40.545
		c-3.102,0-5.617-2.515-5.617-5.617v0c0-3.102,2.515-5.617,5.617-5.617h75.383c3.102,0,5.617,2.515,5.617,5.617v0
		C121.545,105.187,119.03,107.702,115.927,107.702z"/>
</g>
</svg>
