<?xml version="1.0" encoding="utf-8"?>
<!-- Generator: Adobe Illustrator 24.3.0, SVG Export Plug-In . SVG Version: 6.00 Build 0)  -->
<!DOCTYPE svg PUBLIC "-//W3C//DTD SVG 1.1//EN" "http://www.w3.org/Graphics/SVG/1.1/DTD/svg11.dtd" [
	<!ENTITY ns_flows "http://ns.adobe.com/Flows/1.0/">
	<!ENTITY ns_extend "http://ns.adobe.com/Extensibility/1.0/">
	<!ENTITY ns_ai "http://ns.adobe.com/AdobeIllustrator/10.0/">
	<!ENTITY ns_graphs "http://ns.adobe.com/Graphs/1.0/">
	<!ENTITY ns_vars "http://ns.adobe.com/Variables/1.0/">
	<!ENTITY ns_imrep "http://ns.adobe.com/ImageReplacement/1.0/">
	<!ENTITY ns_sfw "http://ns.adobe.com/SaveForWeb/1.0/">
	<!ENTITY ns_custom "http://ns.adobe.com/GenericCustomNamespace/1.0/">
	<!ENTITY ns_adobe_xpath "http://ns.adobe.com/XPath/1.0/">
]>
<svg version="1.1" id="Calque_1" xmlns:x="&ns_extend;" xmlns:i="&ns_ai;" xmlns:graph="&ns_graphs;"
	 xmlns="http://www.w3.org/2000/svg" xmlns:xlink="http://www.w3.org/1999/xlink" xmlns:a="http://ns.adobe.com/AdobeSVGViewerExtensions/3.0/"
	 x="0px" y="0px" viewBox="0 0 90.039 75.937" enable-background="new 0 0 90.039 75.937" xml:space="preserve">
<metadata>
	<sfw  xmlns="&ns_sfw;">
		<slices></slices>
		<sliceSourceBounds  bottomLeftOrigin="true" height="75.937" width="90.039" x="252.481" y="-458.969"></sliceSourceBounds>
	</sfw>
</metadata>
<g>
	<circle fill="#F5FBFE" cx="64.389" cy="25.126" r="25.126"/>
	<circle fill="#E9E9EA" cx="81.538" cy="21.764" r="2.17"/>
	<circle fill="#E9E9EA" cx="58.432" cy="36.923" r="4.691"/>
	<circle fill="#E9E9EA" cx="73.293" cy="8.84" r="2.648"/>
	<circle fill="#E9E9EA" cx="46.985" cy="13.551" r="2.648"/>
	<circle fill="#E9E9EA" cx="62.219" cy="19.594" r="2.17"/>
	<circle fill="#E9E9EA" cx="75.463" cy="35.083" r="2.17"/>
</g>
<path fill="#FFFFFF" stroke="#C6C4C3" stroke-width="3" stroke-miterlimit="10" d="M65.585,38.263H7.117
	c-3.102,0-5.617-2.515-5.617-5.617v0c0-3.102,2.515-5.617,5.617-5.617h58.468c3.102,0,5.617,2.515,5.617,5.617v0
	C71.202,35.749,68.687,38.263,65.585,38.263z"/>
<path fill="#FFFFFF" stroke="#C6C4C3" stroke-width="3" stroke-miterlimit="10" d="M82.922,56.35H24.453
	c-3.102,0-5.617-2.515-5.617-5.617v0c0-3.102,2.515-5.617,5.617-5.617h58.468c3.102,0,5.617,2.515,5.617,5.617v0
	C88.539,53.836,86.024,56.35,82.922,56.35z"/>
<path fill="#FFFFFF" stroke="#C6C4C3" stroke-width="3" stroke-miterlimit="10" d="M65.585,74.437H7.117
	c-3.102,0-5.617-2.515-5.617-5.617v0c0-3.102,2.515-5.617,5.617-5.617h58.468c3.102,0,5.617,2.515,5.617,5.617v0
	C71.202,71.923,68.687,74.437,65.585,74.437z"/>
</svg>
