<?xml version="1.0" encoding="utf-8"?>
<!-- Generator: Adobe Illustrator 24.3.0, SVG Export Plug-In . SVG Version: 6.00 Build 0)  -->
<!DOCTYPE svg PUBLIC "-//W3C//DTD SVG 1.1//EN" "http://www.w3.org/Graphics/SVG/1.1/DTD/svg11.dtd" [
	<!ENTITY ns_flows "http://ns.adobe.com/Flows/1.0/">
	<!ENTITY ns_extend "http://ns.adobe.com/Extensibility/1.0/">
	<!ENTITY ns_ai "http://ns.adobe.com/AdobeIllustrator/10.0/">
	<!ENTITY ns_graphs "http://ns.adobe.com/Graphs/1.0/">
	<!ENTITY ns_vars "http://ns.adobe.com/Variables/1.0/">
	<!ENTITY ns_imrep "http://ns.adobe.com/ImageReplacement/1.0/">
	<!ENTITY ns_sfw "http://ns.adobe.com/SaveForWeb/1.0/">
	<!ENTITY ns_custom "http://ns.adobe.com/GenericCustomNamespace/1.0/">
	<!ENTITY ns_adobe_xpath "http://ns.adobe.com/XPath/1.0/">
]>
<svg version="1.1" id="Calque_1" xmlns:x="&ns_extend;" xmlns:i="&ns_ai;" xmlns:graph="&ns_graphs;"
	 xmlns="http://www.w3.org/2000/svg" xmlns:xlink="http://www.w3.org/1999/xlink" xmlns:a="http://ns.adobe.com/AdobeSVGViewerExtensions/3.0/"
	 x="0px" y="0px" viewBox="0 0 129.014 97.37" enable-background="new 0 0 129.014 97.37" xml:space="preserve">
<metadata>
	<sfw  xmlns="&ns_sfw;">
		<slices></slices>
		<sliceSourceBounds  bottomLeftOrigin="true" height="97.37" width="129.014" x="232.993" y="-469.685"></sliceSourceBounds>
	</sfw>
</metadata>
<g>
	<circle fill="#F5FBFE" cx="55.633" cy="25.126" r="25.126"/>
	<circle fill="#E9E9EA" cx="72.782" cy="21.764" r="2.17"/>
	<circle fill="#E9E9EA" cx="49.676" cy="36.923" r="4.691"/>
	<circle fill="#E9E9EA" cx="64.537" cy="8.84" r="2.648"/>
	<circle fill="#E9E9EA" cx="38.229" cy="13.551" r="2.648"/>
	<circle fill="#E9E9EA" cx="53.463" cy="19.594" r="2.17"/>
	<circle fill="#E9E9EA" cx="66.707" cy="35.083" r="2.17"/>
</g>
<path fill="#FFFFFF" stroke="#534F4D" stroke-width="8" stroke-linecap="round" stroke-miterlimit="10" d="M105.035,93.37
	c11.034,0,19.979-8.945,19.979-19.979s-8.945-19.979-19.979-19.979h-4.694c-1.424-12.431-11.982-22.085-24.795-22.085
	c-12.862,0-23.452,9.729-24.811,22.229c-9.897,1.19-17.568,9.617-17.568,19.835c0,11.034,8.945,19.979,19.979,19.979H105.035z"/>
<path fill="#FFFFFF" stroke="#534F4D" stroke-width="8" stroke-linecap="round" stroke-miterlimit="10" d="M34.807,35.995
	c4.73,0,8.564-3.834,8.564-8.564s-3.834-8.564-8.564-8.564h-2.012c-0.611-5.329-5.136-9.467-10.629-9.467
	c-5.514,0-10.053,4.17-10.636,9.529C7.288,19.438,4,23.05,4,27.431c0,4.73,3.834,8.564,8.564,8.564H34.807z"/>
</svg>
