<?xml version="1.0" encoding="utf-8"?>
<!-- Generator: Adobe Illustrator 24.3.0, SVG Export Plug-In . SVG Version: 6.00 Build 0)  -->
<!DOCTYPE svg PUBLIC "-//W3C//DTD SVG 1.1//EN" "http://www.w3.org/Graphics/SVG/1.1/DTD/svg11.dtd" [
	<!ENTITY ns_flows "http://ns.adobe.com/Flows/1.0/">
	<!ENTITY ns_extend "http://ns.adobe.com/Extensibility/1.0/">
	<!ENTITY ns_ai "http://ns.adobe.com/AdobeIllustrator/10.0/">
	<!ENTITY ns_graphs "http://ns.adobe.com/Graphs/1.0/">
	<!ENTITY ns_vars "http://ns.adobe.com/Variables/1.0/">
	<!ENTITY ns_imrep "http://ns.adobe.com/ImageReplacement/1.0/">
	<!ENTITY ns_sfw "http://ns.adobe.com/SaveForWeb/1.0/">
	<!ENTITY ns_custom "http://ns.adobe.com/GenericCustomNamespace/1.0/">
	<!ENTITY ns_adobe_xpath "http://ns.adobe.com/XPath/1.0/">
]>
<svg version="1.1" id="Calque_1" xmlns:x="&ns_extend;" xmlns:i="&ns_ai;" xmlns:graph="&ns_graphs;"
	 xmlns="http://www.w3.org/2000/svg" xmlns:xlink="http://www.w3.org/1999/xlink" xmlns:a="http://ns.adobe.com/AdobeSVGViewerExtensions/3.0/"
	 x="0px" y="0px" viewBox="0 0 103.574 82.156" enable-background="new 0 0 103.574 82.156" xml:space="preserve">
<metadata>
	<sfw  xmlns="&ns_sfw;">
		<slices></slices>
		<sliceSourceBounds  bottomLeftOrigin="true" height="82.156" width="103.574" x="245.713" y="-462.078"></sliceSourceBounds>
	</sfw>
</metadata>
<g>
	<circle fill="#F5FBFE" cx="78.448" cy="25.126" r="25.126"/>
	<circle fill="#E9E9EA" cx="95.597" cy="21.764" r="2.17"/>
	<circle fill="#E9E9EA" cx="72.491" cy="36.923" r="4.691"/>
	<circle fill="#E9E9EA" cx="87.352" cy="8.84" r="2.648"/>
	<circle fill="#E9E9EA" cx="61.044" cy="13.551" r="2.648"/>
	<circle fill="#E9E9EA" cx="76.278" cy="19.594" r="2.17"/>
	<circle fill="#E9E9EA" cx="89.522" cy="35.083" r="2.17"/>
</g>
<path fill="#FFFFFF" stroke="#534F4D" stroke-width="8" stroke-linecap="round" stroke-miterlimit="10" d="M75.867,71.102
	c11.034,0,19.979-8.945,19.979-19.979s-8.945-19.979-19.979-19.979h-4.694C69.749,18.714,59.192,9.06,46.379,9.06
	c-12.862,0-23.452,9.729-24.811,22.229C11.671,32.479,4,40.905,4,51.123c0,11.034,8.945,19.979,19.979,19.979"/>
<line fill="none" stroke="#8FCFF1" stroke-width="8" stroke-linecap="round" stroke-miterlimit="10" x1="67.402" y1="64.816" x2="62.6" y2="78.156"/>
<line fill="none" stroke="#8FCFF1" stroke-width="8" stroke-linecap="round" stroke-miterlimit="10" x1="36.925" y1="64.816" x2="32.123" y2="78.156"/>
<line fill="none" stroke="#8FCFF1" stroke-width="8" stroke-linecap="round" stroke-miterlimit="10" x1="52.164" y1="64.816" x2="47.362" y2="78.156"/>
</svg>
