<?xml version="1.0" encoding="utf-8"?>
<!-- Generator: Adobe Illustrator 24.3.0, SVG Export Plug-In . SVG Version: 6.00 Build 0)  -->
<!DOCTYPE svg PUBLIC "-//W3C//DTD SVG 1.1//EN" "http://www.w3.org/Graphics/SVG/1.1/DTD/svg11.dtd" [
	<!ENTITY ns_flows "http://ns.adobe.com/Flows/1.0/">
	<!ENTITY ns_extend "http://ns.adobe.com/Extensibility/1.0/">
	<!ENTITY ns_ai "http://ns.adobe.com/AdobeIllustrator/10.0/">
	<!ENTITY ns_graphs "http://ns.adobe.com/Graphs/1.0/">
	<!ENTITY ns_vars "http://ns.adobe.com/Variables/1.0/">
	<!ENTITY ns_imrep "http://ns.adobe.com/ImageReplacement/1.0/">
	<!ENTITY ns_sfw "http://ns.adobe.com/SaveForWeb/1.0/">
	<!ENTITY ns_custom "http://ns.adobe.com/GenericCustomNamespace/1.0/">
	<!ENTITY ns_adobe_xpath "http://ns.adobe.com/XPath/1.0/">
]>
<svg version="1.1" id="Calque_1" xmlns:x="&ns_extend;" xmlns:i="&ns_ai;" xmlns:graph="&ns_graphs;"
	 xmlns="http://www.w3.org/2000/svg" xmlns:xlink="http://www.w3.org/1999/xlink" xmlns:a="http://ns.adobe.com/AdobeSVGViewerExtensions/3.0/"
	 x="0px" y="0px" viewBox="0 0 130.025 130.025" enable-background="new 0 0 130.025 130.025" xml:space="preserve">
<metadata>
	<sfw  xmlns="&ns_sfw;">
		<slices></slices>
		<sliceSourceBounds  bottomLeftOrigin="true" height="119.207" width="123.51" x="235.883" y="-478.549"></sliceSourceBounds>
	</sfw>
</metadata>
<g>
	<g>
		<path fill="#FFFFFF" stroke="#534F4D" stroke-width="8" stroke-linecap="round" stroke-miterlimit="10" d="M102.591,51.021h6.133
			c7.756,0,14.044-6.288,14.044-14.044s-6.288-14.044-14.044-14.044h-3.299c-1.001-8.738-8.423-15.524-17.429-15.524
			c-9.041,0-16.485,6.839-17.441,15.625c-6.957,0.837-12.349,6.76-12.349,13.942c0,7.756,6.288,14.044,14.044,14.044"/>
		<path fill="#FFFFFF" stroke="#534F4D" stroke-width="8" stroke-linecap="round" stroke-miterlimit="10" d="M79.125,91.432
			c11.034,0,19.979-8.945,19.979-19.979c0-11.034-8.945-19.979-19.979-19.979h-4.694C73.007,39.044,62.449,29.39,49.637,29.39
			c-12.862,0-23.452,9.729-24.811,22.229c-9.897,1.19-17.568,9.617-17.568,19.835c0,11.034,8.945,19.979,19.979,19.979"/>
		
			<line fill="none" stroke="#8FCFF1" stroke-width="8" stroke-linecap="round" stroke-miterlimit="10" x1="70.66" y1="81.146" x2="65.858" y2="94.486"/>
		
			<line fill="none" stroke="#8FCFF1" stroke-width="8" stroke-linecap="round" stroke-miterlimit="10" x1="55.421" y1="81.146" x2="50.619" y2="94.486"/>
		
			<line fill="none" stroke="#8FCFF1" stroke-width="8" stroke-linecap="round" stroke-miterlimit="10" x1="61.979" y1="105.26" x2="57.177" y2="118.6"/>
		
			<line fill="none" stroke="#8FCFF1" stroke-width="8" stroke-linecap="round" stroke-miterlimit="10" x1="46.741" y1="105.26" x2="41.939" y2="118.6"/>
		<polygon fill="#FEEF62" points="44.276,74.864 31.402,74.864 22.639,98.071 31.774,98.071 22.33,122.616 23.477,122.616 
			44.361,91.801 35.024,91.801 		"/>
	</g>
	<g>
		<rect x="82.172" y="75.698" fill="#C51718" width="40.596" height="46.918"/>
		<g>
			<path fill="#FFFFFF" d="M105.59,119.437c-2.68,0-5.19-0.431-7.53-1.29c-2.34-0.859-4.371-2.13-6.09-3.81
				c-1.72-1.681-3.07-3.771-4.05-6.271c-0.98-2.499-1.47-5.39-1.47-8.67c0-3.24,0.5-6.129,1.5-8.67c1-2.54,2.37-4.689,4.11-6.45
				c1.74-1.76,3.77-3.1,6.09-4.02c2.319-0.92,4.779-1.38,7.38-1.38c2.84,0,5.28,0.52,7.32,1.56c2.04,1.041,3.699,2.22,4.98,3.54
				l-4.62,5.64c-1-0.879-2.061-1.62-3.18-2.22c-1.12-0.6-2.52-0.9-4.2-0.9c-1.521,0-2.91,0.291-4.17,0.87
				c-1.26,0.581-2.351,1.41-3.27,2.49c-0.921,1.08-1.63,2.4-2.13,3.959c-0.5,1.561-0.75,3.32-0.75,5.28c0,4.04,0.91,7.17,2.73,9.39
				c1.82,2.221,4.569,3.33,8.25,3.33c0.8,0,1.58-0.1,2.34-0.3c0.759-0.2,1.38-0.5,1.86-0.9v-6.72h-6.48v-7.2h14.28v18
				c-1.36,1.32-3.16,2.44-5.4,3.36C110.849,118.977,108.35,119.437,105.59,119.437z"/>
		</g>
	</g>
</g>
</svg>
