<?xml version="1.0" encoding="utf-8"?>
<!-- Generator: Adobe Illustrator 24.3.0, SVG Export Plug-In . SVG Version: 6.00 Build 0)  -->
<!DOCTYPE svg PUBLIC "-//W3C//DTD SVG 1.1//EN" "http://www.w3.org/Graphics/SVG/1.1/DTD/svg11.dtd" [
	<!ENTITY ns_flows "http://ns.adobe.com/Flows/1.0/">
	<!ENTITY ns_extend "http://ns.adobe.com/Extensibility/1.0/">
	<!ENTITY ns_ai "http://ns.adobe.com/AdobeIllustrator/10.0/">
	<!ENTITY ns_graphs "http://ns.adobe.com/Graphs/1.0/">
	<!ENTITY ns_vars "http://ns.adobe.com/Variables/1.0/">
	<!ENTITY ns_imrep "http://ns.adobe.com/ImageReplacement/1.0/">
	<!ENTITY ns_sfw "http://ns.adobe.com/SaveForWeb/1.0/">
	<!ENTITY ns_custom "http://ns.adobe.com/GenericCustomNamespace/1.0/">
	<!ENTITY ns_adobe_xpath "http://ns.adobe.com/XPath/1.0/">
]>
<svg version="1.1" id="Calque_1" xmlns:x="&ns_extend;" xmlns:i="&ns_ai;" xmlns:graph="&ns_graphs;"
	 xmlns="http://www.w3.org/2000/svg" xmlns:xlink="http://www.w3.org/1999/xlink" xmlns:a="http://ns.adobe.com/AdobeSVGViewerExtensions/3.0/"
	 x="0px" y="0px" viewBox="0 0 130.025 130.025" enable-background="new 0 0 130.025 130.025" xml:space="preserve">
<metadata>
	<sfw  xmlns="&ns_sfw;">
		<slices></slices>
		<sliceSourceBounds  bottomLeftOrigin="true" height="96.494" width="103.574" x="243.851" y="-469.192"></sliceSourceBounds>
	</sfw>
</metadata>
<g>
	<circle fill="#F5FBFE" cx="89.674" cy="41.891" r="25.126"/>
	<circle fill="#E9E9EA" cx="106.823" cy="38.53" r="2.17"/>
	<circle fill="#E9E9EA" cx="83.716" cy="53.689" r="4.691"/>
	<circle fill="#E9E9EA" cx="98.578" cy="25.605" r="2.648"/>
	<circle fill="#E9E9EA" cx="72.27" cy="30.317" r="2.648"/>
	<circle fill="#E9E9EA" cx="87.504" cy="36.359" r="2.17"/>
	<circle fill="#E9E9EA" cx="100.748" cy="51.849" r="2.17"/>
</g>
<path fill="#FFFFFF" stroke="#534F4D" stroke-width="8" stroke-linecap="round" stroke-miterlimit="10" d="M87.093,87.868
	c11.034,0,19.979-8.945,19.979-19.979S98.127,47.91,87.093,47.91h-4.694C80.975,35.48,70.417,25.825,57.605,25.825
	c-12.862,0-23.452,9.729-24.811,22.229c-9.897,1.19-17.568,9.617-17.568,19.835c0,11.034,8.945,19.979,19.979,19.979"/>
<polygon fill="#FEEF62" points="71.657,65.508 58.783,65.508 50.02,88.715 59.155,88.715 49.711,113.259 50.858,113.259 
	71.742,82.444 62.404,82.444 "/>
</svg>
