<?xml version="1.0" encoding="utf-8"?>
<!-- Generator: Adobe Illustrator 24.3.0, SVG Export Plug-In . SVG Version: 6.00 Build 0)  -->
<svg version="1.1" id="Calque_1" xmlns="http://www.w3.org/2000/svg" xmlns:xlink="http://www.w3.org/1999/xlink" x="0px" y="0px"
	 viewBox="0 0 52.9 97.5" style="enable-background:new 0 0 52.9 97.5;" xml:space="preserve">
<style type="text/css">
	.st0{fill:none;stroke:#534F4D;stroke-width:5;stroke-miterlimit:10;}
	.st1{display:none;fill:#534F4D;}
	.st2{fill:#534F4D;}
</style>
<g>
	<g>
		<path class="st0" d="M45.4,95H7.5c-2.8,0-5-2.3-5-5V7.5c0-2.8,2.3-5,5-5h37.8c2.8,0,5,2.3,5,5V90C50.4,92.8,48.2,95,45.4,95z"/>
		<path class="st1" d="M34.2,2.5H18.7c-1.3,0-2.4-1.1-2.4-2.4v-3.1c0-1.3,1.1-2.4,2.4-2.4h15.4c1.3,0,2.4,1.1,2.4,2.4v3.1
			C36.6,1.4,35.5,2.5,34.2,2.5z"/>
		<rect x="8.6" y="77.4" class="st1" width="35.6" height="11.5"/>
		<rect x="8.6" y="9.5" class="st1" width="35.6" height="11.5"/>
		<rect x="8.6" y="26.5" class="st1" width="35.6" height="11.5"/>
		<rect x="8.6" y="43.4" class="st1" width="35.6" height="11.5"/>
		<rect x="8.6" y="60.4" class="st1" width="35.6" height="11.5"/>
	</g>
	<g>
		<line class="st0" x1="12.4" y1="23.7" x2="40.5" y2="51.8"/>
		<line class="st0" x1="40.5" y1="23.7" x2="12.4" y2="51.8"/>
	</g>
	<g>
		<path class="st2" d="M26.4,85.7c-1.1,0-2-0.4-2.8-1.2c-0.7-0.8-1.1-1.7-1.1-2.9c0-1.2,0.4-2.1,1.1-2.9c0.7-0.8,1.7-1.2,2.8-1.2
			c1.1,0,2,0.4,2.8,1.2c0.7,0.8,1.1,1.7,1.1,2.9c0,1.1-0.4,2.1-1.1,2.9C28.5,85.3,27.5,85.7,26.4,85.7z M24.3,75l-0.9-13.4l-0.2-5.8
			h6.5l-0.2,5.8L28.5,75H24.3z"/>
	</g>
</g>
</svg>
