<?xml version="1.0" encoding="utf-8"?>
<!-- Generator: Adobe Illustrator 24.3.0, SVG Export Plug-In . SVG Version: 6.00 Build 0)  -->
<svg version="1.1" id="Calque_1" xmlns="http://www.w3.org/2000/svg" xmlns:xlink="http://www.w3.org/1999/xlink" x="0px" y="0px"
	 viewBox="0 0 83.1 63.8" style="enable-background:new 0 0 83.1 63.8;" xml:space="preserve">
<style type="text/css">
	.st0{fill:#D2D0D0;}
	.st1{fill-rule:evenodd;clip-rule:evenodd;fill:#9B9795;}
</style>
<path class="st0" d="M66.4,56.1c0,4.3-3.5,7.7-7.7,7.7H13.2c-4.3,0-7.7-3.5-7.7-7.7V10.6c0-4.3,3.5-7.7,7.7-7.7h45.5
	c4.3,0,7.7,3.5,7.7,7.7V56.1z"/>
<path class="st1" d="M36,39.5c0.3-0.5,0.6-0.9,0.9-1.3c6.4-9.6,14-18.1,22.8-25.6C65,8.1,70.7,4.2,77.1,1.5c1.3-0.5,2.7-0.9,4-1.4
	c0.7-0.3,1.4-0.2,1.8,0.5c0.4,0.7,0.1,1.3-0.4,1.8c-3,3-6,5.9-8.8,9.1c-9,9.9-16.6,20.8-23.3,32.4c-2.2,3.8-4.2,7.6-6.3,11.4
	c-0.9,1.7-1.9,3.3-3.4,4.5c-1.5,1.2-3.3,2-5.2,1.3c-1-0.4-2-1.2-2.7-2c-1.7-2.2-3.3-4.6-4.8-7c-2.6-3.9-5-8-7.7-11.8
	c-3.8-5.5-8.9-9.9-14.2-13.9c-1.7-1.2-3.4-2.4-5.1-3.6C0.4,22.3-0.2,21.8,0,21c0.2-0.9,1-1,1.8-1.1c10-0.6,18.3,3.1,25.4,9.8
	c3,2.8,5.5,6.1,8.3,9.2C35.6,39.1,35.8,39.3,36,39.5z"/>
</svg>
