<?xml version="1.0" encoding="utf-8"?>
<!-- Generator: Adobe Illustrator 24.3.0, SVG Export Plug-In . SVG Version: 6.00 Build 0)  -->
<svg version="1.1" id="Calque_1" xmlns="http://www.w3.org/2000/svg" xmlns:xlink="http://www.w3.org/1999/xlink" x="0px" y="0px"
	 viewBox="0 0 130 130" style="enable-background:new 0 0 130 130;" xml:space="preserve">
<style type="text/css">
	.st0{fill:#544F4E;}
	.st1{fill:none;}
	.st2{fill:none;stroke:#544F4E;stroke-width:10;stroke-miterlimit:10;}
</style>
<circle class="st0" cx="59.4" cy="37.8" r="6.1"/>
<path class="st0" d="M29.4,59.3c-1.2,1.3-3.2,1.3-4.5,0.1c-1.3-1.2-1.3-3.2-0.1-4.5L29.4,59.3z"/>
<path class="st0" d="M39.1,69.1c-1.2,3.2,0.4,6.8,3.7,8c3.2,1.2,6.8-0.4,8-3.6l0,0l9.4-24.8l-11.7-4.4L39.1,69.1"/>
<rect x="60.3" y="52.6" transform="matrix(0.6569 -0.7539 0.7539 0.6569 -20.5918 67.2131)" class="st0" width="6.4" height="7.3"/>
<rect x="47.5" y="69.4" transform="matrix(0.5036 -0.864 0.864 0.5036 -42.1613 82.5458)" class="st0" width="6.4" height="17.2"/>
<rect x="32.3" y="77.7" transform="matrix(0.4577 -0.8891 0.8891 0.4577 -51.9962 76.5859)" class="st0" width="9" height="6.4"/>
<rect x="64.1" y="54.6" class="st0" width="13.8" height="6.4"/>
<rect x="34.9" y="45" transform="matrix(0.9965 -8.360255e-02 8.360255e-02 0.9965 -3.8859 3.6779)" class="st0" width="14.2" height="6.4"/>
<rect x="25.1" y="49.4" transform="matrix(0.731 -0.6824 0.6824 0.731 -27.3408 35.9579)" class="st0" width="13.7" height="6.4"/>
<path class="st0" d="M52.4,97.4l7.4-18l-6-2.4l-7.4,18l0,0c-1,2.3-0.4,4.8,1.3,5.4C49.4,101.1,51.5,99.8,52.4,97.4"/>
<path class="st0" d="M24.6,85.1l12.9,1.3l0.7-6.4l-12.9-1.3v0c-1.7-0.2-3.2,1.1-3.4,2.9C21.8,83.3,23,84.9,24.6,85.1"/>
<g>
	<polygon class="st0" points="76.5,29.8 76.5,61 86.6,61 86.6,61 86.6,54.5 96.2,64.1 86.6,73.8 86.6,67.3 86.6,67.3 76.5,67.3 
		76.5,102.9 100.9,102.9 100.9,29.8 	"/>
	<polygon class="st1" points="86.6,67.3 86.6,73.8 96.2,64.1 86.6,54.5 86.6,61 86.6,61 76.5,61 76.5,67.3 86.6,67.3 	"/>
</g>
<path class="st2" d="M125,65c0,33.1-26.9,60-60,60C31.9,125,5,98.1,5,65C5,31.9,31.9,5,65,5C98.1,5,125,31.9,125,65z"/>
</svg>
