<?xml version="1.0" encoding="utf-8"?>
<!-- Generator: Adobe Illustrator 24.3.0, SVG Export Plug-In . SVG Version: 6.00 Build 0)  -->
<!DOCTYPE svg PUBLIC "-//W3C//DTD SVG 1.1//EN" "http://www.w3.org/Graphics/SVG/1.1/DTD/svg11.dtd" [
	<!ENTITY ns_flows "http://ns.adobe.com/Flows/1.0/">
	<!ENTITY ns_extend "http://ns.adobe.com/Extensibility/1.0/">
	<!ENTITY ns_ai "http://ns.adobe.com/AdobeIllustrator/10.0/">
	<!ENTITY ns_graphs "http://ns.adobe.com/Graphs/1.0/">
	<!ENTITY ns_vars "http://ns.adobe.com/Variables/1.0/">
	<!ENTITY ns_imrep "http://ns.adobe.com/ImageReplacement/1.0/">
	<!ENTITY ns_sfw "http://ns.adobe.com/SaveForWeb/1.0/">
	<!ENTITY ns_custom "http://ns.adobe.com/GenericCustomNamespace/1.0/">
	<!ENTITY ns_adobe_xpath "http://ns.adobe.com/XPath/1.0/">
]>
<svg version="1.1" id="Calque_1" xmlns:x="&ns_extend;" xmlns:i="&ns_ai;" xmlns:graph="&ns_graphs;"
	 xmlns="http://www.w3.org/2000/svg" xmlns:xlink="http://www.w3.org/1999/xlink" xmlns:a="http://ns.adobe.com/AdobeSVGViewerExtensions/3.0/"
	 x="0px" y="0px" viewBox="0 0 201.192 158.298" enable-background="new 0 0 201.192 158.298" xml:space="preserve">
<metadata>
	<sfw  xmlns="&ns_sfw;">
		<slices></slices>
		<sliceSourceBounds  bottomLeftOrigin="true" height="146.626" width="191.772" x="203.252" y="-494.258"></sliceSourceBounds>
	</sfw>
</metadata>
<g>
	<g>
		<polyline fill="none" stroke="#534F4D" stroke-width="6" stroke-linecap="round" stroke-miterlimit="10" points="194.982,109.294 
			151.014,79.951 107.046,109.294 		"/>
		<path fill="none" stroke="#12100B" stroke-miterlimit="10" d="M107.061,117.892"/>
		<g>
			<polygon fill="#534F4D" points="185.506,111.294 185.506,111.558 185.535,111.577 			"/>
			<path fill="#534F4D" d="M185.535,152.462l-0.029-40.903l-34.478-23.01l-34.506,23.029v40.884h8.595v-28.426h17.733v28.426
				H185.535z M155.918,114.93h17.489v21.319h-17.489V114.93z"/>
		</g>
		
			<line fill="none" stroke="#534F4D" stroke-width="2" stroke-miterlimit="10" x1="164.662" y1="114.93" x2="164.662" y2="136.249"/>
		<line fill="none" stroke="#534F4D" stroke-width="2" stroke-miterlimit="10" x1="155.918" y1="125.59" x2="173.407" y2="125.59"/>
		<path fill="#534F4D" d="M127.492,86.71V74.307c0-0.655,0.531-1.186,1.186-1.186h4.532c0.655,0,1.186,0.531,1.186,1.186v7.797"/>
	</g>
	<path fill="#534F4D" d="M18.652,125.409c0-2.333,0.448-4.572,1.367-6.716c0.919-2.144,2.144-3.959,3.7-5.491
		c1.555-1.532,3.393-2.757,5.514-3.676s4.36-1.367,6.693-1.367c2.333,0,4.572,0.448,6.716,1.367
		c2.121,0.919,3.959,2.144,5.491,3.676s2.757,3.37,3.676,5.491c0.919,2.121,1.367,4.36,1.367,6.716
		c0,3.818-1.131,7.211-3.393,10.227c-2.262,2.993-5.184,5.043-8.743,6.151v7.753h-9.992v-7.659c-3.629-1.06-6.622-3.111-8.931-6.151
		S18.652,129.25,18.652,125.409z M22.446,125.409c0,3.653,1.32,6.787,3.983,9.403c2.616,2.639,5.773,3.959,9.473,3.959
		c2.427,0,4.689-0.589,6.74-1.791c2.074-1.202,3.7-2.828,4.925-4.878c1.202-2.05,1.815-4.289,1.815-6.716
		c0-1.815-0.353-3.535-1.06-5.208s-1.673-3.087-2.875-4.289s-2.639-2.168-4.312-2.875c-1.673-0.707-3.393-1.06-5.208-1.06
		c-1.815,0-3.535,0.353-5.208,1.06s-3.087,1.673-4.289,2.875c-1.202,1.202-2.168,2.639-2.875,4.289
		C22.799,121.874,22.446,123.594,22.446,125.409z M23.813,126.257v-1.697h5.114v1.697H23.813z M26.381,117.915l1.225-1.225
		l3.582,3.582l-1.225,1.249L26.381,117.915z M32.343,129.532c0-0.99,0.353-1.838,1.037-2.569s1.532-1.108,2.498-1.131l6.433-10.581
		l1.555,0.825l-4.76,11.382c0.424,0.589,0.613,1.273,0.613,2.074c0,1.037-0.353,1.909-1.084,2.616s-1.602,1.06-2.639,1.06
		c-1.013,0-1.885-0.353-2.592-1.06C32.697,131.441,32.343,130.569,32.343,129.532z M35.43,118.528v-5.09h1.626v5.114H35.43V118.528z
		 M42.359,126.233v-1.744h5.114v1.744H42.359z"/>
	<path fill="#534F4D" d="M78.074,140.023c0-1.592,0.375-3.072,1.105-4.458s1.761-2.529,3.091-3.447v-18.583
		c0-1.499,0.506-2.772,1.536-3.803c1.03-1.03,2.304-1.574,3.803-1.574c1.517,0,2.791,0.525,3.821,1.555
		c1.03,1.049,1.555,2.304,1.555,3.803v18.583c1.33,0.918,2.342,2.079,3.072,3.447c0.731,1.367,1.086,2.866,1.086,4.458
		c0,1.723-0.431,3.334-1.274,4.796s-2.004,2.623-3.466,3.466s-3.053,1.274-4.796,1.274c-1.723,0-3.316-0.431-4.777-1.274
		s-2.623-2.004-3.484-3.466C78.486,143.339,78.074,141.747,78.074,140.023z M81.371,140.023c0,1.742,0.618,3.241,1.836,4.477
		c1.218,1.236,2.698,1.855,4.421,1.855c1.742,0,3.241-0.618,4.496-1.873c1.255-1.255,1.892-2.735,1.892-4.44
		c0-1.161-0.3-2.248-0.899-3.241c-0.599-0.993-1.424-1.761-2.473-2.304l-0.525-0.262c-0.187-0.075-0.281-0.262-0.281-0.543v-20.156
		c0-0.599-0.206-1.105-0.637-1.517c-0.431-0.393-0.955-0.599-1.592-0.599c-0.599,0-1.124,0.206-1.555,0.599
		c-0.431,0.393-0.637,0.899-0.637,1.517v20.119c0,0.281-0.094,0.468-0.262,0.543l-0.506,0.262c-1.03,0.543-1.836,1.311-2.417,2.304
		C81.652,137.756,81.371,138.824,81.371,140.023z M82.832,140.023c0,1.33,0.45,2.473,1.367,3.409
		c0.918,0.937,2.004,1.405,3.297,1.405s2.398-0.468,3.353-1.405c0.955-0.937,1.424-2.079,1.424-3.391
		c0-1.18-0.412-2.229-1.218-3.128c-0.806-0.899-1.798-1.442-2.96-1.592v-13.787c0-0.112-0.056-0.244-0.187-0.356
		c-0.131-0.131-0.262-0.187-0.412-0.187c-0.169,0-0.3,0.056-0.393,0.15c-0.094,0.112-0.15,0.225-0.15,0.393v13.75
		c-1.143,0.169-2.117,0.693-2.922,1.592C83.226,137.794,82.832,138.824,82.832,140.023z"/>
	<g>
		<path fill="#534F4D" d="M44.025,82.885c0,0.646,0.179,1.255,0.574,1.829c0.395,0.61,0.933,0.968,1.65,1.076
			c0.072,0,0.179,0,0.287,0.036c0.108,0.036,0.251,0.036,0.323,0.036c0.072,0,0.179,0,0.287,0c1.542-0.108,2.475-0.825,2.869-2.188
			l1.04-3.802c0.215-0.789,0.108-1.542-0.323-2.26c-0.43-0.717-1.076-1.219-1.901-1.471c-0.789-0.215-1.542-0.108-2.26,0.287
			c-0.717,0.43-1.219,1.076-1.471,1.901l-0.897,3.587C44.097,82.562,44.025,82.849,44.025,82.885z"/>
		<path fill="#534F4D" d="M48.831,65.776c0,0.538,0.179,1.076,0.538,1.614c0.359,0.538,0.933,0.933,1.65,1.219
			c0.789,0.287,1.542,0.215,2.26-0.179c0.717-0.395,1.184-1.04,1.435-1.901l1.076-3.73c0.215-0.897,0.143-1.722-0.287-2.439
			c-0.43-0.717-1.04-1.148-1.901-1.327c-0.789-0.251-1.578-0.179-2.295,0.251c-0.717,0.43-1.219,1.04-1.506,1.901l-0.897,3.658
			c0,0.072,0,0.179-0.036,0.287c-0.036,0.108-0.036,0.251-0.036,0.323C48.831,65.561,48.831,65.668,48.831,65.776z"/>
		<path fill="#534F4D" d="M58.982,71.586c0,0.681,0.179,1.291,0.574,1.865c0.395,0.574,0.933,0.968,1.686,1.148
			c0.574,0.108,0.897,0.179,0.968,0.179c1.399,0,2.331-0.717,2.762-2.152l0.861-3.802c0.251-0.789,0.179-1.542-0.215-2.26
			c-0.395-0.717-0.968-1.219-1.793-1.471c-0.897-0.215-1.722-0.108-2.439,0.323c-0.753,0.43-1.184,1.076-1.363,1.901l-1.004,3.551
			C59.018,71.048,58.982,71.3,58.982,71.586z"/>
		<path fill="#534F4D" d="M63.86,54.55c0,0.574,0.179,1.148,0.574,1.686c0.395,0.538,0.968,0.968,1.757,1.219
			c0.61,0.072,0.933,0.108,0.933,0.108c0.43,0,0.861-0.108,1.363-0.287c0.681-0.359,1.184-0.968,1.399-1.865l1.04-3.73
			c0.215-0.789,0.108-1.542-0.323-2.26c-0.43-0.717-1.076-1.219-1.901-1.471c-0.825-0.251-1.578-0.179-2.295,0.251
			s-1.184,1.04-1.435,1.901l-1.004,3.658C63.896,54.083,63.86,54.334,63.86,54.55z"/>
		<g>
			<path fill="#F3B300" d="M96.276,47.396c4.232-4.413,6.832-10.402,6.832-16.998c0-13.565-10.997-24.562-24.562-24.562
				c-8.478,0-15.953,4.296-20.367,10.829l8.295,5.372l5.867,6.981l1.587,7.221l8.545,1.204l7.944,3.37L96.276,47.396z"/>
			<g>
				<g>
					<path fill="#534F4D" d="M94.995,39.484c-4.554-4.416-9.891-6.624-16.055-6.624h-1.472c-1.38-5.336-3.956-9.845-7.728-13.479
						l-6.532-4.278c-3.772-2.024-7.912-3.036-12.421-3.036c-6.532,0-12.329,2.024-17.343,6.026
						c-5.014,4.002-8.281,9.201-9.707,15.503c-5.106,1.196-9.293,3.818-12.605,7.958C7.82,45.694,6.21,50.341,6.21,55.631
						c0,5.06,1.518,9.615,4.6,13.709c3.082,4.048,6.992,6.808,11.823,8.281l-2.99,7.636c-0.184,0.644,0,0.966,0.644,0.966h9.753
						l-5.244,18.815h1.334l18.769-25.255c0.184-0.184,0.184-0.414,0.046-0.644c-0.138-0.23-0.368-0.322-0.69-0.322h-9.983
						l11.363-21.483c0.322-0.644,0.138-1.012-0.598-1.012H31.419c-0.414,0-0.736,0.23-0.874,0.644l-5.106,13.479
						c-3.266-0.828-5.98-2.622-8.188-5.382c-2.162-2.76-3.266-5.842-3.266-9.293c0-3.864,1.288-7.222,3.91-10.075
						c2.622-2.852,5.842-4.462,9.661-4.83l2.392-0.322c0.598,0,0.92-0.276,0.92-0.782l0.322-2.392
						c0.506-5.014,2.576-9.201,6.302-12.513c3.726-3.358,8.096-5.014,13.157-5.014c5.014,0,9.431,1.656,13.157,5.014
						c3.726,3.358,5.888,7.544,6.44,12.513l0.322,2.668c0,0.506,0.276,0.782,0.828,0.782h7.452c4.186,0,7.728,1.472,10.719,4.37
						c2.944,2.898,4.462,6.44,4.462,10.489c0,3.956-1.38,7.36-4.14,10.259c-2.76,2.898-6.118,4.462-10.121,4.784
						c-0.552,0-0.874,0.276-0.874,0.828v6.348c0,0.506,0.276,0.782,0.874,0.782c6.118-0.184,11.317-2.53,15.595-6.992
						c4.278-4.462,6.394-9.753,6.394-15.963c0-3.358-0.644-6.394-1.886-9.201L94.995,39.484z"/>
					<path fill="#534F4D" d="M94.995,39.484c0,0,2.787,2.423,4.876,7.038"/>
				</g>
				<path fill="#534F4D" d="M63.207,15.103c0,0,3.379,1.7,6.532,4.278"/>
			</g>
		</g>
	</g>
	<path fill="#534F4D" d="M128.465,43.243c0,0.548,0.206,1.028,0.64,1.417c0.366,0.434,0.846,0.64,1.44,0.64h33.57
		c0.663,0,1.211,0.229,1.668,0.686c0.457,0.457,0.686,1.028,0.686,1.691c0,0.663-0.229,1.211-0.686,1.645
		c-0.457,0.434-1.006,0.663-1.691,0.663c-0.663,0-1.234-0.229-1.668-0.663c-0.366-0.411-0.823-0.594-1.371-0.594
		c-0.571,0-1.051,0.206-1.463,0.594s-0.617,0.868-0.617,1.394c0,0.571,0.206,1.051,0.64,1.44c1.28,1.257,2.788,1.897,4.479,1.897
		c1.783,0,3.314-0.617,4.593-1.851c1.28-1.234,1.897-2.719,1.897-4.502s-0.64-3.291-1.92-4.571c-1.28-1.28-2.811-1.92-4.571-1.92
		h-33.548c-0.571,0-1.051,0.206-1.463,0.594S128.465,42.672,128.465,43.243z M128.465,35.748c0,0.526,0.206,0.983,0.64,1.394
		c0.388,0.411,0.868,0.594,1.44,0.594h45.796c1.783,0,3.314-0.617,4.593-1.874c1.28-1.234,1.92-2.742,1.92-4.502
		c0-1.76-0.64-3.291-1.92-4.548s-2.811-1.897-4.593-1.897c-1.76,0-3.245,0.617-4.456,1.828c-0.411,0.366-0.617,0.868-0.617,1.531
		c0,0.594,0.206,1.074,0.594,1.44s0.868,0.548,1.44,0.548c0.548,0,1.028-0.183,1.44-0.548c0.434-0.48,0.96-0.708,1.6-0.708
		c0.663,0,1.211,0.229,1.668,0.686c0.457,0.457,0.686,1.006,0.686,1.668c0,0.663-0.229,1.211-0.686,1.645
		c-0.457,0.434-1.006,0.663-1.668,0.663h-45.796c-0.571,0-1.051,0.206-1.463,0.594C128.67,34.696,128.465,35.176,128.465,35.748z"/>
</g>
</svg>
