<?xml version="1.0" encoding="utf-8"?>
<!-- Generator: Adobe Illustrator 24.3.0, SVG Export Plug-In . SVG Version: 6.00 Build 0)  -->
<svg version="1.1" id="Calque_1" xmlns="http://www.w3.org/2000/svg" xmlns:xlink="http://www.w3.org/1999/xlink" x="0px" y="0px"
	 viewBox="0 0 130 130" style="enable-background:new 0 0 130 130;" xml:space="preserve">
<style type="text/css">
	.st0{fill:#544F4E;}
	.st1{fill:none;stroke:#544F4E;stroke-width:10;stroke-miterlimit:10;}
</style>
<g>
	<path class="st0" d="M56.2,33.3c-0.8,0-2.3,0.9-3.4,2L25.1,63c-1.1,1.1-1.1,2.9,0,4l27.7,27.7c1.1,1.1,2.6,2,3.4,2s1.4-1.3,1.4-2.8
		V80c0-1.6,1.3-2.8,2.8-2.8H104c1.6,0,2.8-1.3,2.8-2.8V55.7c0-1.6-1.3-2.8-2.8-2.8H60.5c-1.6,0-2.8-1.3-2.8-2.8V36.2
		C57.7,34.6,57,33.3,56.2,33.3z"/>
</g>
<ellipse transform="matrix(0.1592 -0.9872 0.9872 0.1592 -9.5189 118.8136)" class="st1" cx="65" cy="65" rx="60" ry="60"/>
</svg>
