<?xml version="1.0" encoding="utf-8"?>
<!-- Generator: Adobe Illustrator 24.3.0, SVG Export Plug-In . SVG Version: 6.00 Build 0)  -->
<svg version="1.1" id="Calque_1" xmlns="http://www.w3.org/2000/svg" xmlns:xlink="http://www.w3.org/1999/xlink" x="0px" y="0px"
	 viewBox="0 0 130 130" style="enable-background:new 0 0 130 130;" xml:space="preserve">
<style type="text/css">
	.st0{fill:#544F4E;}
	.st1{fill:none;stroke:#544F4E;stroke-width:10;stroke-miterlimit:10;}
</style>
<g>
	<path class="st0" d="M73.8,96.7c0.8,0,2.3-0.9,3.4-2L104.8,67c1.1-1.1,1.1-2.9,0-4L77.2,35.3c-1.1-1.1-2.6-2-3.4-2
		s-1.4,1.3-1.4,2.8V50c0,1.6-1.3,2.8-2.8,2.8H26c-1.6,0-2.8,1.3-2.8,2.8v18.6c0,1.6,1.3,2.8,2.8,2.8h43.5c1.6,0,2.8,1.3,2.8,2.8
		v13.8C72.3,95.4,73,96.7,73.8,96.7z"/>
</g>
<ellipse transform="matrix(0.1592 -0.9872 0.9872 0.1592 -9.5189 118.8136)" class="st1" cx="65" cy="65" rx="60" ry="60"/>
</svg>
