<?xml version="1.0" encoding="utf-8"?>
<!-- Generator: Adobe Illustrator 24.3.0, SVG Export Plug-In . SVG Version: 6.00 Build 0)  -->
<svg version="1.1" id="Calque_1" xmlns="http://www.w3.org/2000/svg" xmlns:xlink="http://www.w3.org/1999/xlink" x="0px" y="0px"
	 viewBox="0 0 130 130" style="enable-background:new 0 0 130 130;" xml:space="preserve">
<style type="text/css">
	.st0{fill:none;stroke:#544F4E;stroke-width:10;stroke-miterlimit:10;}
	.st1{fill:#544F4E;}
	.st2{fill:#544F4E;stroke:#544F4E;stroke-width:3;stroke-miterlimit:10;}
</style>
<ellipse transform="matrix(0.1592 -0.9872 0.9872 0.1592 -9.5189 118.8136)" class="st0" cx="65" cy="65" rx="60" ry="60"/>
<g>
	<path class="st1" d="M71.5,59.5c0,3.1-2.6,5.7-5.7,5.7h-1.7c-3.1,0-5.7-2.6-5.7-5.7V26.1c0-3.1,2.6-5.7,5.7-5.7h1.7
		c3.1,0,5.7,2.6,5.7,5.7V59.5z"/>
</g>
<path class="st2" d="M77.9,41.9c10.8,4.8,18.4,15.7,18.4,28.3c0,17.1-13.9,31-31,31s-31-13.9-31-31c0-12.6,7.6-23.5,18.4-28.3
	l-3.4-8C35.6,40,26,53.8,26,69.8c0,21.7,17.6,39.3,39.3,39.3s39.3-17.6,39.3-39.3c0-16-9.6-29.8-23.3-35.9L77.9,41.9z"/>
</svg>
